<svg id="Layer_1" data-name="Layer 1" xmlns="http://www.w3.org/2000/svg" xmlns:xlink="http://www.w3.org/1999/xlink" viewBox="0 0 4680 3120"><defs><style>.cls-1{fill:none;}.cls-2,.cls-38,.cls-6{fill:#fff;}.cls-2{opacity:0;}.cls-3{fill:#c5e7e9;}.cls-4{fill:#2b2b2b;}.cls-5{fill:#757575;}.cls-7{fill:#545454;}.cls-8{fill:#1e657e;}.cls-9{fill:#faba97;}.cls-10{fill:#0c2f4c;}.cls-11{fill:#061a28;}.cls-12{fill:#153f67;}.cls-13{fill:#f5927e;}.cls-14{fill:#380200;}.cls-15{fill:#5a1e14;}.cls-16{fill:#00bbf1;}.cls-17{fill:#0593c4;}.cls-18{fill:#394b94;}.cls-19{fill:#4f4f4f;}.cls-20{fill:#2e2e2e;}.cls-21{fill:#fcca53;}.cls-22{fill:#d43a5c;}.cls-23{fill:#3882c4;}.cls-24{fill:#f05f6a;}.cls-25{fill:#8bceb7;}.cls-26{fill:#e4e4e4;}.cls-27{fill:#288aa5;}.cls-28{fill:#82c4b7;}.cls-29{fill:#266357;}.cls-30{fill:#45a391;}.cls-31{fill:#f5851f;}.cls-32{fill:#d4601c;}.cls-33{fill:#abbdf4;}.cls-34{fill:#256ba0;opacity:0.8;}.cls-35{clip-path:url(#clip-path);}.cls-36{fill:#7fc1e2;}.cls-37{fill:#f8f8f8;}.cls-38{opacity:0.66;}.cls-39{fill:#13443b;}.cls-40{fill:#368979;}.cls-41{fill:#153e67;}.cls-42{fill:#7385c2;}</style><clipPath id="clip-path"><path class="cls-1" d="M3022.42,760.58c-32.43,0-58.72,26.07-58.72,58.24s26.29,58.23,58.72,58.23,58.72-26.07,58.72-58.23S3054.85,760.58,3022.42,760.58Zm0,89.09a30.85,30.85,0,1,1,31.11-30.85A31,31,0,0,1,3022.42,849.67Z"/></clipPath></defs><title>01</title><rect id="_01" data-name="01" class="cls-2" width="4680" height="3120"/><path class="cls-3" d="M3019.44,451.31s466.08,321,509.47,873.57-362.32,951.88-690.2,1002.72-726-178.21-1048.5-136.23-863.66-110.44-902-654.93,238-669.55,701.42-809.14S2654.7,179.5,3019.44,451.31Z"/><polygon points="2537.8 1350.98 2525.82 1344.63 2519.26 1363.18 2540.4 1377 2537.8 1350.98"/><path class="cls-4" d="M2207.62,1654.94l42.88-280.75c2.08-13.6,11.45-24.63,20.94-24.63h260.85c9.48,0,15.49,11,13.41,24.63l-42.89,280.75c-2.07,13.6-11.45,24.63-20.93,24.63H2221C2211.55,1679.57,2205.54,1668.54,2207.62,1654.94Z"/><path class="cls-5" d="M2209.08,1673.24h260.84c9.49,0,18.86-11,20.94-24.63l42.89-280.75c2.07-13.6-3.93-24.63-13.42-24.63H2259.49c-9.49,0-18.86,11-20.94,24.63l-42.89,280.75C2193.58,1662.21,2199.59,1673.24,2209.08,1673.24Z"/><path class="cls-6" d="M2469.92,1654.82c3.46,0,7.61-5,8.39-10.15l42.89-280.74a5.93,5.93,0,0,0,0-2.15h0a3.54,3.54,0,0,0-.91-.13H2259.49c-3.46,0-7.61,5-8.39,10.14l-42.89,280.75a5.69,5.69,0,0,0,0,2.15h0a3.54,3.54,0,0,0,.91.13Z"/><polygon class="cls-7" points="2044.11 1697.67 2114.9 1697.67 2474.75 1697.67 2474.75 1673.24 2044.11 1673.24 2044.11 1697.67"/><rect class="cls-4" x="2313.74" y="1673.24" width="161.01" height="24.43"/><path class="cls-4" d="M2471.1,1411.79H2277a3.13,3.13,0,0,1-3.11-3.6h0a3.13,3.13,0,0,1,3.11-2.66H2471.1a3.13,3.13,0,0,1,3.11,3.59h0A3.13,3.13,0,0,1,2471.1,1411.79Z"/><path class="cls-4" d="M2468.68,1427.89h-194.1a3.14,3.14,0,0,1-3.11-3.6h0a3.13,3.13,0,0,1,3.11-2.66h194.1a3.14,3.14,0,0,1,3.11,3.59h0A3.15,3.15,0,0,1,2468.68,1427.89Z"/><path class="cls-4" d="M2375.48,1444H2272.16a3.13,3.13,0,0,1-3.11-3.59h0a3.14,3.14,0,0,1,3.11-2.67h103.32a3.14,3.14,0,0,1,3.11,3.6h0A3.13,3.13,0,0,1,2375.48,1444Z"/><path class="cls-4" d="M2461.4,1476.18H2267.31a3.13,3.13,0,0,1-3.11-3.59h0a3.13,3.13,0,0,1,3.11-2.67H2461.4a3.13,3.13,0,0,1,3.11,3.59h0A3.13,3.13,0,0,1,2461.4,1476.18Z"/><path class="cls-4" d="M2423,1492.28h-158.1a3.14,3.14,0,0,1-3.11-3.59h0a3.13,3.13,0,0,1,3.11-2.66H2423a3.14,3.14,0,0,1,3.11,3.59h0A3.14,3.14,0,0,1,2423,1492.28Z"/><path class="cls-4" d="M2456.55,1508.38H2262.46a3.13,3.13,0,0,1-3.11-3.6h0a3.13,3.13,0,0,1,3.11-2.66h194.09a3.13,3.13,0,0,1,3.11,3.59h0A3.14,3.14,0,0,1,2456.55,1508.38Z"/><path class="cls-4" d="M2363.36,1524.47H2260a3.14,3.14,0,0,1-3.11-3.59h0a3.14,3.14,0,0,1,3.11-2.67h103.33a3.12,3.12,0,0,1,3.1,3.59h0A3.13,3.13,0,0,1,2363.36,1524.47Z"/><path class="cls-4" d="M2451.7,1540.57H2257.61a3.13,3.13,0,0,1-3.11-3.59h0a3.13,3.13,0,0,1,3.11-2.67H2451.7a3.13,3.13,0,0,1,3.11,3.59h0A3.13,3.13,0,0,1,2451.7,1540.57Z"/><path class="cls-4" d="M2424.51,1556.67H2255.18a3.14,3.14,0,0,1-3.11-3.6h0a3.14,3.14,0,0,1,3.11-2.66h169.33a3.13,3.13,0,0,1,3.11,3.59h0A3.14,3.14,0,0,1,2424.51,1556.67Z"/><path class="cls-4" d="M2446.86,1572.77h-194.1a3.13,3.13,0,0,1-3.11-3.6h0a3.13,3.13,0,0,1,3.11-2.66h194.1a3.12,3.12,0,0,1,3.1,3.59h0A3.14,3.14,0,0,1,2446.86,1572.77Z"/><path class="cls-4" d="M2444.43,1588.86h-194.1a3.14,3.14,0,0,1-3.11-3.59h0a3.15,3.15,0,0,1,3.11-2.67h194.1a3.14,3.14,0,0,1,3.11,3.6h0A3.13,3.13,0,0,1,2444.43,1588.86Z"/><path class="cls-4" d="M2442,1605H2247.91a3.13,3.13,0,0,1-3.11-3.59h0a3.14,3.14,0,0,1,3.11-2.67H2442a3.13,3.13,0,0,1,3.11,3.6h0A3.13,3.13,0,0,1,2442,1605Z"/><ellipse class="cls-8" cx="2173.33" cy="2574.54" rx="1410.81" ry="185.46"/><path class="cls-9" d="M2082.63,2514.5l72.59-32.41c-10.71-36-22.79-91.9-22.79-91.9L2050,2415S2068.06,2470.89,2082.63,2514.5Z"/><path class="cls-6" d="M2219.32,2515.78c38.4-3,77.89-16.94,94.24-30.58-24.42-.54-51.12-2.35-75.94-6.23a81.42,81.42,0,0,0-15.9,27.77A84.06,84.06,0,0,0,2219.32,2515.78Z"/><path class="cls-10" d="M2072.62,2500.86s71.83-17.69,74.63-32.94c0,0-6.17-27.79,20.16-14.23,0,0,33.23,19.6,55.87,21.66s89.75,9.05,89.75,9.05-39.54,32.64-94.3,31.58l-142.81,34.56Z"/><path class="cls-11" d="M2075.92,2550.54,2218.73,2516c52.08,1,90.33-28.41,93.95-31.29l3.5-.75,7.06,22-246.95,73.17Z"/><path class="cls-6" d="M2240,2476.85s-15.41,10.21-21.25,39.13c0,0,13.05,2.12,36.94-3.94s38.68-13.05,60-28.77Z"/><path class="cls-6" d="M2174.49,2487.84c.84-1.08,1.83-2.07,2.74-3.09l5.36-5.95c3.63-4,7.36-8,11-11.94,1.74-1.87,4.45.79,2.84,2.72-3.44,4.1-6.84,8.23-10.34,12.27l-5.08,5.86c-1.55,1.78-3.47,5.1-6.14,4.86a1.53,1.53,0,0,1-1.48-1.07A3.94,3.94,0,0,1,2174.49,2487.84Z"/><path class="cls-6" d="M2160.92,2480.23c.84-1.08,1.82-2.07,2.74-3.09l5.36-6c3.62-4,7.36-8,11.05-11.93,1.73-1.87,4.45.79,2.83,2.72-3.43,4.1-6.83,8.23-10.33,12.27-1.7,2-3.39,3.91-5.08,5.86-1.55,1.78-3.48,5.1-6.14,4.86a1.54,1.54,0,0,1-1.48-1.07A3.91,3.91,0,0,1,2160.92,2480.23Z"/><path class="cls-6" d="M2195.69,2497.46q3.17-5.82,6.32-11.63c2.36-4.34,4.78-8.63,7.26-12.91a1.59,1.59,0,0,1,2.79,1.51c-3.48,8.06-7.19,16-10.89,24-.89,1.93-1.75,4.8-4.37,4.68a2.31,2.31,0,0,1-2-1.81C2194.36,2499.86,2195.05,2498.65,2195.69,2497.46Z"/><path class="cls-9" d="M2357.59,2457.55l62.7-51.27c-20.09-32.48-46.82-84.19-46.82-84.19l-74.42,46.49S2331.68,2418.6,2357.59,2457.55Z"/><path class="cls-6" d="M2492.21,2422.21c36.94-13.18,72-37.49,84.45-55.26-24.13,6-50.84,11.38-76.26,14.21a82.9,82.9,0,0,0-8.23,31.53A86.4,86.4,0,0,0,2492.21,2422.21Z"/><path class="cls-10" d="M2344.14,2446.83s65.85-36.61,64.55-52.34c0,0-13.45-25.65,16-19.38,0,0,37.84,10.36,60.64,6.32s90.57-15.12,90.57-15.12-30.17,42.64-84.24,56.26l-131.11,72.18Z"/><path class="cls-11" d="M2360.58,2494.75l131.11-72.18c51.43-13,81.18-52.08,84-55.89l3.24-1.67,12.78,19.71-223.14,138Z"/><path class="cls-6" d="M2502.16,2378.44s-12.42,14.16-10.47,44.13c0,0,13.38-1.41,35.24-13.76s34.53-23.17,51.31-44.33Z"/><path class="cls-6" d="M2440.75,2406.77c.54-1.29,1.24-2.53,1.87-3.77l3.68-7.29c2.49-4.93,5.11-9.8,7.68-14.68,1.21-2.3,4.59-.41,3.51,1.92-2.28,4.94-4.52,9.91-6.89,14.81-1.15,2.38-2.29,4.75-3.44,7.12-1,2.17-2,5.94-4.73,6.42a1.57,1.57,0,0,1-1.74-.65A4,4,0,0,1,2440.75,2406.77Z"/><path class="cls-6" d="M2425.39,2402.93c.54-1.3,1.24-2.53,1.87-3.78l3.68-7.28c2.49-4.93,5.11-9.8,7.69-14.69,1.21-2.29,4.58-.4,3.5,1.92-2.28,5-4.52,9.91-6.89,14.82-1.14,2.37-2.29,4.74-3.43,7.12-1,2.16-2.06,5.94-4.74,6.42a1.57,1.57,0,0,1-1.74-.66A4,4,0,0,1,2425.39,2402.93Z"/><path class="cls-6" d="M2464.13,2410.54l3.12-13.11q1.74-7.35,3.69-14.63a1.62,1.62,0,0,1,3.15.74c-1.28,8.85-2.81,17.64-4.33,26.45-.36,2.13-.45,5.19-3.05,5.77a2.33,2.33,0,0,1-2.47-1.24C2463.46,2413.25,2463.81,2411.88,2464.13,2410.54Z"/><path class="cls-10" d="M1622.72,1831.41l87.3,21s284.86,38.9,321.88,116.44c66.67,139.65,154.56,429.67,154.56,429.67l-151,52.09s-51.62-165.59-137.29-357c-14.56-14.5-157.85.48-274.91.62-222.83.26-220.73-197.55-185.94-321.31Z"/><path class="cls-11" d="M2077.72,2430c-.39-.91-40-91.85-79-183.16-68.74-160.71-77.94-186.87-79.18-192.7-2.86-1.79-15-6.19-65-14.7-36.09-6.14-80.54-12.59-123.53-18.82-41.75-6.06-81.18-11.77-103.69-16-58.77-11-89.29-41.25-104.54-64.75-16.6-25.55-19.15-48.33-19.25-49.29l9.08-1c0,.22,2.52,21.88,18.06,45.63,20.8,31.78,53.87,52.08,98.32,60.37,22.33,4.16,61.67,9.86,103.33,15.9,43.3,6.28,92.37,13.4,129.42,19.84,20.2,3.51,35.14,6.5,45.66,9.17,15.73,4,20.91,6.84,21,11.73,2.06,13.39,95.32,230.86,157.62,374.05Zm-149.24-377.63v0Z"/><path class="cls-12" d="M2407.09,2336.29l-10,5.45-31.33,17.18-114.46,62.74s-113.08-136.66-203.1-328.08c-3.1-2.95-12.65-4.67-26.94-5.56l33.85-202.71c67.27,19.38,129.55,45.38,145.72,77.62,36.22,72.24,90.16,169.64,133.77,246.85,22.31,39.48,41.93,73.68,55.1,96.54C2400.61,2325.16,2407.09,2336.29,2407.09,2336.29Z"/><path class="cls-12" d="M2055.16,1885.31,2021.31,2088c-9.6-.59-21.33-.8-34.67-.74-64.53.27-166.82,6.83-248,6.92-234.1.26-256.76-151.71-220.2-275.47l240.44,12.68,97.4,12.52s81.44,11,165.61,32.4C2033,1879.14,2044.14,1882.13,2055.16,1885.31Z"/><path class="cls-10" d="M1702,1955.4l-1.32-9.07h0c.62-.09,48.66-7.46,64-34,5.83-10.07,6.16-21.93,1-35.26l8.51-3.33c6.25,16.07,5.72,30.61-1.59,43.22C1755,1947.35,1704.17,1955.09,1702,1955.4Z"/><path class="cls-10" d="M2291.47,2395.89c-.51-.82-52.29-83.07-103.4-165.8-90.39-146.31-102.27-170.21-103.83-175.92-2.78-1.76-14.74-6.17-65-14.72-36.1-6.14-80.55-12.59-123.54-18.82-41.74-6.06-81.18-11.77-103.69-16-58.77-11-89.29-41.25-104.54-64.75-16.6-25.55-19.15-48.33-19.25-49.29l9.09-1c0,.22,2.51,21.88,18.06,45.63,20.79,31.78,53.87,52.08,98.31,60.37,22.33,4.16,61.67,9.86,103.33,15.9,43.3,6.28,92.38,13.4,129.43,19.84,20.19,3.51,35.13,6.5,45.65,9.17,15.53,3.92,20.78,6.77,21,11.54,3.85,14.63,125.18,210.42,206.07,338.89ZM2093.1,2052Z"/><path class="cls-9" d="M1744.25,1313.22h0c-30.32-15.14-38.39-53.31-16.59-78.46l57.61-95.17,82.5,55.71-51.63,96.08C1802.63,1316.52,1770.45,1326.3,1744.25,1313.22Z"/><polygon class="cls-13" points="1816.14 1291.38 1781.56 1207.36 1830.89 1263.93 1816.14 1291.38"/><path class="cls-9" d="M1981.48,1131.73,1914.19,1257a19.79,19.79,0,0,1-14.93,10.13l-48.3,6.22a20.23,20.23,0,0,1-17.93-6.69l-51.76-59.31a18.64,18.64,0,0,1-2.45-21.14l65.93-122.7Z"/><polygon class="cls-9" points="1961.28 1169.32 1952.99 1228.78 1930.92 1225.82 1961.28 1169.32"/><path class="cls-9" d="M1809.1,1151c-9.26,17.24-31.33,23.94-49.29,15s-25-30.21-15.75-47.45,31.33-23.94,49.29-15S1818.36,1133.76,1809.1,1151Z"/><path class="cls-13" d="M1791.53,1154.92a2.29,2.29,0,0,0,1.8.11,2.1,2.1,0,0,0,1.29-2.75l-11.77-30.08a2.25,2.25,0,0,0-2.86-1.26,2.1,2.1,0,0,0-1.29,2.75l11.77,30.08A2.14,2.14,0,0,0,1791.53,1154.92Z"/><path class="cls-14" d="M1934.88,1139.57c-4,7.11-31.27-.56-29-7.74C1909.64,1119.9,1941.2,1128.3,1934.88,1139.57Z"/><path class="cls-13" d="M1899.14,1199.82c-7.32,13.62-24.76,18.92-39,11.83s-19.77-23.88-12.45-37.5,24.77-18.92,39-11.83S1906.46,1186.19,1899.14,1199.82Z"/><path class="cls-13" d="M1929.9,1227.72a2.19,2.19,0,0,0,.85.23l22.25,1.69a2.18,2.18,0,0,0,2.36-1.83l8.29-59.46a2.15,2.15,0,0,0-1.9-2.4,2.19,2.19,0,0,0-2.5,1.82l-8,57.46-20.16-1.53a2.18,2.18,0,0,0-2.38,2A2.13,2.13,0,0,0,1929.9,1227.72Z"/><path d="M1924.4,1168.24c-2.79,4.91-7.48,7.62-10.46,6s-3.14-6.84-.35-11.76,7.48-7.62,10.47-6S1927.19,1163.32,1924.4,1168.24Z"/><path class="cls-6" d="M1903.79,1247.35s-44.4,21.07-21.15-18.83Z"/><path class="cls-15" d="M1877.72,989.07s46.08-28.1,102,16.54c0,0,30.57,26.61,28.62,60.45,0,0-1.84,5.7,13.23,10.7s16.58,1.51,16.58,1.51-6.39,25-39.78,19.51c0,0,36.1,21.25,66.89,3.33,0,0-11.39,71.66-66,59.26s-133.36-68.57-138.24-85.25c0,0-19.72,63.6-44.55,60.47,0,0-10.49-32.93-37.91-35.12,0,0-16.32-.66-24.09,6.73,0,0-7.71-46.14,36.53-97.89s69.49-26.13,69.49-26.13,4.56-22.2,52.37-24.93C1912.85,958.25,1877.61,967.3,1877.72,989.07Z"/><path class="cls-15" d="M1862.87,1057s-29,31.23-43.29,43.8c0,0-9.28,5.51-16.44,10.21,0,0,14.83,20.85,14.32,25C1817.46,1135.91,1850.42,1128.75,1862.87,1057Z"/><path class="cls-10" d="M1998.39,1097.78s-36-6.9-53.24-26.89c0,0,12.51,46.61,86.3,44.35,0,0,21.18-.72,33.83-14.13C2065.28,1101.11,2031,1121.3,1998.39,1097.78Z"/><path class="cls-15" d="M1780.06,1094.57c-26.24-3.79-28.71-50.66,11.26-102,9.93-12.75,29.07-5.57,28.49,6.21-1,21,11.74,45,11.74,45l-29.46,59.48Z"/><path class="cls-15" d="M2030.66,1101.05s25,7.93,34,6.26c-10.32,40.12-49.21,38.42-50.42,38,0,0-1.14,27.1-24.78,24.42-15.67-1.78-15.44-82.33-15.44-82.33Z"/><path class="cls-15" d="M1989.49,1169.72c-75.19-54.85-74.42-113.28-74.42-113.28s-83.22,6.09-97.31,60.68c-18.36-18.36-14.64-31.85-14.64-31.85l36.59-75.45,75-14,60,49.57,34.38,37.37Z"/><path class="cls-15" d="M1923.78,1063.09s45,58.84,105.67,62.86c56.85,3.76,87.39-69.33-.63-92.93,17-.24,45.33-29.93-2.86-46.48s-78.45-5.59-78.45-5.59-40.85-37.82-88-32.1c-43.47,5.27-41.94,57.45-41.94,57.45s-22.63-11.8-34.11,13.36,65.44,95.46,24.79,121.92c22.65,16.5,48.76-19.07,72.58-65.54C1944.7,1127.9,1923.78,1063.09,1923.78,1063.09Z"/><path class="cls-16" d="M1729.22,1223S1433.45,1368.39,1420,1871c140.6,60.06,344.7,21,462.18-31.11-13.88-65.09-43.19-216.84,18.24-382.88-6.41-86.91-65.83-173.54-65.83-173.54S1760.67,1269.28,1729.22,1223Z"/><path class="cls-9" d="M2242.64,1642.81q8.34-10.26,17.39-19.92c7-7.45,14.35-14.7,23.16-19.84s19.25-8.06,29.28-6.25a6.28,6.28,0,0,1,3.5,1.51c1.63,1.69,1.36,4.78,3.31,6.07a5.15,5.15,0,0,0,3.49.49c8.07-.92,17.92-4.67,23.12,1.59,5.81,7-1.12,17.16-1.38,24.85-.33,9.68,1.8,20.38,2.25,30.25a13.87,13.87,0,0,1-.39,5,12.26,12.26,0,0,1-3.15,4.48c-28.69,29-85.46,23.12-115.41-.54Z"/><path class="cls-9" d="M1827.72,1356.38,1928.33,1442c30.19,63,45.45,70.21,57.68,82.48,51.55,51.73,275.08,106.37,275.08,106.37l10.45,54.26s-197.56,31.84-345.76-45.28c-50.77-26.43-59.26-43.08-107-113.9l-35.37-79.25Z"/><path class="cls-13" d="M1937,1461.49s-38.22,41.25-118.25,68.74l30.28,41.24S1934.82,1488.27,1937,1461.49Z"/><polygon class="cls-13" points="2138.39 2414.43 2057.15 2440.47 2065.32 2463.15 2138.39 2414.43"/><polygon class="cls-13" points="2386.91 2347.38 2311.92 2388.38 2325.86 2409.6 2386.91 2347.38"/><path class="cls-17" d="M1732,1374s-53.71,13.38,95.8,307.88l36.81,45.16s-12.79-23.08.2-104.72S1732,1374,1732,1374Z"/><path class="cls-18" d="M1779.44,1291.81c-77.44,25.52-50.67,123.39,12.65,236.67s130.49,164.1,388.34,164.1l10.16-85.31s-139.49-41.79-199.7-88.1S1883.37,1257.57,1779.44,1291.81Z"/><rect class="cls-16" x="2183.75" y="1601.12" width="33.22" height="94.85" transform="translate(175.04 -210.86) rotate(5.71)"/><path d="M1938.79,1214.79a4.2,4.2,0,0,1-1.08-.15,3.52,3.52,0,0,1-2.34-2c-2.73-5.66,7.54-30.24,13.1-42.7l-116.29-51.47,1.94-4.37,129.45,57.29-.86,2.14c0,.11-4.21,10.46-9,20.51C1945.2,1211.8,1941.45,1214.79,1938.79,1214.79Zm14.06-42.88c-6.58,14.79-12.79,31.42-13.26,37.13,3.88-4.14,11.68-20.11,17.81-35.11Z"/><rect class="cls-19" x="1585.28" y="2102.84" width="36.09" height="211.35"/><rect class="cls-20" x="1579.91" y="2273.35" width="46.83" height="109.11"/><rect class="cls-19" x="1573.46" y="2365.96" width="59.74" height="143.17"/><rect class="cls-20" x="1363.82" y="2512.09" width="15.78" height="48.05"/><rect class="cls-20" x="1826.13" y="2512.09" width="15.78" height="48.05"/><rect class="cls-20" x="1635.76" y="2512.09" width="15.78" height="48.05"/><path class="cls-19" d="M1350.39,2522.33h505.86a13.17,13.17,0,0,0,13.15-13.2h0a13.16,13.16,0,0,0-13.15-13.19H1350.39a13.17,13.17,0,0,0-13.15,13.19h0A13.18,13.18,0,0,0,1350.39,2522.33Z"/><path class="cls-20" d="M1868.49,2574.67a34.47,34.47,0,1,1-34.47-34.59A34.52,34.52,0,0,1,1868.49,2574.67Z"/><path class="cls-19" d="M1834,2589.19a14.53,14.53,0,1,1,14.48-14.52A14.52,14.52,0,0,1,1834,2589.19Z"/><path class="cls-20" d="M1678.11,2574.67a34.47,34.47,0,1,1-34.46-34.59A34.52,34.52,0,0,1,1678.11,2574.67Z"/><path class="cls-19" d="M1643.65,2589.19a14.53,14.53,0,1,1,14.48-14.52A14.52,14.52,0,0,1,1643.65,2589.19Z"/><path class="cls-20" d="M1406.17,2574.67a34.47,34.47,0,1,1-34.46-34.59A34.52,34.52,0,0,1,1406.17,2574.67Z"/><path class="cls-19" d="M1371.71,2589.19a14.53,14.53,0,1,1,14.48-14.52A14.52,14.52,0,0,1,1371.71,2589.19Z"/><path class="cls-19" d="M1495.74,2118.07c-11.4.17-90.06.09-121.5,0-115.4,0-107.88-848.46-13-848.46h10.9c82.45,0,61.65,482.73,87.36,698.38,10.68,89.57,32.22,93.31,32.22,93.31Z"/><path class="cls-20" d="M1430,2061.3h465a3.14,3.14,0,0,1,3.14,3.14v50.83a2.81,2.81,0,0,1-2.81,2.81H1430a2.81,2.81,0,0,1-2.81-2.81v-51.16a2.81,2.81,0,0,1,2.81-2.81Z"/><rect class="cls-21" x="2597.42" y="1657.73" width="320.04" height="48.33" transform="translate(5514.87 3363.78) rotate(180)"/><rect class="cls-22" x="2631.18" y="1606.72" width="291.27" height="51.01" transform="translate(5553.64 3264.44) rotate(180)"/><rect class="cls-23" x="2591.29" y="1566.44" width="293.27" height="40.27" transform="translate(5475.86 3173.16) rotate(180)"/><rect class="cls-21" x="2598.09" y="1541.39" width="302.96" height="25.06" transform="translate(5499.14 3107.83) rotate(180)"/><rect class="cls-23" x="2572.25" y="1518.12" width="281.38" height="23.27" transform="translate(5425.88 3059.51) rotate(180)"/><ellipse class="cls-24" cx="1565.07" cy="709.36" rx="192.16" ry="191.53"/><ellipse class="cls-6" cx="1565.07" cy="709.36" rx="158.31" ry="157.8"/><rect class="cls-24" x="1563.01" y="563.46" width="4.11" height="21.14"/><rect class="cls-24" x="1563.01" y="834.1" width="4.11" height="21.15"/><rect class="cls-24" x="1690.22" y="707.3" width="21.21" height="4.1"/><rect class="cls-24" x="1418.7" y="707.3" width="21.21" height="4.1"/><polygon class="cls-24" points="1456.11 647.94 1437.82 637.24 1439.89 633.71 1458.18 644.41 1456.11 647.94"/><polygon class="cls-24" points="1690.24 785.01 1671.95 774.3 1674.03 770.77 1692.32 781.47 1690.24 785.01"/><polygon class="cls-24" points="1630.22 602.83 1626.67 600.75 1637.42 582.51 1640.96 584.59 1630.22 602.83"/><polygon class="cls-24" points="1492.71 836.19 1489.17 834.13 1499.91 815.89 1503.45 817.96 1492.71 836.19"/><polygon class="cls-24" points="1672.65 645.59 1670.49 642.1 1688.55 630.99 1690.71 634.48 1672.65 645.59"/><polygon class="cls-24" points="1441.59 787.72 1439.43 784.23 1457.48 773.13 1459.64 776.62 1441.59 787.72"/><polygon class="cls-24" points="1497.58 604.27 1486.45 586.28 1489.95 584.12 1501.08 602.12 1497.58 604.27"/><polygon class="cls-24" points="1640.19 834.59 1629.04 816.6 1632.54 814.44 1643.69 832.43 1640.19 834.59"/><polygon class="cls-24" points="1585.81 733.42 1502.21 647.61 1505.15 644.75 1588.75 730.56 1585.81 733.42"/><polygon class="cls-24" points="1547.04 733.31 1543.91 730.66 1650.6 605.05 1653.73 607.7 1547.04 733.31"/><path class="cls-22" d="M1579.16,709.36a14.1,14.1,0,1,1-14.09-14.06A14.07,14.07,0,0,1,1579.16,709.36Z"/><path class="cls-25" d="M3935.12,1507.72c-12.93-28.4-38.9-50.94-63.81-69.38,16-14,29.49-29.9,38.78-48.48,11.13-22.34,19.82-56.51-6.24-72.1-1.15-.68-2.3-1.29-3.47-1.88a35.21,35.21,0,1,0-68.37,0c-8.61,2.66-16.93,5.76-24.69,8.73q-20.46,7.86-40.59,16.42c-.33-2.81-.56-5.65-.92-8.46-3.61-29.52-9.43-59.11-29.61-82.09a4.38,4.38,0,0,0-4.47-1.54,4.24,4.24,0,0,0-3.46-1.89c-40.79-2.43-54.91,34.67-60.76,72.77-7.49-3.34-15-6.57-22.66-9.58-22.67-9-50-19.56-74.95-16.52a33.2,33.2,0,1,0-46.88,40.7c.25,13.22,7.43,27.37,16.48,37.09,18.43,19.76,41,37.06,63.13,53.78-3.73,2.63-8.23,5.91-13.11,9.76q-2.07,1.34-4.09,2.7a33.74,33.74,0,1,0-47.78,47.24c-23.5,29.74-34,61.93,6,79.16,32.45,14,69.73-.82,100.76-11.71,4.35-1.51,8.67-3.08,13-4.65.92,13.44,2.19,26.81,4,40.18.65,4.76,1.38,9.66,2.3,14.56a31.86,31.86,0,1,0,32.86,53.8c18.84,9.2,39.72,1.42,52.35-14.64,17.9-22.84,16.39-55.88,18.14-83.28q.8-12.24,1.51-24.55a460.48,460.48,0,0,0,45.91,18.82q12.14,4.2,24.52,7.61a30.23,30.23,0,0,0,57.92,10.76,58.18,58.18,0,0,0,19.74-2.49C3943.94,1559.67,3945.47,1530.41,3935.12,1507.72Zm-176.35-140.29c-3.43-2-6.92-4-10.38-6,3.16-1.45,6.33-2.87,9.49-4.32C3758.18,1360.57,3758.54,1364,3758.77,1367.43Zm-30.94-111.62a5.67,5.67,0,0,0,1.09,2c17.31,20.17,22.81,46.23,26.12,71.94.66,5.18,1.22,10.39,1.75,15.56q-10.38,4.53-20.65,9.23c-18.73-10.44-37.69-20.44-57.13-29.49C3682.71,1295.78,3692.65,1258.33,3727.83,1255.81Zm-50,79.76c16,7.54,31.57,15.71,47,24.2q-26.31,12.38-52,26.06Q3675.05,1360.68,3677.83,1335.57Zm-10.65,138c18.14,12.84,36.77,25.06,55.94,36.27-18.34,8.34-36.92,16.15-55.73,23.28C3666.53,1513.31,3666.56,1493.43,3667.18,1473.58Zm-56.09,78.57c-18.79,5.53-39.23,9.94-58.46,3.94-25.2-7.87-28.4-30.09-16.77-51.27a106.47,106.47,0,0,1,10-14.77,33.74,33.74,0,0,0,45-42.82q11.15-7.05,22.4-13.92c4.14,3.14,8.25,6.28,12.28,9.41q15.12,11.71,30.67,23c-.79,23.78-.76,47.57.48,71.32Q3634.11,1545.36,3611.09,1552.15Zm45.68-98.9c-11.45-8.4-22.69-17-33.85-25.7q18.24-10.92,36.84-21.27C3658.51,1421.9,3657.48,1437.58,3656.77,1453.25Zm4.11-60.94q-24.14,13.28-47.6,27.63-15.57-12.33-31-25c-14.62-12-46.71-34.67-50.2-57.28a33.65,33.65,0,0,0,6.63.66,33.19,33.19,0,0,0,33.19-33.19c0-.62,0-1.24,0-1.85,23.41-2.58,50.07,8.76,70.27,16.73q12.07,4.79,23.94,10.12c-2.19,18.22-2.84,35.85-4,48.69C3661.65,1383.35,3661.26,1387.82,3660.88,1392.31Zm94,189c-1.69,24.2-5.06,59.23-33.32,67.28-6.92,2-12.93,1.62-18.16-.35A31.87,31.87,0,0,0,3676.1,1600c-.61,0-1.22,0-1.82.06-.31-1.58-.6-3.13-.83-4.61-2.72-17.07-4.44-34.31-5.47-51.59q33.58-12.69,66.3-27.63,11.85,6.66,24,12.69Q3756.83,1555.12,3754.93,1581.26Zm4-63.69c-4.32-2.22-8.61-4.47-12.9-6.81,1.48-.68,3-1.36,4.44-2.07,3-1.42,6-2.87,9.11-4.31C3759.36,1508.75,3759.16,1513.16,3758.92,1517.57Zm1.15-25.44c-8.4,4.23-16.83,8.34-25.38,12.36a782.21,782.21,0,0,1-66.8-43.1l-.27-.18c.57-13,1.37-26.09,2.28-39q.81-11.17,1.72-22.36,32.31-17.49,65.59-33.11c7.48,4.26,14.94,8.55,22.36,12.93.65,10.92,1.07,21.83,1.33,32.78C3761.52,1439,3761.11,1465.56,3760.07,1492.13Zm7.87-139.52c21.87-9.73,44.14-19,66.83-26l1.63-.48a35.2,35.2,0,0,0,59.44.24c13.32,7.84,16.35,22.62,11.86,39.58-7.13,26.84-24.5,48-45.8,65.59-29.52-21-61.12-39.35-92.24-57.75Q3769,1363.22,3767.94,1352.61Zm2.43,33.4c16.77,10,33.43,20.21,50,30.47,11.22,6.92,22.4,14,33.26,21.57-20.71,15.53-44.17,28.13-65.29,39.43q-8.74,4.71-17.64,9.26c.42-11.42.71-22.87.86-34.28C3771.85,1430.3,3771.49,1408.14,3770.37,1386Zm149.54,169.87c-6.06,3.74-13.25,4.95-20.6,4.93,0-.61.06-1.22.06-1.84a30.23,30.23,0,0,0-59.06-9.1c-3.1-.87-6.19-1.76-9.26-2.72a444,444,0,0,1-62-24.55c.41-7.75.77-15.53,1.09-23.28,31.24-14.94,65.17-32,93.13-54.35a289.34,289.34,0,0,1,30.35,25.27C3910.68,1486.62,3953.7,1535.05,3919.91,1555.88Z"/><circle class="cls-25" cx="3717.9" cy="1433.31" r="30" transform="translate(-229.85 892.54) rotate(-13.28)"/><rect class="cls-26" x="2405.24" y="1215.79" width="405.65" height="19.13"/><path class="cls-25" d="M1512.51,1120.18a22.36,22.36,0,0,0-22,18.69l-47.5-.72a41,41,0,0,0-75-20l-43-23.9a53.86,53.86,0,0,0-73.28-60.35l-23.93-40.54A41,41,0,0,0,1248,942.19l36.34-17.1a22.37,22.37,0,1,0-2.85-6.06l-36.35,17.1a41,41,0,0,0-54.89-15.74L1173,893.66a22.4,22.4,0,1,0-5.63,3.63L1184.61,924a41.07,41.07,0,0,0-15.16,41l-35.22,10.53a22.38,22.38,0,1,0,1.6,8.33c0-.61,0-1.2-.07-1.8l35.61-10.64a41,41,0,0,0,50,24.35l24.2,41a53.85,53.85,0,0,0-.55,93.43l-21,32.16a41,41,0,0,0-60.57,36,41.36,41.36,0,0,0,.65,7.26l-29.91,8a22.35,22.35,0,1,0,1.86,8.92,21.94,21.94,0,0,0-.14-2.45l29.9-8a41,41,0,0,0,47.14,26.37l8.08,27a22.37,22.37,0,1,0,9.54-2.13,22.91,22.91,0,0,0-3.12.22l-8.09-27a41,41,0,0,0,10.25-70.55l21.47-32.81a53.87,53.87,0,0,0,72.06-32.38l41.59,23.09a41,41,0,1,0,78.15,20.87l47.5.71a22.36,22.36,0,1,0,22.15-25.38Z"/><path class="cls-25" d="M2738.75,2261.82a17.16,17.16,0,0,0-17.77-13.26l-7.66-35.64a31.46,31.46,0,0,0,2-59.53l10.45-36.3a41.32,41.32,0,0,0,32.49-65.19L2784.5,2027a31.46,31.46,0,0,0,41.73,6.34l19.05,24.23a17.15,17.15,0,1,0,8.65-5,16.89,16.89,0,0,0-4.61,1.8l-19.06-24.24a31.47,31.47,0,0,0,2.31-43.75l17-17.5a17.08,17.08,0,1,0-3.68-3.57l-17,17.5a31.41,31.41,0,0,0-27.08-6.39,31.06,31.06,0,0,0-6.2,2.13l-13.95-24.53a17.14,17.14,0,1,0-5.94,2.64c.45-.1.89-.23,1.32-.37l14.11,24.8a31.45,31.45,0,0,0-9.59,41.59l-26.48,25.16a41.31,41.31,0,0,0-69.94,15.69l-27.68-10.18a31.47,31.47,0,0,0-37.38-39.08,32.16,32.16,0,0,0-5.32,1.74l-11.1-21a17.17,17.17,0,1,0-6.35,2.92,15.66,15.66,0,0,0,1.81-.52l11.1,21a31.45,31.45,0,0,0-11.6,39.78L2579.79,2069a17.15,17.15,0,1,0,3.24,6.76,16.14,16.14,0,0,0-.71-2.3l18.83-10.7a31.46,31.46,0,0,0,54.52-4.5l28.23,10.39a41.35,41.35,0,0,0,36.63,48.3l-10.1,35.07a31.46,31.46,0,1,0-2.13,62l7.66,35.64a17.15,17.15,0,1,0,22.79,12.18Z"/><rect class="cls-27" x="1927.91" y="1697.39" width="1419.36" height="76.44" rx="10.94"/><polygon class="cls-27" points="2079.57 1774.74 1944.85 2594.14 1980.18 2594.14 2216.5 1777.47 2079.57 1774.74"/><polygon class="cls-8" points="2076.81 1792.52 2198.68 1838.94 2217.36 1773.98 2079.66 1772.92 2076.81 1792.52"/><polygon class="cls-27" points="3071.21 1780.19 3300.9 2602.31 3347.28 2602.31 3221.39 1774.74 3071.21 1780.19"/><polygon class="cls-8" points="3236.85 1883.64 3086.67 1837.36 3068.68 1773.79 3221.39 1774.74 3236.85 1883.64"/><path class="cls-28" d="M941.09,1482.48a67.35,67.35,0,0,1,19.91.65,66,66,0,0,1,21.61,8.21,84.67,84.67,0,0,1,10.37,7.17,113.58,113.58,0,0,1,9.53,8.92,129,129,0,0,1,15.47,20c9.44,14.7,17.64,32.06,25.1,53.06,3,8.51,5.86,17.68,9.19,29.73,2.77,10,5.31,20.26,7.76,31.43,3.82,17.39,7,36,10.18,58.69,2.22,16.16,3.9,32.18,5,47.63.4,5.53.71,11.08.88,16.64.52,18.17.17,38.07-1.06,60.83-1.24,22.93-3.4,46.18-5.49,68.67-.74,8-1.49,16.05-2.19,24.07-2.68,30-5.34,62-6,93.34a560.59,560.59,0,0,0,2.67,68.12l.62,1.09,0,.1s0,0,0,0l.28.51,0,0,.29.51,0,0-.12-.16c.5.74,1,1.5,1.41,2.26a4.81,4.81,0,0,1,.83,3.31,4.54,4.54,0,0,1-1.72,2.86,4.38,4.38,0,0,1-2.14.85,4.47,4.47,0,0,1-4-1.74q-1.52-2.59-3-5.19c-2.26-4-4.59-8-6.91-12-2.85-4.89-5.71-9.78-8.47-14.72-4.55-8.13-9.2-16.73-14.64-27.08-8.49-16.25-17.25-34.24-26.74-55-10.85-23.73-21.07-48.2-31-71.86-5.87-14.06-11.74-28.12-17.77-42.11l-.5-1.15c-16.09-37.29-32.73-75.86-46.06-115-5.95-17.48-11.27-35.9-16.28-56.32l-1.54-6.28c-1.92-7.76-3.84-15.53-5.62-23.32-4.67-20.31-10.17-47.17-11.19-74.82-.53-14.3.22-26.63,2.27-37.7a106,106,0,0,1,4.77-17.36,75.85,75.85,0,0,1,7.77-15.18,60.07,60.07,0,0,1,11-12.48c4.43-3.87,9.68-6.75,14.25-9.15a94.34,94.34,0,0,1,26.83-9.44c1.43-.27,2.88-.48,4.37-.65Z"/><path class="cls-29" d="M1165.12,1776.77a41.32,41.32,0,0,1,4.48-.25,47.44,47.44,0,0,1,6.43.42,46.79,46.79,0,0,1,6.64,1.55,45.58,45.58,0,0,1,10,4.38,58.38,58.38,0,0,1,10.32,7.55,83.77,83.77,0,0,1,16.82,22.15c4.37,7.93,7.59,17.32,9.84,28.67a121.77,121.77,0,0,1,1.71,33.91,176.32,176.32,0,0,1-2.95,19.62c-1.24,6.19-2.82,12.7-5.12,21.11a376.87,376.87,0,0,1-14.15,41.65c-11.64,28.67-25.68,55.74-39.12,80.71-4.06,7.54-8.18,15-12.29,22.56-9.91,18.09-20.17,36.8-29.49,55.59q-2.32,4.67-4.57,9.36a3.79,3.79,0,0,1-.34.71l-.35.73-.34.74a1.87,1.87,0,0,1-1.44,1,1.67,1.67,0,0,1-.88-.13,1.63,1.63,0,0,1-.58-.38,4.25,4.25,0,0,1-3.75-2.58c-21.65-48.61-30.22-107.56-25.47-175.21,1-14.18,2.7-28.86,5.19-44.87,2.27-14.45,5.19-29,8.68-43.27,1.7-6.94,3.55-13.9,5.51-20.67a176.15,176.15,0,0,1,7.26-20.78,120.88,120.88,0,0,1,8.87-16.68,74.48,74.48,0,0,1,9.29-11.81c7-7.21,14.57-12,22.41-14.29a46.71,46.71,0,0,1,7.42-1.53Z"/><path class="cls-30" d="M1239.78,2084.87a34.54,34.54,0,0,1,6.16-.17,23.92,23.92,0,0,1,11,3.51,24.69,24.69,0,0,1,7.87,7.8c4.3,6.66,6.13,15.16,5.63,26-.49,10.35-3.54,21.35-9.63,34.64a229,229,0,0,1-21,36.17,298.19,298.19,0,0,1-27.24,33.28c-21.27,22.73-47.19,44.31-77.06,64.14a2.83,2.83,0,0,1-1.14.42,4.18,4.18,0,0,1-3.14,2.25,3.09,3.09,0,0,1-1,0,3.71,3.71,0,0,1-2.43-1.51,3.52,3.52,0,0,1-.64-2.67c4.63-26,9.76-48.77,15.67-69.65,8.09-28.62,16.81-51.22,27.46-71.13a184.54,184.54,0,0,1,19.41-29.57,115.31,115.31,0,0,1,26.66-24.12c8.22-5.36,16.08-8.51,23.35-9.36Z"/><path class="cls-29" d="M809.75,1919.64c1.66-.19,3.34-.3,5-.37a88,88,0,0,1,25.86,3.31,159.36,159.36,0,0,1,27.14,10.18,256.69,256.69,0,0,1,26.85,14.91c8.19,5.14,16.6,11,25,17.34A334.58,334.58,0,0,1,958,1998.53a394.36,394.36,0,0,1,27.51,31.78,433.34,433.34,0,0,1,91.1,249.73,2.68,2.68,0,0,1-.17,1.1,2.93,2.93,0,0,1,.39,1.22,3.73,3.73,0,0,1-.79,2.78,3.78,3.78,0,0,1-2.52,1.41,3.64,3.64,0,0,1-2.78-.8l-1-1-1-1a18.2,18.2,0,0,0-1.47-1.3l-.75-.63c-1.47-1.29-2.91-2.6-4.36-3.92l-4.67-4.24-4.69-4.25c-6-5.4-12-10.75-18.2-16-11.35-9.61-21.65-17.73-31.51-24.84-12.15-8.76-25-17-37.33-25l-3.58-2.31-3.07-2c-33.77-21.79-68.69-44.32-101-69.45a469.57,469.57,0,0,1-48.23-42.64c-15.18-15.54-26.74-30.56-35.35-45.89-9.14-16.27-14.18-32.5-15-48.25a85.49,85.49,0,0,1,2.41-24.91,82.57,82.57,0,0,1,11.21-26,54.55,54.55,0,0,1,8.71-10,48.11,48.11,0,0,1,10.07-7,50.3,50.3,0,0,1,17.9-5.37Z"/><path class="cls-30" d="M771.61,2150.06a91.43,91.43,0,0,1,11.83-.55,148.17,148.17,0,0,1,25.84,2.83,251.53,251.53,0,0,1,25.21,6.21c7.1,2.12,13.94,4.5,20.33,7.08a200,200,0,0,1,25.9,13.2,270.52,270.52,0,0,1,34.7,24.46c29.93,24.67,56,56.78,75.24,92.86a1.06,1.06,0,0,1,.14.65,4,4,0,0,1-2,7.24,3.93,3.93,0,0,1-2-.28l-5.44-2.16c-2.64-1-5.29-2.08-7.9-3.17l-3.93-1.64c-3.41-1.43-6.83-2.86-10.27-4.24s-7.33-2.72-11.58-4c-8.53-2.66-17.34-5-25.64-7.16l-14-3.65c-14-3.63-28.48-7.37-42.66-11.35-16.28-4.57-37.66-10.89-58.62-19.33a237.75,237.75,0,0,1-25.6-11.86,134.69,134.69,0,0,1-21.16-13.86,66.48,66.48,0,0,1-14.55-15.89,42.81,42.81,0,0,1-4.32-9,39.93,39.93,0,0,1-2-10.11,41.23,41.23,0,0,1,.85-12.4,29.77,29.77,0,0,1,4.32-10c4.32-6.43,11.16-9.76,16.14-11.43a53.45,53.45,0,0,1,11.2-2.43Z"/><path class="cls-30" d="M948.87,1520.28a1.68,1.68,0,0,0-1.86-1.47,1.7,1.7,0,0,0-1.47,1.86C949.67,1584.53,958,1648,969.28,1711q7.54,42.15,16.55,84t18.9,83.41q9.94,41.6,20.29,83.08c6.83,27.17,13.49,54.39,20.39,81.53a.83.83,0,0,1,0-.15c6.12,24,12,48,18.14,72l-.11-.41c5,19.62,10.09,39.22,15.11,58.83-.18-.69-.34-1.38-.53-2.07a531.9,531.9,0,0,1,12.78,67.74,488.43,488.43,0,0,1,3.39,63.74q-.45,24-3,48c-1.73,16.4-4.07,32.72-6.71,49a7.94,7.94,0,0,0,15.69,2.42,548.48,548.48,0,0,0,10.31-110.62,480.77,480.77,0,0,0-3.49-52.83,523.18,523.18,0,0,0-9.61-54.41c-3.23-14.07-7-28-10.69-42s-7.46-27.71-11.38-41.52c-7.8-27.51-15.85-55-23.87-82.43s-16.05-54.76-23.61-82.27c-3.79-13.76-7.64-27.47-11.33-41.24s-7.24-27.33-10.74-41a5.23,5.23,0,0,1,.12.54c-.77-3.06-1.55-6.11-2.32-9.15a2.09,2.09,0,0,1,.05.21q-10-39.59-18.66-79.46c-5.82-26.84-11.23-53.78-15.95-80.82a1543.21,1543.21,0,0,1-20.1-164.88Zm115,596.19c-.09-.37-.18-.75-.28-1.13.1.38.19.76.28,1.13Zm-.28-1.13c0-.15-.08-.3-.11-.44,0,.14.07.29.11.44Zm-57.89-261.5c0-.11-.06-.23-.08-.34a3.38,3.38,0,0,0,.08.34Z"/><path class="cls-30" d="M1178.61,1831a1.41,1.41,0,0,0-1.5-1.84,1.09,1.09,0,0,0-.93.79q-8.21,22.53-14.88,45.58c-8.78,30.49-15.79,61.45-21.67,92.6-2.94,15.62-5.91,31.25-8.45,46.94s-5,31.42-7.43,47.16c-1.2,7.87-2.32,15.75-3.46,23.63s-2.33,15.74-3.32,23.62c-2,15.76-4.18,31.5-6.3,47.25s-4.14,31.38-6.05,47.11c-1,7.94-1.75,15.92-2.73,23.87-.54,4.33-1.12,8.64-1.68,12.95-.51,4-1,8-1.12,12a4.74,4.74,0,0,0,.81,3.19,4.23,4.23,0,0,0,7.26-.85,64.37,64.37,0,0,0,2.23-6.53c2.41-8.14,3.77-16.57,5.36-24.92,1.49-7.75,2.75-15.54,3.9-23.33,2.26-15.7,4-31.44,5.69-47.2.82-7.91,1.55-15.82,2.29-23.75s1.63-15.83,2.34-23.76c1.44-15.89,2.73-31.78,4.29-47.64s3.24-31.69,5.07-47.52,4.11-31.52,6.67-47.21a796,796,0,0,1,20.75-92.67s0,0,0,.06c3.89-13.31,8.13-26.51,12.87-39.56Zm-13,39.86a2.43,2.43,0,0,0,.09-.3l-.09.3Z"/><path class="cls-29" d="M1240.14,2122.73a1.9,1.9,0,0,0-1.41-.41,2.17,2.17,0,0,0-1.35.73c-15.14,17.42-29.91,35.18-43.74,53.68q-13.59,18.18-26.08,37.15c-8.36,12.74-16.93,25.38-24.5,38.61-7.49,13.05-14.79,26.31-20.56,40.23-2.86,6.91-5.54,13.89-7.79,21a201.06,201.06,0,0,0-6,22.77,7.63,7.63,0,0,0,6.34,8.62c3.15.49,7-1.28,8.08-4.44,3.88-11,7.47-22,11.35-32.91s8-22,12.3-32.91,9.19-21.64,14.24-32.25c2.46-5.18,4.91-10.36,7.61-15.4,2.59-4.82,5.31-9.54,8.11-14.22l0,.06c0-.1.1-.18.16-.28s.2-.34.31-.51l-.09.15q13.88-23,29.84-44.78c10.61-14.46,21.75-28.59,33.49-42.16a2,2,0,0,0-.32-2.75ZM1176.78,2213c.12-.19.24-.38.35-.58l-.22.36a2.53,2.53,0,0,1-.13.22Z"/><path class="cls-30" d="M814.85,1956.59a2.22,2.22,0,0,0-1.72-.49,2.35,2.35,0,0,0-1.22,4.18l7,5.93c18.2,15.47,36.25,31.12,53.94,47.18q14.35,13,28.43,26.47c9.43,9,18.81,18.11,28,27.43l-.1-.1c.09.09.16.17.25.25l.48.5a.6.6,0,0,0-.08-.08q1.94,2,3.85,4c18.87,19.56,37.14,39.76,54,61.07,8.38,10.6,16.34,21.54,24,32.68,3.79,5.51,7.4,11.13,11,16.79,3.34,5.26,6.61,10.58,9.72,16-.14-.24-.27-.48-.4-.73l.66,1.18.3.54-.18-.31a441.21,441.21,0,0,1,21.56,44.48,346.37,346.37,0,0,1,15.1,44,262.08,262.08,0,0,1,6.16,32.33c.68,5.58,1.17,11.19,1.56,16.81.19,2.68.36,5.37.52,8.05.09,1.45.18,2.92.3,4.38.09,1,.21,2,.27,2.95,0,.3,0,.6,0,.9a7.9,7.9,0,0,0,.47,4c.34.56.65,1.13,1,1.71a7.73,7.73,0,0,0,4.9,2.93,7.62,7.62,0,0,0,5.71-1.44,7.26,7.26,0,0,0,2.92-4.89,24.67,24.67,0,0,1,.2-3c.12-.73.27-1.45.37-2.17.21-1.44.37-2.9.47-4.37.26-3.46.36-6.91.39-10.39a176.17,176.17,0,0,0-.89-18.36,240.17,240.17,0,0,0-7.1-38,254.52,254.52,0,0,0-12.23-35.41c-2.5-5.87-5.17-11.66-8.08-17.31-3.18-6.17-6.57-12.21-10.06-18.19-6.56-11.33-13.7-22.35-21.16-33.09-15.39-22.17-32.83-42.94-50.9-62.93-18.29-20.27-37.59-39.53-57.42-58.29-9.6-9.1-19.38-18-29.26-26.83-9.53-8.51-19.24-16.81-28.94-25.15-17.75-15.25-35.79-30.13-53.66-45.22Zm254.71,331.58c.14.52.27,1,.41,1.54l-.41-1.54Zm-37-89.37c-.09-.15-.18-.3-.26-.45.12.23.25.46.38.68l-.12-.23ZM929.4,2067.44l-.15-.15c.17.19.36.38.55.57l-.4-.42Z"/><path class="cls-29" d="M772.84,2174.44a2,2,0,0,0-.73-.07,2.53,2.53,0,0,0-2.05,1.93,2.41,2.41,0,0,0,1.86,2.77c5.76,1.78,11.49,3.61,17.18,5.53l-.1,0a650.08,650.08,0,0,1,65.4,25.95c10.7,4.95,21.25,10.3,31.53,16.08,9.86,5.54,19.45,11.52,28.86,17.79a384.3,384.3,0,0,1,36.72,27.85,326.16,326.16,0,0,1,32.63,32.08,313.56,313.56,0,0,1,24.81,33.34q6,9.3,11.35,19c3.48,6.32,6.8,12.74,10.14,19.14a7.38,7.38,0,0,0,5,3.37,7.66,7.66,0,0,0,5.74-1.11,7.78,7.78,0,0,0,3.14-8.92,185.73,185.73,0,0,0-13.71-28.63c-13.17-22.76-30.36-43.11-49.62-60.93a343.36,343.36,0,0,0-63-45.81c-11.29-6.47-22.93-12.34-34.65-17.92s-24-10.84-36.15-15.71c-24.39-9.71-49.28-18-74.39-25.65ZM983,2303l1.05,1.23c-.35-.41-.71-.81-1.05-1.23ZM789,2184.57l-.5-.17.5.17Z"/><path class="cls-30" d="M980.41,1530a1.29,1.29,0,0,0-.34,0,1.38,1.38,0,0,0-1.16,1.11c-.6,3.24-1.24,6.48-2,9.69s-1.59,6.27-2.47,9.38c0,0,0,0,0-.06a2,2,0,0,0-.06.23l-.06.18v0a210.85,210.85,0,0,1-9.05,24.66c-1.73,3.92-3.48,7.82-5.31,11.67s-3.64,7.57-5.4,11.38a2.32,2.32,0,0,0,4,2.36,76.33,76.33,0,0,0,9.21-16.31,139,139,0,0,0,5.91-17.16c3.28-11.69,5.69-23.61,7.86-35.56a1.35,1.35,0,0,0-1.11-1.52Zm-6,20.18a2,2,0,0,0-.09.3s0-.09,0-.13Z"/><path class="cls-30" d="M1029.63,1611.09a1.46,1.46,0,0,0-.36,0,1.37,1.37,0,0,0-1.15,1.12c-1.66,7.63-3.65,15.17-5.81,22.67,0-.13.07-.26.12-.39a299.91,299.91,0,0,1-11.14,31.74c-2.23,5.34-4.59,10.63-7.2,15.81-2.38,4.71-5,9.33-7.64,13.89l-.09.16.08-.13-.28.48a1.71,1.71,0,0,1,.13-.23A161.91,161.91,0,0,1,986,1711.35c-3.6,4.65-7.39,9.13-11.15,13.61a3.14,3.14,0,0,0,.51,4.42,3.1,3.1,0,0,0,2.31.66,3.29,3.29,0,0,0,2.09-1.18,91,91,0,0,0,10-12.41c3-4.4,5.83-8.92,8.52-13.52a236,236,0,0,0,14.36-29.48,306.13,306.13,0,0,0,10.63-30.72c1.51-5.15,2.92-10.35,4.18-15.58,1.17-4.84,2.24-9.69,3.3-14.55a1.34,1.34,0,0,0-1.11-1.51Zm-33.34,85.11.07-.12-.07.12Z"/><path class="cls-30" d="M1052.21,1746.09a1.34,1.34,0,0,0-1.75.68,308.69,308.69,0,0,1-23.25,47.52l.12-.18c-4.22,7-8.71,13.82-13.54,20.42-2.35,3.21-4.78,6.35-7.2,9.48s-4.93,6.34-7.09,9.72a2.77,2.77,0,0,0,2.5,4.48,2.92,2.92,0,0,0,1.86-1,80.75,80.75,0,0,0,7.92-10.23c2.4-3.54,4.73-7.15,7-10.79,4.44-7.07,8.72-14.3,12.75-21.64a373.06,373.06,0,0,0,21.35-46.69,1.32,1.32,0,0,0-.68-1.73Zm-25.14,48.44.14-.24-.14.24Z"/><path class="cls-30" d="M1055.89,1871.64a1.35,1.35,0,0,1,.68,1.76c-1.7,4.84-3.65,9.6-5.76,14.28s-4.66,9.5-7.29,14.1c-2.43,4.28-4.94,8.5-7.62,12.63a146.14,146.14,0,0,1-9.68,13,2.77,2.77,0,0,1-4.34-3.45c3.67-5.1,7.54-10.08,11.4-15,2-2.57,3.92-5.15,5.77-7.8s3.54-5.34,5.21-8.07q2.87-4.82,5.33-9.83a108.69,108.69,0,0,0,4.57-10.93,1.23,1.23,0,0,1,1-.76,1.31,1.31,0,0,1,.68.08Z"/><path class="cls-30" d="M901,1577.8a243.53,243.53,0,0,0,14.86,20.14c5.33,6.44,10.85,12.68,16.62,18.71,4.63,4.75,9.42,9.31,14.25,13.84,2.47,2.31,5,4.57,7.5,6.82s5.16,4.59,7.58,7c.19.18.38.39.57.58a3.32,3.32,0,0,1,.57,1.45,3.05,3.05,0,0,1-.64,2.24,3.09,3.09,0,0,1-4.27.5,98.24,98.24,0,0,1-8.5-7.34c-2.89-2.7-5.7-5.51-8.47-8.35-5.27-5.45-10.27-11.13-15.13-16.93a401.26,401.26,0,0,1-27.07-37.11,1.37,1.37,0,0,1,.26-1.87,1.45,1.45,0,0,1,.64-.23,1.26,1.26,0,0,1,1.23.52Z"/><path class="cls-30" d="M933.73,1733.59c4.28,4.18,8.58,8.37,12.84,12.56,4.49,4.41,9,8.77,13.52,13.15,4.28,4.15,8.59,8.27,13,12.29,2.2,2,4.39,4.07,6.6,6.08,2.49,2.25,5,4.49,7.41,6.78a3.09,3.09,0,0,1,1.13,2,3,3,0,0,1-4.82,2.71c-4.33-3.7-8.36-7.73-12.33-11.78s-7.6-8.09-11.37-12.17c-7.63-8.27-15.07-16.73-22.91-24.83l.26.27q-2.44-2.51-4.95-5a1.36,1.36,0,0,1-.22-1.87,1.44,1.44,0,0,1,.93-.49,1.09,1.09,0,0,1,.92.28Z"/><path class="cls-29" d="M1000,1891.23c-2.65-2.57-5.21-5.25-7.77-7.93-5.29-5.52-10.41-11.21-15.71-16.71.07.09.17.18.24.28-2.23-2.3-4.51-4.56-6.81-6.77a1.34,1.34,0,0,1-.23-1.86,1.41,1.41,0,0,1,.94-.5,1.1,1.1,0,0,1,.92.28Z"/><path class="cls-30" d="M971.56,1858c3.24,3.08,6.41,6.23,9.63,9.35s6.39,6.23,9.6,9.33c6.65,6.43,13.59,12.55,20.75,18.44a2.41,2.41,0,0,1,.39,3.33,2.37,2.37,0,0,1-3.32.41c-3-2.44-5.86-5-8.63-7.65Z"/><path class="cls-30" d="M842.41,1946.69A205.2,205.2,0,0,1,856,1971.55a123.64,123.64,0,0,1,5.23,13.61c.72,2.28,1.33,4.63,1.84,7a51.67,51.67,0,0,1,1.08,7.54,1.85,1.85,0,0,1-3.67.43c-.67-4.27-1.5-8.51-2.54-12.72a120.5,120.5,0,0,0-5.28-15.58,155.36,155.36,0,0,0-7.23-14.85l.16.31q-2.53-4.57-5.35-9a1.32,1.32,0,0,1,.93-2.09,1.21,1.21,0,0,1,1.2.53Z"/><path class="cls-30" d="M827.08,2020.49a170.69,170.69,0,0,0,19.14,8.82,202.32,202.32,0,0,0,20.22,6.62l-.41-.12c3.89,1,7.77,2,11.7,2.88,4.21.94,8.47,1.74,12.73,2.49,8.45,1.47,17,2.44,25.47,3.65a2.32,2.32,0,0,1,2,2.6,2.36,2.36,0,0,1-2.6,2c-7.61-.86-15.14-2.23-22.65-3.77-7.72-1.58-15.41-3.38-23-5.45-7.42-2-14.74-4.49-21.93-7.23a180,180,0,0,1-21.66-10,1.38,1.38,0,0,1-.73-1.74,1.47,1.47,0,0,1,1.12-.82,1.09,1.09,0,0,1,.64.11Z"/><path class="cls-30" d="M872.89,2095.55a1.11,1.11,0,0,0-.67-.11,1.53,1.53,0,0,0-1.19.87,1.43,1.43,0,0,0,.75,1.87,208.44,208.44,0,0,0,28.15,12.47c9.64,3.4,19.46,6.34,29.38,8.8,10.1,2.53,20.28,4.73,30.49,6.77,5.07,1,10.14,2,15.24,2.93s10.06,1.77,15.14,2.46a2.81,2.81,0,0,0,3.13-2.39,2.89,2.89,0,0,0-.51-2,3,3,0,0,0-1.88-1.11c-6.47-1.41-13-2.43-19.56-3.48s-13.24-2.12-19.85-3.25c-12.85-2.22-25.63-4.88-38.21-8.28l.22.06c-.14,0-.28-.07-.41-.12h0c-6.86-1.91-13.67-4.12-20.34-6.63-3.38-1.29-6.76-2.6-10.1-4.06s-6.55-3.05-9.75-4.74Zm40.41,15.5-.22-.07h0l.19.06Z"/><path class="cls-30" d="M985,2185.11c8.2,3,16.44,5.79,24.83,8.12l-.45-.14c5.27,1.45,10.54,2.71,15.88,3.73a130.54,130.54,0,0,0,17.3,2.11,2.43,2.43,0,0,1,1.72,1,2.59,2.59,0,0,1,.49,1.88,2.63,2.63,0,0,1-2.92,2.22c-4.84-.52-9.61-1.3-14.35-2.28s-9.7-2.35-14.47-3.79-9.76-3.17-14.6-4.88-9.68-3.55-14.53-5.31a1.47,1.47,0,0,1-.78-1.9,1.43,1.43,0,0,1,1.17-.86,1.58,1.58,0,0,1,.71.08Z"/><path class="cls-30" d="M946.11,2014.22a286.08,286.08,0,0,1,7.3,32q1.33,8.28,1.9,16.69a135.56,135.56,0,0,1,.16,17.22,2.57,2.57,0,0,1-1,1.65,2.53,2.53,0,0,1-1.94.5,2.6,2.6,0,0,1-2.16-2.93c.41-4,.71-8.11.83-12.19.22-15.73-2.29-31.44-6.14-46.66l.11.37c-.49-1.88-1-3.76-1.51-5.63a1.34,1.34,0,0,1,.73-1.71.94.94,0,0,1,.32-.08,1.26,1.26,0,0,1,1.39.79Z"/><path class="cls-30" d="M1014,2106.68a1.32,1.32,0,0,0-2.63.31,183.93,183.93,0,0,1,2,26.61c-.07,3.14-.23,6.28-.54,9.4s-.7,5.94-1.13,8.9a2.18,2.18,0,1,0,4.31.66,76.74,76.74,0,0,0,.89-11.45c0-3.94-.08-7.86-.33-11.78-.49-7.59-1.5-15.13-2.59-22.65Zm-.61,26.52v0Z"/><path class="cls-30" d="M1196.46,1843.36a1.33,1.33,0,0,1,.69,1.76,155.93,155.93,0,0,1-15.5,24.37c-2.91,3.8-6,7.45-9.11,11-1.58,1.79-3.19,3.52-4.86,5.19a48.89,48.89,0,0,1-5.86,5.1,2.52,2.52,0,0,1-3,0,2.48,2.48,0,0,1-.91-1.64,2.41,2.41,0,0,1,.51-1.83c2-2,4.23-3.9,6.4-5.8,2.46-2.15,4.89-4.3,7.23-6.59l-.38.37a126.1,126.1,0,0,0,10.21-11.33,121.11,121.11,0,0,0,9.14-13.2c0,.1-.12.2-.17.31,1.36-2.3,2.67-4.64,3.89-7a1.41,1.41,0,0,1,1.08-.79,1.36,1.36,0,0,1,.65.1Z"/><path class="cls-30" d="M1196.43,1924.57a1.93,1.93,0,0,0-1.39-.36,1.43,1.43,0,0,0-1.1.65,139.58,139.58,0,0,1-20.31,25.17,145.42,145.42,0,0,1-16.39,13.74c-2.87,2-5.78,4-8.73,5.91s-5.88,3.77-8.8,5.69a2.57,2.57,0,0,0-.51,3.56,2.53,2.53,0,0,0,3,.82,93.35,93.35,0,0,0,16-10.33,187.24,187.24,0,0,0,14.59-12.71,156.63,156.63,0,0,0,12.79-14,152,152,0,0,0,11.15-15.68,2,2,0,0,0,.37-1.31,1.83,1.83,0,0,0-.66-1.18ZM1174,1949.65c-.06.06-.12.13-.19.19l.19-.19Z"/><path class="cls-30" d="M1165.8,2020.36a1.35,1.35,0,0,0-.94-.27,1.63,1.63,0,0,0-.94.49c-2.8,2.89-5.61,5.76-8.49,8.57l0,0c-3.61,3.52-7.29,7-11.2,10.13-2.14,1.7-4.32,3.38-6.57,4.93-2.07,1.41-4.16,2.75-6.23,4.12a2.38,2.38,0,0,0-.47,3.28,2.43,2.43,0,0,0,1.53.9,2.39,2.39,0,0,0,1.75-.45,67.92,67.92,0,0,0,8.83-6.76c2.63-2.28,5.16-4.7,7.62-7.15s5.1-5.18,7.61-7.82,5.09-5.39,7.68-8a1.38,1.38,0,0,0-.22-1.89Zm-10.33,8.75.22-.22a2.28,2.28,0,0,0-.22.22Z"/><path class="cls-30" d="M1135.14,1856.17c.75,9.38,1.59,18.76,2.7,28.1a227.86,227.86,0,0,0,4.93,27.8c0-.2-.08-.38-.13-.58,1,3.88,2.09,7.75,3.25,11.59s2.52,7.68,3.6,11.59a2.34,2.34,0,0,1,0,1.67,2.13,2.13,0,0,1-1.18,1.16,2.25,2.25,0,0,1-1.69,0,2.28,2.28,0,0,1-1.13-1.18,63.37,63.37,0,0,1-3.67-9.4c-1-3.08-1.72-6.23-2.45-9.39s-1.3-6.56-1.85-9.87-1-6.62-1.48-9.94c-.88-6.67-1.49-13.38-2-20.09-.57-7-1-14.08-1.51-21.12a1.35,1.35,0,0,1,2.69-.31Z"/><path class="cls-30" d="M1113.07,1963.08a1.35,1.35,0,0,0-1.47-1.16,1.33,1.33,0,0,0-1.16,1.47c1.61,11.47,3.53,22.95,6.2,34.24,1.32,5.63,2.81,11.2,4.55,16.7a136.62,136.62,0,0,0,6,15.89,2.17,2.17,0,0,0,2.76,1.16,2.13,2.13,0,0,0,1.16-2.76c-2.45-5.82-5-11.64-7-17.63s-3.81-11.8-5.35-17.84a1.58,1.58,0,0,1,.06.26,293.81,293.81,0,0,1-5.79-30.33Zm5.73,30.07,0-.14,0,.14Z"/><path class="cls-29" d="M1248.54,2144.42a1.25,1.25,0,0,0-1.18-.5,1.55,1.55,0,0,0-.67.24c-1.66,1.05-3.36,2.06-5.07,3.05l.14-.09a152.81,152.81,0,0,1-16.72,8c-2.75,1.13-5.51,2.23-8.28,3.26s-5.53,2.06-8.28,3.17a1.59,1.59,0,0,0,0,2.94,1.76,1.76,0,0,0,1.24,0,96.15,96.15,0,0,0,10.24-3.56c3.36-1.38,6.68-2.82,9.93-4.44a187.14,187.14,0,0,0,18.41-10.28,1.31,1.31,0,0,0,.27-1.85Zm-6.78,2.7.17-.09-.17.09Z"/><path class="cls-29" d="M1220.83,2192.7a1.36,1.36,0,0,1-.26,1.86c-7.22,4.48-14.53,8.82-22,12.84q-5.73,3.06-11.56,6c-3.9,1.93-7.82,3.83-11.85,5.5a1.89,1.89,0,0,1-2.46-1,1.79,1.79,0,0,1,0-1.47,1.94,1.94,0,0,1,1-1c3.28-1.65,6.64-3.19,10-4.74s6.65-3.09,10-4.69,6.58-3.2,9.84-4.85,6.47-3.45,9.67-5.23l0,0c1.95-1.1,3.89-2.27,5.8-3.44a1.43,1.43,0,0,1,.67-.24,1.26,1.26,0,0,1,1.19.5Z"/><path class="cls-29" d="M1180.35,2240.08a1.28,1.28,0,0,1,.71.7,1.4,1.4,0,0,1,0,1,1.46,1.46,0,0,1-.72.71,123.57,123.57,0,0,1-23.88,9.93,1.88,1.88,0,0,1-1.36,0,1.73,1.73,0,0,1-.92-1,1.8,1.8,0,0,1,0-1.35,1.67,1.67,0,0,1,.95-.93c4.14-1.25,8.29-2.48,12.37-3.9a72.42,72.42,0,0,0,11.84-5.25.8.8,0,0,1,.31-.09,1.29,1.29,0,0,1,.71.12Z"/><path class="cls-29" d="M1198.13,2134.23a1.3,1.3,0,0,1,1.11,1.5c-1.28,4.52-2.46,9.05-3.62,13.6-.56,2.26-1.09,4.5-1.62,6.77s-1,4.52-1.41,6.79c-.93,4.54-1.71,9.11-2.45,13.67-.82,5-1.55,9.92-2.43,14.85a2,2,0,1,1-3.9-.58c.91-9.31,3.1-18.41,5.29-27.47,1.1-4.51,2.3-9,3.49-13.48,1.28-4.88,2.65-9.71,4-14.55a1.5,1.5,0,0,1,.53-.86,1.2,1.2,0,0,1,.62-.25,1.15,1.15,0,0,1,.37,0Z"/><path class="cls-29" d="M1163.38,2196.93a1.32,1.32,0,0,1,1.11,1.51q-1.46,7.54-2.54,15.14c-.77,5.42-1.34,10.86-1.78,16.3a1.47,1.47,0,0,1-1.65,1.22,1.54,1.54,0,0,1-1-.58,1.51,1.51,0,0,1-.27-1.09,244.28,244.28,0,0,1,4.58-31.39,1.38,1.38,0,0,1,1.17-1.12,1.24,1.24,0,0,1,.33,0Z"/><path class="cls-29" d="M789.19,2160.93c7.86,7.07,15.42,15.21,19.07,25.34a1.55,1.55,0,1,1-2.91,1.08,59.26,59.26,0,0,0-2.82-6.17,60.28,60.28,0,0,0-4.31-6.71,70.59,70.59,0,0,0-5.2-6.12l.26.26c-1.88-1.94-3.8-3.8-5.8-5.59a1.38,1.38,0,0,1-.2-1.89,1.41,1.41,0,0,1,.93-.5,1.22,1.22,0,0,1,1,.3Z"/><path class="cls-29" d="M850.13,2174.36a1.3,1.3,0,0,0-.34,0,1.48,1.48,0,0,0-.64.25,1.34,1.34,0,0,0-.54.88,1.21,1.21,0,0,0,.23.94,120.39,120.39,0,0,1,8.9,10.54,105.9,105.9,0,0,1,7.4,11.41,0,0,0,0,1,0,0l0,.11.16.28-.05-.07c1.09,2.08,2.1,4.2,3,6.37s1.72,4.55,2.49,6.87a1.73,1.73,0,0,0,2.22,1,1.75,1.75,0,0,0,1-.92,1.82,1.82,0,0,0,0-1.32,44.37,44.37,0,0,0-3.93-10.26,85.78,85.78,0,0,0-5.48-9.15A144.69,144.69,0,0,0,851,2174.9a1.44,1.44,0,0,0-.87-.54Zm15,24.09s0,0,0-.08a2.64,2.64,0,0,0,.15.29l-.11-.21Z"/><path class="cls-29" d="M913.29,2210.52a1.15,1.15,0,0,0-1.21-.54,1.19,1.19,0,0,0-.63.24,1.33,1.33,0,0,0-.55.87,1.67,1.67,0,0,0,.24.95c.16.29.32.59.45.87l-.15-.3a79,79,0,0,1,4.45,9.83c.7,1.83,1.38,3.71,1.93,5.6.43,1.49.82,3,1.19,4.52a.71.71,0,0,1,0-.2c.57,2.56,1,5.12,1.35,7.7a1.88,1.88,0,0,0,2,1.67,1.91,1.91,0,0,0,1.7-2.07c-1.42-10.37-5.76-20-10.78-29.14Zm5.77,22.29c0-.08,0-.16,0-.25a1.84,1.84,0,0,0,0,.25Z"/><path class="cls-29" d="M782.34,2204.89a198.62,198.62,0,0,0,22.57,2l-.4,0a161.08,161.08,0,0,0,18-.62,142,142,0,0,0,19.2-3.24l-.51.12c1.64-.38,3.28-.8,4.93-1.22a2.41,2.41,0,0,1,1.59,0,2.12,2.12,0,0,1,1.12,1.18,2.1,2.1,0,0,1,0,1.58,2,2,0,0,1-1.18,1.14,137.69,137.69,0,0,1-32.32,4.29,209.27,209.27,0,0,1-33.34-2.58,1.35,1.35,0,0,1-1.09-1.52,1.32,1.32,0,0,1,1.16-1.11,1.22,1.22,0,0,1,.33,0Z"/><path class="cls-29" d="M842.26,2237.78a112,112,0,0,0,18.08,1.89h-.43a184.17,184.17,0,0,0,24.71-1.4c8.6-1,17.15-2.55,25.77-3.64a1.79,1.79,0,0,1,2,1.58,1.71,1.71,0,0,1-.39,1.32,1.9,1.9,0,0,1-1.19.66c-5.6,1-11.23,1.87-16.87,2.63-5.9.82-11.84,1.49-17.79,1.91a158,158,0,0,1-16.29.26,119,119,0,0,1-18-2,1.63,1.63,0,0,1,.07-3.22,2.08,2.08,0,0,1,.43,0Z"/><path class="cls-29" d="M918.44,2266.36c1.6.31,3.21.56,4.86.74s3.26.27,4.89.33l-.36,0a94.59,94.59,0,0,0,11.77-.5c4.24-.38,8.43-1,12.65-1.64a1.54,1.54,0,0,1,1.7,1.39,1.57,1.57,0,0,1-1.38,1.7,172.5,172.5,0,0,1-17.58,1.82,72.45,72.45,0,0,1-17-1.19,1.32,1.32,0,0,1-1.11-1.51,1.31,1.31,0,0,1,1.51-1.11Z"/><path class="cls-31" d="M918.3,2274l6.18,52.64,1,8.74,2.93,25,1,8.74,3,25.69,1,8.72,13.36,114,8.82,75.28c84.73,10.73,163.8,10.06,238.24,0l14-119.47,8.18-69.8,1-8.72,3-25.69,1-8.74,2.95-25,1-8.74,6.17-52.64Z"/><polygon class="cls-32" points="924.48 2326.62 925.5 2335.36 1224.1 2335.36 1225.12 2326.62 924.48 2326.62"/><polygon class="cls-32" points="928.43 2360.38 929.45 2369.12 1220.14 2369.12 1221.16 2360.38 928.43 2360.38"/><polygon class="cls-32" points="932.47 2394.81 933.49 2403.53 1216.1 2403.53 1217.12 2394.81 932.47 2394.81"/><path class="cls-32" d="M946.85,2517.52l8.82,75.28c84.73,10.73,163.8,10.06,238.24,0l14-119.47C1152.37,2496.85,1052.41,2529.58,946.85,2517.52Z"/><path class="cls-18" d="M3426.66,510.19v688.67c0,28-16.25,52-39.45,62.63l-.91.39a65.25,65.25,0,0,1-18,4.94,58.87,58.87,0,0,1-7.63.46H2193.08a58.42,58.42,0,0,1-7.67-.46,65.87,65.87,0,0,1-18-4.91c-.32-.16-.63-.29-.95-.42-23.22-10.64-39.44-34.68-39.44-62.63V510.19c0-37.71,29.67-68.39,66.1-68.39H3360.63C3397,441.8,3426.66,472.48,3426.66,510.19Z"/><path class="cls-6" d="M3358.05,485.85H2195.65A28.24,28.24,0,0,0,2167.37,514v713.53a68.54,68.54,0,0,0,18,4.7,62.13,62.13,0,0,0,7.67.44H3360.63a62.62,62.62,0,0,0,7.63-.44,67.47,67.47,0,0,0,18-4.74V514A28.22,28.22,0,0,0,3358.05,485.85Z"/><path class="cls-33" d="M3387.2,514.76v33.45H2166.43V514.76c0-18.65,12-33.85,26.63-33.85H3360.61C3375.25,480.91,3387.2,496.11,3387.2,514.76Z"/><ellipse class="cls-6" cx="2247.31" cy="514.76" rx="8.45" ry="8.38"/><ellipse class="cls-6" cx="2274.09" cy="514.76" rx="8.45" ry="8.38"/><path class="cls-18" d="M3314.25,520.21H2323.06a6.64,6.64,0,0,1-6.64-6.64h0a6.64,6.64,0,0,1,6.64-6.64h991.19a6.64,6.64,0,0,1,6.64,6.64h0A6.64,6.64,0,0,1,3314.25,520.21Z"/><path class="cls-6" d="M2489.38,519.89h-60.8a6.48,6.48,0,0,1-6.48-6.48h0a6.48,6.48,0,0,1,6.48-6.48h60.8a6.49,6.49,0,0,1,6.49,6.48h0A6.49,6.49,0,0,1,2489.38,519.89Z"/><path class="cls-23" d="M2295.44,581.45h.52a31.1,31.1,0,0,1,31.26,30.95h0a31.11,31.11,0,0,1-31,31.27h-.51a31.12,31.12,0,0,1-31.27-30.95h0A31.12,31.12,0,0,1,2295.44,581.45Z"/><path class="cls-23" d="M2576.33,594.32h-210.8a3.39,3.39,0,0,1-3.39-3.39h0a3.39,3.39,0,0,1,3.39-3.39h210.8a3.39,3.39,0,0,1,3.39,3.39h0A3.39,3.39,0,0,1,2576.33,594.32Z"/><path class="cls-23" d="M2576.73,614.55l-211.57,1.05a3,3,0,0,1-3-3v-.77a3,3,0,0,1,3-3l211.56-1.05a3,3,0,0,1,3,3v.77A3,3,0,0,1,2576.73,614.55Z"/><path class="cls-23" d="M2576.33,636.32h-210.8a3.39,3.39,0,0,1-3.39-3.39h0a3.39,3.39,0,0,1,3.39-3.39h210.8a3.39,3.39,0,0,1,3.39,3.39h0A3.39,3.39,0,0,1,2576.33,636.32Z"/><rect class="cls-23" x="2264.48" y="698.15" width="62.73" height="62.22" rx="31.11"/><path class="cls-23" d="M2576.33,711.65h-210.8a3.39,3.39,0,0,1-3.39-3.39h0a3.39,3.39,0,0,1,3.39-3.39h210.8a3.39,3.39,0,0,1,3.39,3.39h0A3.39,3.39,0,0,1,2576.33,711.65Z"/><path class="cls-23" d="M2576.33,732.64h-210.8a3.38,3.38,0,0,1-3.39-3.38h0a3.39,3.39,0,0,1,3.39-3.39h210.8a3.39,3.39,0,0,1,3.39,3.39h0A3.38,3.38,0,0,1,2576.33,732.64Z"/><path class="cls-23" d="M2576.33,753.64h-210.8a3.39,3.39,0,0,1-3.39-3.39h0a3.38,3.38,0,0,1,3.39-3.38h210.8a3.38,3.38,0,0,1,3.39,3.38h0A3.39,3.39,0,0,1,2576.33,753.64Z"/><rect class="cls-23" x="2264.48" y="815.47" width="62.73" height="62.22" rx="31.11"/><path class="cls-23" d="M2576.33,829h-210.8a3.39,3.39,0,0,1-3.39-3.39h0a3.39,3.39,0,0,1,3.39-3.39h210.8a3.39,3.39,0,0,1,3.39,3.39h0A3.39,3.39,0,0,1,2576.33,829Z"/><path class="cls-23" d="M2576.33,850h-210.8a3.39,3.39,0,0,1-3.39-3.39h0a3.39,3.39,0,0,1,3.39-3.39h210.8a3.39,3.39,0,0,1,3.39,3.39h0A3.39,3.39,0,0,1,2576.33,850Z"/><path class="cls-23" d="M2576.33,871h-210.8a3.39,3.39,0,0,1-3.39-3.39h0a3.39,3.39,0,0,1,3.39-3.39h210.8a3.39,3.39,0,0,1,3.39,3.39h0A3.39,3.39,0,0,1,2576.33,871Z"/><ellipse class="cls-6" cx="2220.52" cy="514.76" rx="8.45" ry="8.38"/><path class="cls-23" d="M3232.9,611.26H2717.19A12.16,12.16,0,0,1,2705,599.09h0a12.16,12.16,0,0,1,12.16-12.17H3232.9a12.16,12.16,0,0,1,12.16,12.17h0A12.16,12.16,0,0,1,3232.9,611.26Z"/><rect class="cls-22" x="2705.03" y="691.29" width="260.42" height="468.01"/><rect class="cls-22" x="2982.98" y="691.29" width="260.42" height="468.01"/><rect class="cls-23" x="2705.03" y="639.86" width="540.04" height="24.33" rx="12.17"/><rect class="cls-34" x="2723.91" y="725.09" width="389.28" height="223.36" rx="22.9"/><rect class="cls-18" x="2730.4" y="718.38" width="389.28" height="223.36" rx="22.9"/><rect class="cls-6" x="2824.55" y="646.7" width="200.98" height="366.71" rx="9.27" transform="translate(3755.1 -2094.98) rotate(90)"/><rect class="cls-23" x="2771.45" y="765.39" width="148.74" height="26.32"/><rect class="cls-23" x="2771.45" y="829.01" width="148.74" height="6.1"/><rect class="cls-23" x="2771.45" y="811.08" width="148.74" height="6.1"/><rect class="cls-23" x="2771.45" y="846.94" width="148.74" height="6.1"/><rect class="cls-23" x="2771.45" y="864.87" width="148.74" height="6.1"/><path class="cls-23" d="M3088.1,908.35H2760.84a2.8,2.8,0,1,1,0-5.59H3088.1a2.8,2.8,0,1,1,0,5.59Z"/><rect class="cls-34" x="2927.53" y="980.08" width="288.57" height="150.41" rx="14.98"/><rect class="cls-6" x="2933.63" y="974.01" width="288.57" height="150.41" rx="14.98"/><path class="cls-18" d="M3189.53,1005.44H3046.2a2.65,2.65,0,0,1-2.66-2.64h0a2.65,2.65,0,0,1,2.66-2.64h143.33a2.66,2.66,0,0,1,2.67,2.64h0A2.66,2.66,0,0,1,3189.53,1005.44Z"/><path class="cls-18" d="M3133.14,1023.83h-85.91a2.64,2.64,0,0,1-2.64-2.64h0a2.64,2.64,0,0,1,2.64-2.64h85.91a2.64,2.64,0,0,1,2.64,2.64h0A2.64,2.64,0,0,1,3133.14,1023.83Z"/><path class="cls-18" d="M3162.59,1041.7H3046a2.64,2.64,0,0,1-2.64-2.64h0a2.64,2.64,0,0,1,2.64-2.64h116.64a2.65,2.65,0,0,1,2.64,2.64h0A2.64,2.64,0,0,1,3162.59,1041.7Z"/><path class="cls-18" d="M3203.72,1085.79H2961a2.65,2.65,0,0,1-2.66-2.64h0a2.65,2.65,0,0,1,2.66-2.64h242.69a2.65,2.65,0,0,1,2.66,2.64h0A2.65,2.65,0,0,1,3203.72,1085.79Z"/><path class="cls-18" d="M3203.74,1104.87H2961a2.64,2.64,0,0,1-2.64-2.64h0a2.64,2.64,0,0,1,2.64-2.64h242.73a2.64,2.64,0,0,1,2.64,2.64h0A2.64,2.64,0,0,1,3203.74,1104.87Z"/><g class="cls-35"><path class="cls-29" d="M3075.49,851l-53.07-32.18-9.6,60.95A62.46,62.46,0,0,0,3075.49,851Z"/><path class="cls-21" d="M3075.55,850.93l.32-.54a61.26,61.26,0,0,0,1.38-60.73c-18.78,9.76-7.6,3.83-54.83,29.16C3075.58,851.05,3067.32,846.08,3075.55,850.93Z"/><path class="cls-18" d="M2964.08,797.5l58.34,21.32,54.73-29.35C3051.55,742.52,2982.64,748.15,2964.08,797.5Z"/><path class="cls-36" d="M3012.82,879.77l9.6-60.95-58.34-21.32C2950.21,834.38,2974.83,873.83,3012.82,879.77Z"/><path class="cls-6" d="M2960.26,807.59a6,6,0,0,1,2.95.75,60,60,0,0,1,2.12-8.21L2997,811.71v0a5.56,5.56,0,0,1,1.38-3.83l-3.17-1.16-28.44-10.39a60.16,60.16,0,0,1,9.16-15.28,6.13,6.13,0,0,1-3.16-2.64,64.52,64.52,0,0,0-9.87,16.5h0l-.71,1.91-.73,1.93h0a61.09,61.09,0,0,0-2.32,9A6,6,0,0,1,2960.26,807.59Z"/><path class="cls-37" d="M3079.91,790.31l0,0-1-1.8-.06-.11-.8-1.48,0,0a63.38,63.38,0,0,0-25.65-24.67,65.7,65.7,0,0,0-71.28,7.72,6.3,6.3,0,0,1,2.62,3.17,60.55,60.55,0,0,1,34.75-13.76,59.33,59.33,0,0,1,55.81,29.28l-16.16,8.66c-3.34,1.78-8,4.29-15.82,8.48L3023,816.19l-.5.26-1.62-1-.09.56-11.38-4.16a5.6,5.6,0,0,1-1.53,3.81l12.26,4.48-9,57.24a60.23,60.23,0,0,1-40.64-28.74,58.74,58.74,0,0,1-8.19-29.15,6,6,0,0,1-2,.36,6.18,6.18,0,0,1-2.12-.38,62.85,62.85,0,0,0,8.76,31.24,64.28,64.28,0,0,0,43.57,30.71v0l2,.31,2,.32v0a64.51,64.51,0,0,0,61.65-28.38l.05,0,.4-.65s.66-1.07.66-1.07l.29-.49,0-.07,0-.06.66-1.06h0A63.52,63.52,0,0,0,3079.91,790.31ZM3015.18,878l8.8-55.87,22.9,13.89,17.84,10.82,7.9,4.79A60.07,60.07,0,0,1,3015.18,878Zm59.63-29.91-.39-.23c-2.17-1.28-3.11-1.83-7.43-4.44l-40.43-24.53,33.56-18c4.93-2.63,7-3.67,12-6.27l4.28-2.22A59.43,59.43,0,0,1,3074.81,848.12Z"/></g><path class="cls-18" d="M3034.14,1026.79c0,1.18,0,2.33-.16,3.48a38.72,38.72,0,0,1-38.68,35,39.27,39.27,0,0,1-11.43-1.7h0c-.77-.23-1.52-.48-2.27-.76h0a38.55,38.55,0,0,1-25.13-36,37.75,37.75,0,0,1,.47-6,38.66,38.66,0,0,1,29.53-31.55q1.47-.35,3-.57a40.44,40.44,0,0,1,5.87-.44,39.62,39.62,0,0,1,4.52.26,38.71,38.71,0,0,1,34.32,38.26Z"/><path class="cls-38" d="M2983.87,1063.61c-.77-.23-1.52-.48-2.27-.76h0c-.13-.23-2.26-3.84-4.34-5.15s-6.15-4.43-7.11-7.11-7.1-5.31-6-9.27c1.05-3.72.34-3.72,1.55-4.51l.24-.15a13.5,13.5,0,0,1,4-3.65,5.57,5.57,0,0,1,6.07.71c1.6,1.51,3.43,1.11,3.43,3.09s.24,6.57-.48,9.81.64,8.08,2.08,9.26S2983.41,1063.42,2983.87,1063.61Z"/><path class="cls-38" d="M2986.46,989.28c0,1.54-4.67,2.78-5.62,5.86s-5.11,4-5.43,5.18,1.49,1.57,3.62,1.42,3.51.53,2.66,3.56-2.24,6.73-3.41,6.62a2,2,0,0,1-1.7-2.42c.32-1,2.23-4,.32-4.2s-2,2.4-3.51,3.46-1,2.33.42,3.17,3.3,1.26,3.51,2.21-.63.85-1.7,3.48-3.29,6.23-5.64,6.12-3.83,1.06-4.25,2-1.57.41-1.81,1.9a5.82,5.82,0,0,0,0,3.22c.39.79.56,2.37,1,3s1.44,2,1,2.82a.22.22,0,0,1-.24.15c-.64,0-2.06-2.18-2.75-2.93s-2.79-1.5-3.19-3.09,0-3.75-1.76-5.3.12-1.66-1-4.27a2.09,2.09,0,0,1-.13-.38A38.66,38.66,0,0,1,2986.46,989.28Z"/><path class="cls-38" d="M2996.87,998.26c-.87,1.35-4.7,4-5.89,3.4s1.1-2-.64-5.46-3-3.24-2.32-4.59c.33-.62.9-1.8,1.41-2.9a40.44,40.44,0,0,1,5.87-.44,39.62,39.62,0,0,1,4.52.26c-.87,1-2.7,2.37-3,4.43S2997.75,996.91,2996.87,998.26Z"/><path class="cls-38" d="M3004.46,1001.16c.38-.4,1.17,1.21,1.75,3.11s.85,2.48-.53,3.49-.85,1.63-1.7,1.74-1.7-1.8-1.81-3.22.37-2.12,1.81-1S3003.29,1002.37,3004.46,1001.16Z"/><path class="cls-38" d="M3021.85,1045.43c-.75-.11-1.49.47-2.39,1.69s-1.12,1.21-.8,2.27-1.7,3.37-1.17,5,3.73-3.17,3.83-4.52S3023.34,1045.64,3021.85,1045.43Z"/><path class="cls-38" d="M3034.14,1026.79c0,1.18,0,2.33-.16,3.47-2-.7-3.21-2.06-4.7-2.64-1.84-.71-5.67.87-6.79,2.61s-.42,5.49-1.27,5.65-2.67.68-3,4.12a14.85,14.85,0,0,1-2.12,7c-1.28,2.48-.91,5.91-1.33,6.75s-2.18,1.8-3.3,3.54a5.4,5.4,0,0,1-4.1,2.63c-1.22,0,1.12-2.47-1.22-5.69s-1.06-5-1-5.91a5.48,5.48,0,0,0-3.94-4.7,7.69,7.69,0,0,1-5.21-6.33c-.32-2.64,1.6-4.91,3.3-6.75s2.13-4.33,4.25-5.17,4.95,1.63,7.82,2,5.22-4.22,5.22-4.7-1.6-2.79-2.72-1.64-1.8,1.54-4.62.43-4,.26-6.07.11-1-2.33-2.5-.85-2.82,1.85-2.87,0,.79-3.33,2.5-4.91,5.21.32,4.15-2-.43-3.8,3.19-4.54,9.47-3.17,10-4.43-4.89-1.69-4.25-3.59,1.57-4.52,2.2-7.21A38.41,38.41,0,0,1,3034.14,1026.79Z"/><path class="cls-6" d="M2852.07,1034.08c1.31-2.46,2.59-4.94,3.79-7.46,3.47-7.23,7.56-15.93,7.42-24.21A12.38,12.38,0,1,0,2849,984.73a21.2,21.2,0,0,0-11.41,4.7c-7.14,5.78-13.55,13-19.75,20.13-.8-1.32-1.81-2.93-3-4.67-.09-.18-.19-.35-.29-.53a12.33,12.33,0,1,0-16-18.76c-9.39-8.34-19.78-12.24-26.44.65-5.52,10.67-1.38,23.67,1.57,34.45.41,1.51.84,3,1.27,4.51-4.58,0-9.15.1-13.73.4-1.32.08-2.67.18-4,.32a11.5,11.5,0,1,0-20.18,10.33c-3.28,6.09-1.13,13.17,3.92,17.75,7.32,6.61,18.56,6.89,27.81,8.13,2.76.38,5.53.74,8.29,1.1a157.34,157.34,0,0,0-7.47,15.13c-1,2.33-1.92,4.69-2.79,7.07a11.25,11.25,0,0,0-5.43,20.64,19.59,19.59,0,0,0,.4,6.57c2.35,9.48,12.24,10.7,20.19,7.73,9.94-3.71,18.2-12,25.05-20a54.47,54.47,0,0,0,15.52,14.31c7.31,4.3,18.69,8.07,24.6-.4a20.58,20.58,0,0,0,1.34-2.23,11.87,11.87,0,1,0,3.82-23.12,12.06,12.06,0,0,0-3,.37c-.66-2.75-1.45-5.42-2.22-7.93q-2.18-7.12-4.6-14.16c1,0,1.93,0,2.89-.11,10.1-.52,20.28-1.79,28.56-8.09a8.44,8.44,0,0,1,1.35-2.6C2877.1,1042.65,2864.86,1037,2852.07,1034.08Zm-23.47-30.69c4.15-4.39,11.89-13.81,19.24-15.44a12.39,12.39,0,0,0,12.12,14.91c0,7.78-4.29,16.18-7.36,22.62-1.28,2.65-2.61,5.28-4,7.87-6.13-1.17-12.09-1.81-16.42-2.52-1.51-.25-3-.49-4.54-.72q-3.91-8.5-8.23-16.81C2822.43,1010,2825.51,1006.67,2828.6,1003.39Zm-42.32,45c-2.39-6.42-4.6-12.91-6.57-19.46,6.75.18,13.49.66,20.21,1.35C2795.13,1036.15,2790.54,1042.18,2786.28,1048.42Zm1,12.49-4.46-.53c.86-1.42,1.72-2.82,2.62-4.22.19.52.39,1,.59,1.56Zm16.77-30.07.06-.09c4.41.5,8.82,1.09,13.19,1.71q3.78.52,7.55,1.11,5.16,11.37,9.67,23c-1.63,2.43-3.26,4.86-4.92,7.27-3.72,0-7.43-.15-11.15-.33-9-.42-18-1.19-27-2.18-1.23-2.95-2.42-5.9-3.59-8.9A267.92,267.92,0,0,1,2804,1030.84Zm32,29.68,1.23,3.33c-1.17,0-2.34.06-3.51.05C2834.51,1062.79,2835.25,1061.65,2836,1060.52Zm1.13-8q-3.57-9.22-7.6-18.26,8.47,1.37,16.93,2.9C2843.54,1042.44,2840.4,1047.54,2837.15,1052.57Zm-14.23-23.18c-5.26-.79-10.56-1.52-15.86-2.13,3.12-3.68,6.3-7.29,9.53-10.87Q2819.86,1022.84,2822.92,1029.39Zm-48.32-20c-1.43-6.5-2.43-13.54.06-19.92,3.27-8.36,10.88-8.92,17.79-4.47a34.7,34.7,0,0,1,4.08,3.12,12.35,12.35,0,0,0,14.73,18c1.22,2.26,2.42,4.54,3.6,6.82-1.16,1.33-2.32,2.65-3.48,3.94q-4.34,4.86-8.55,9.86c-8-.84-16.12-1.39-24.21-1.54Q2776.37,1017.38,2774.6,1009.41Zm-13.3,48.09c-8.17-1.14-20-3.12-22-12.9a9.72,9.72,0,0,1,.39-5.79,11.49,11.49,0,0,0,18.08-9.21l.69-.07c5.85-.51,11.74-.69,17.63-.63q3.49,11.7,7.79,23.15-2.54,3.85-4.88,7.85Q2770.13,1058.78,2761.3,1057.5Zm34.36,49.71c-6,5.38-23.42,18.82-29.68,6.86a12.68,12.68,0,0,1-1.22-6.5,11.09,11.09,0,0,0,2.78.35,11.25,11.25,0,0,0,2.89-22.13c.21-.55.41-1.1.63-1.65a151.5,151.5,0,0,1,9.8-20.43c2.62.32,5.25.63,7.87.92,4.33,11,9.32,22.87,16.22,32.89A98.86,98.86,0,0,1,2795.66,1107.21Zm.05-35.89c-.93-2.06-1.83-4.13-2.72-6.2,3.86.41,7.74.78,11.61,1.1,7.51.62,15,1,22.56,1.17-3.79,5.46-7.65,10.86-11.52,16.25-2.62,3.64-5.3,7.26-8.11,10.76C2802.75,1087,2799,1078.75,2795.71,1071.32Zm50.06,19.33a1.42,1.42,0,0,0,.05.22,11.86,11.86,0,0,0-.75,19.38c-2.84,5.33-8.28,6.29-14.39,4.2-8.93-3.06-15.7-9.45-21.15-17.09,7.82-9.52,14.8-19.8,21.78-29.92,2.41,0,4.83,0,7.24-.07A206.45,206.45,0,0,1,2845.77,1090.65Zm25.88-34.26c-7.26,5.39-16.23,6.64-25,7.15-1.77.1-3.55.16-5.32.22-.85-2.42-1.73-4.82-2.63-7.22,4-6.11,7.83-12.3,11.36-18.68,9.83,2,22.29,6.22,22.31,18.21A1.87,1.87,0,0,0,2871.65,1056.39Z"/><circle class="cls-6" cx="2812.42" cy="1048.42" r="10.5" transform="translate(-165.64 674.21) rotate(-13.28)"/><path class="cls-36" d="M2615.81,1086.06a14.55,14.55,0,0,0-14.35,12.15l-30.92-.46a26.68,26.68,0,0,0-48.81-13l-28-15.55a35,35,0,0,0-47.69-39.28l-15.58-26.39a26.68,26.68,0,0,0,13.2-33.28l23.66-11.13a14.42,14.42,0,1,0-1.86-3.94l-23.66,11.13A26.68,26.68,0,0,0,2406.06,956l-11.23-17.4a14.49,14.49,0,1,0-3.66,2.37l11.23,17.4A26.63,26.63,0,0,0,2392,979.56a27.3,27.3,0,0,0,.57,5.53l-22.93,6.85a14.54,14.54,0,1,0,1.05,5.42c0-.39,0-.78-.05-1.17l23.18-6.93a26.71,26.71,0,0,0,32.56,15.85l15.75,26.68a35,35,0,0,0-.36,60.81l-13.7,20.93a26.67,26.67,0,0,0-39,28.19l-19.47,5.17a14.55,14.55,0,1,0,1.21,5.81,14.17,14.17,0,0,0-.09-1.6l19.46-5.17a26.69,26.69,0,0,0,30.68,17.16l5.26,17.6a14.55,14.55,0,1,0,6.21-1.39,13.8,13.8,0,0,0-2,.15l-5.26-17.61a26.68,26.68,0,0,0,6.68-45.91l14-21.36a35.07,35.07,0,0,0,46.91-21.07l27.06,15a26.68,26.68,0,1,0,50.87,13.58l30.91.46a14.55,14.55,0,1,0,14.42-16.51Z"/><path class="cls-29" d="M3216.09,1440.83s-75.13-23.7-61-131.68,73.57-155.38,104.87-134.31,50.1,176.45,20.35,226.49S3216.09,1440.83,3216.09,1440.83Z"/><path class="cls-39" d="M3233.31,1276.23s-36,268.63-21.91,320l23.48-1.32S3211.4,1459.27,3233.31,1276.23Z"/><rect class="cls-39" x="3196.66" y="1249.8" width="77.23" height="2.17" transform="matrix(0.07, -1, 1, 0.07, 1757.88, 4389.19)"/><path class="cls-39" d="M3226.78,1321.24c-7-30.35-18.06-76.47-20-79.13a.6.6,0,0,0,.21.17l1.06-1.89c.74.42,1.87,1,11.57,41,4.74,19.53,9.26,39.15,9.3,39.35Z"/><rect class="cls-39" x="3216.65" y="1294.24" width="75.6" height="2.17" transform="translate(128.12 2874.99) rotate(-48.51)"/><rect class="cls-39" x="3198.18" y="1302.12" width="2.17" height="83.85" transform="translate(-254.07 1685.01) rotate(-28.43)"/><rect class="cls-39" x="3209.29" y="1365.68" width="87.18" height="2.17" transform="translate(145.74 3038.58) rotate(-51.07)"/><path class="cls-29" d="M3189.8,1523.32s35-40.36-6-82-88.95-38.72-100.12-17,25.81,97.29,57.86,107.34S3189.8,1523.32,3189.8,1523.32Z"/><path class="cls-39" d="M3129.73,1458.08s102.48,103.31,110.26,131.43l-13.61,8.79S3198.08,1529.52,3129.73,1458.08Z"/><path class="cls-39" d="M3145.49,1475.85c-14-42-13.15-43.4-12.83-43.93l1.85,1.13a.7.7,0,0,0,.12-.32c-.14,2.29,7.85,27.24,12.92,42.43Z"/><rect class="cls-39" x="3122.6" y="1451.98" width="2.17" height="45.77" transform="translate(1327.88 4425.76) rotate(-83.95)"/><rect class="cls-39" x="3168.56" y="1450.09" width="2.17" height="48.23" transform="translate(-3.23 6.97) rotate(-0.13)"/><rect class="cls-39" x="3145.34" y="1479.45" width="2.17" height="52.18" transform="translate(1184.5 4389.55) rotate(-81.34)"/><path class="cls-28" d="M3178.16,1457.74s-60.74,9.4-84.65-67.81,3.38-129.06,32.2-125.47,90.94,101.56,85.56,145.16S3178.16,1457.74,3178.16,1457.74Z"/><path class="cls-40" d="M3127.34,1306.89s70.17,227,96.29,256.72l16.24-8.79S3172.05,1436.64,3127.34,1306.89Z"/><path class="cls-40" d="M3148,1374.05c-13.81-17.2-36.6-45-39-46.29a.81.81,0,0,0,.31.08l.1-2.17c.79,0,1.78.08,21.29,23.74,9.5,11.51,18.87,23.16,19,23.28Z"/><rect class="cls-40" x="3130.83" y="1346.09" width="57.67" height="2.17" transform="translate(905.7 3939.08) rotate(-72.08)"/><rect class="cls-40" x="3134.75" y="1367.04" width="2.17" height="62.84" transform="translate(191.47 3164.76) rotate(-54.99)"/><rect class="cls-40" x="3147.82" y="1394.56" width="66.33" height="2.17" transform="translate(992.74 4093.43) rotate(-74.64)"/><path class="cls-30" d="M3232.7,1518.46s-46.62-75,63-165.66,66.67,63.11,66.67,63.11S3321.23,1556.44,3232.7,1518.46Z"/><path class="cls-40" d="M3212.83,1553.85s45.3-108.13,112.54-168.38c0,0-80.26,94.57-98.37,176.29Z"/><rect class="cls-40" x="3258.5" y="1392.97" width="68.71" height="2.17" transform="translate(1516.92 4497.66) rotate(-83.17)"/><rect class="cls-40" x="3292.5" y="1405.25" width="71.4" height="2.17" transform="translate(-283.54 1506.57) rotate(-24.5)"/><rect class="cls-40" x="3257.48" y="1401.72" width="2.17" height="67.21" transform="translate(-39.04 92.11) rotate(-1.61)"/><rect class="cls-40" x="3264.7" y="1454.34" width="75.6" height="2.17" transform="translate(-246.75 801.51) rotate(-13.34)"/><rect class="cls-40" x="3296.56" y="1381.13" width="59.52" height="2.17" transform="translate(144.41 3070.51) rotate(-50.51)"/><rect class="cls-40" x="3239.22" y="1496.42" width="73.16" height="2.17" transform="translate(-274.81 892.05) rotate(-14.89)"/><rect class="cls-40" x="3234.34" y="1452.77" width="2.17" height="57.29" transform="translate(-183.8 495.78) rotate(-8.52)"/><path class="cls-31" d="M3222.43,1527.18h-70.27c-4.81,0-8.35,6.12-7.24,12.5l25.62,147.16c.79,4.58,3.79,7.81,7.24,7.81h84.42c3.44,0,6.44-3.23,7.23-7.81l25.62-147.16c1.11-6.38-2.43-12.5-7.24-12.5Z"/><path class="cls-32" d="M3274.52,1657.6c-1-1.33-1.68-2.1-1.68-2.1s-26.48,1.33-60.91-9.34-45-118.72-45-118.72l-.62-.26h-14.13c-4.81,0-8.35,6.12-7.24,12.5l25.62,147.16c.79,4.58,3.79,7.81,7.24,7.81h84.42c3.44,0,6.44-3.23,7.24-7.81Z"/><polygon class="cls-41" points="3024.28 1566.9 3014.09 1565.15 3021.68 1520.45 3031.87 1522.21 3024.28 1566.9"/><polygon class="cls-32" points="3014.3 1620.67 3005.75 1619.19 3014.91 1565.29 3023.46 1566.76 3014.3 1620.67"/><polygon class="cls-41" points="2987.64 1567.55 2977.44 1569.24 2970.12 1524.5 2980.32 1522.81 2987.64 1567.55"/><polygon class="cls-32" points="2995.65 1621.64 2987.09 1623.07 2978.26 1569.11 2986.82 1567.69 2995.65 1621.64"/><rect class="cls-41" x="2993.77" y="1517.01" width="10.69" height="45.34" transform="translate(-91.26 192.49) rotate(-3.62)"/><rect class="cls-42" x="2997.75" y="1562.26" width="8.98" height="54.69" transform="translate(-94.42 192.83) rotate(-3.62)"/><path class="cls-24" d="M3032,1697.73h-63.1a4,4,0,0,1-3.95-4V1580.89a4,4,0,0,1,3.95-4H3032a4,4,0,0,1,4,4v112.86A4,4,0,0,1,3032,1697.73Z"/><path class="cls-22" d="M3032,1605.28h-63.1c-2.18,0-3.95-.42-3.95-.93v-26.5c0-.52,1.77-.94,3.95-.94H3032c2.18,0,4,.42,4,.94v26.5C3035.9,1604.86,3034.13,1605.28,3032,1605.28Z"/></svg>