<svg xmlns="http://www.w3.org/2000/svg" xmlns:xlink="http://www.w3.org/1999/xlink" width="500" zoomAndPan="magnify" viewBox="0 0 375 374.999991" height="500" preserveAspectRatio="xMidYMid meet" version="1.0"><defs><g/><clipPath id="a86c1b5fc6"><path d="M 59.40625 177.941406 L 315.59375 177.941406 L 315.59375 245.699219 L 59.40625 245.699219 Z M 59.40625 177.941406 " clip-rule="nonzero"/></clipPath><clipPath id="64a1aa6276"><path d="M 194 19.949219 L 205 19.949219 L 205 49 L 194 49 Z M 194 19.949219 " clip-rule="nonzero"/></clipPath><clipPath id="d614e9db79"><rect x="0" width="369" y="0" height="67"/></clipPath></defs><g clip-path="url(#a86c1b5fc6)"><path fill="#f08d1e" d="M 199.269531 231.71875 L 197.445312 234.394531 C 195.1875 237.707031 191.472656 239.683594 187.5 239.683594 C 183.527344 239.683594 179.808594 237.707031 177.554688 234.394531 L 175.730469 231.71875 L 71.496094 231.71875 L 77.328125 223.753906 L 84.113281 223.886719 C 84.957031 223.902344 85.78125 223.910156 86.601562 223.910156 C 104.015625 223.910156 115.933594 220.332031 127.457031 216.867188 C 134.582031 214.726562 141.3125 212.703125 149.105469 211.636719 C 150.929688 211.390625 152.769531 211.261719 154.574219 211.261719 C 171.777344 211.261719 182.9375 222.738281 183.046875 222.855469 L 187.5 227.515625 L 191.949219 222.855469 C 192.0625 222.738281 203.21875 211.261719 220.421875 211.261719 C 222.230469 211.261719 224.070312 211.390625 225.894531 211.636719 C 233.683594 212.703125 240.414062 214.726562 247.539062 216.867188 C 259.066406 220.332031 270.980469 223.910156 288.394531 223.910156 C 289.214844 223.910156 290.039062 223.902344 290.886719 223.886719 L 297.667969 223.753906 L 303.503906 231.71875 Z M 300.472656 217.210938 L 261.683594 177.988281 L 256.957031 177.988281 L 290.765625 217.757812 C 261.933594 218.320312 248.335938 208.523438 226.722656 205.566406 C 202.820312 202.296875 187.5 218.640625 187.5 218.640625 C 187.5 218.640625 172.175781 202.296875 148.273438 205.566406 C 126.664062 208.523438 113.0625 218.320312 84.234375 217.757812 L 118.039062 177.988281 L 113.3125 177.988281 L 74.523438 217.210938 L 59.40625 237.847656 L 172.488281 237.847656 C 175.757812 242.648438 181.25 245.8125 187.5 245.8125 C 193.746094 245.8125 199.238281 242.648438 202.511719 237.847656 L 315.59375 237.847656 L 300.472656 217.210938 " fill-opacity="1" fill-rule="nonzero"/></g><path fill="#f08d1e" d="M 81.851562 228.601562 C 81.175781 228.601562 80.628906 228.054688 80.628906 227.375 C 80.628906 226.699219 81.175781 226.148438 81.851562 226.148438 C 105.179688 226.148438 122.347656 221.859375 133.226562 218.628906 L 133.589844 218.523438 C 142.050781 216.011719 150.039062 213.640625 159.035156 215.523438 C 170.914062 218.003906 179.722656 225.359375 180.09375 225.671875 C 180.609375 226.109375 180.675781 226.882812 180.238281 227.398438 C 179.800781 227.914062 179.027344 227.984375 178.511719 227.546875 C 178.425781 227.472656 169.785156 220.273438 158.535156 217.921875 C 150.144531 216.171875 142.441406 218.453125 134.285156 220.871094 L 133.925781 220.980469 C 122.898438 224.25 105.5 228.601562 81.851562 228.601562 " fill-opacity="1" fill-rule="nonzero"/><path fill="#f08d1e" d="M 116.019531 229.828125 C 115.34375 229.828125 114.792969 229.277344 114.792969 228.601562 C 114.792969 227.925781 115.34375 227.375 116.019531 227.375 C 116.0625 227.375 120.917969 227.273438 135.855469 222.703125 C 142.535156 220.660156 149.6875 218.800781 157.207031 220.371094 C 165.25 222.050781 171.316406 226.191406 171.570312 226.367188 C 172.128906 226.75 172.269531 227.511719 171.882812 228.070312 C 171.496094 228.628906 170.734375 228.769531 170.179688 228.382812 C 170.121094 228.34375 164.246094 224.347656 156.707031 222.769531 C 149.746094 221.3125 143.210938 223.015625 136.574219 225.046875 C 121.132812 229.773438 116.222656 229.828125 116.019531 229.828125 " fill-opacity="1" fill-rule="nonzero"/><path fill="#f08d1e" d="M 142.679688 228.601562 C 142.160156 228.601562 141.675781 228.265625 141.511719 227.742188 C 141.308594 227.097656 141.667969 226.410156 142.316406 226.207031 C 152.601562 222.988281 159.742188 226.125 160.042969 226.257812 C 160.65625 226.539062 160.933594 227.261719 160.652344 227.878906 C 160.375 228.496094 159.648438 228.769531 159.035156 228.492188 C 158.96875 228.464844 152.394531 225.621094 143.046875 228.546875 C 142.925781 228.582031 142.800781 228.601562 142.679688 228.601562 " fill-opacity="1" fill-rule="nonzero"/><path fill="#f08d1e" d="M 293.144531 228.601562 C 269.496094 228.601562 252.101562 224.25 241.070312 220.980469 L 240.710938 220.871094 C 232.558594 218.453125 224.855469 216.171875 216.464844 217.921875 C 205.1875 220.28125 196.570312 227.472656 196.488281 227.546875 C 195.96875 227.984375 195.195312 227.917969 194.761719 227.402344 C 194.324219 226.882812 194.386719 226.109375 194.90625 225.671875 C 195.273438 225.359375 204.085938 218.003906 215.964844 215.523438 C 224.953125 213.640625 232.949219 216.011719 241.410156 218.523438 L 241.769531 218.628906 C 252.652344 221.859375 269.816406 226.148438 293.144531 226.148438 C 293.824219 226.148438 294.371094 226.699219 294.371094 227.375 C 294.371094 228.054688 293.824219 228.601562 293.144531 228.601562 " fill-opacity="1" fill-rule="nonzero"/><path fill="#f08d1e" d="M 258.976562 229.828125 C 258.777344 229.828125 253.867188 229.773438 238.425781 225.046875 C 231.785156 223.019531 225.246094 221.316406 218.292969 222.769531 C 210.75 224.347656 204.878906 228.34375 204.820312 228.382812 C 204.261719 228.769531 203.5 228.628906 203.113281 228.070312 C 202.730469 227.511719 202.871094 226.75 203.429688 226.367188 C 203.683594 226.191406 209.746094 222.050781 217.789062 220.371094 C 225.308594 218.800781 232.460938 220.664062 239.140625 222.703125 C 254.082031 227.273438 258.9375 227.375 258.984375 227.375 C 259.65625 227.382812 260.203125 227.933594 260.199219 228.605469 C 260.195312 229.28125 259.652344 229.828125 258.976562 229.828125 " fill-opacity="1" fill-rule="nonzero"/><path fill="#f08d1e" d="M 232.316406 228.601562 C 232.195312 228.601562 232.070312 228.582031 231.949219 228.546875 C 222.542969 225.605469 216.03125 228.464844 215.964844 228.492188 C 215.351562 228.773438 214.625 228.496094 214.347656 227.878906 C 214.066406 227.261719 214.339844 226.539062 214.957031 226.257812 C 215.257812 226.125 222.398438 222.984375 232.683594 226.207031 C 233.328125 226.410156 233.6875 227.097656 233.484375 227.742188 C 233.320312 228.265625 232.839844 228.601562 232.316406 228.601562 " fill-opacity="1" fill-rule="nonzero"/><path fill="#4c764a" d="M 169.359375 86.8125 C 168.398438 90.867188 168.015625 95.644531 170.191406 99.707031 C 172.015625 103.125 176.140625 105.21875 177.574219 108.976562 C 177.574219 108.976562 177.59375 103.449219 172.894531 97.980469 C 172.894531 97.980469 177.273438 101.832031 178.21875 107.859375 C 178.902344 106.191406 179.316406 103 177.847656 97.59375 C 177.203125 95.226562 175.515625 93.511719 173.757812 91.984375 C 172.082031 90.523438 170.148438 88.941406 169.359375 86.8125 " fill-opacity="1" fill-rule="nonzero"/><path fill="#4c764a" d="M 150.992188 98.746094 C 151.007812 103.835938 151.910156 109.625 155.648438 113.832031 C 158.789062 117.371094 164.285156 118.6875 167.058594 122.746094 C 167.058594 122.746094 165.507812 116.175781 158.371094 111.007812 C 158.371094 111.007812 164.671875 114.34375 167.507812 121.238281 C 167.84375 119.058594 167.429688 115.144531 164.144531 109.140625 C 162.707031 106.515625 160.210938 104.957031 157.691406 103.640625 C 155.285156 102.382812 152.535156 101.054688 150.992188 98.746094 " fill-opacity="1" fill-rule="nonzero"/><path fill="#4c764a" d="M 227.5625 123.550781 C 230.855469 122.824219 233.289062 120.207031 235.46875 117.453125 C 237.546875 114.820312 239.804688 111.765625 242.777344 110.753906 C 237.203125 108.484375 230.609375 107.085938 224.914062 110.160156 C 220.121094 112.742188 217.074219 119.449219 211.828125 121.304688 C 211.828125 121.304688 219.46875 122.203125 227.207031 115.046875 C 227.207031 115.046875 221.714844 121.910156 213.347656 122.582031 C 215.628906 124.007812 220.03125 125.214844 227.5625 123.550781 " fill-opacity="1" fill-rule="nonzero"/><path fill="#4c764a" d="M 228.242188 133.273438 C 222.875 132.96875 217.300781 137.179688 211.839844 136 C 211.839844 136 218.257812 140.84375 228.195312 138.738281 C 228.195312 138.738281 220.382812 141.78125 212.648438 137.914062 C 214.070312 140.367188 217.46875 143.761719 224.886719 146.316406 C 228.125 147.433594 231.40625 146.457031 234.519531 145.222656 C 237.496094 144.042969 240.804688 142.589844 243.886719 143.289062 C 239.894531 138.355469 234.621094 133.632812 228.242188 133.273438 " fill-opacity="1" fill-rule="nonzero"/><path fill="#4c764a" d="M 203.648438 112.6875 C 206.21875 112.503906 210.417969 110.847656 215.78125 104.863281 C 218.128906 102.246094 218.847656 98.558594 219.289062 94.90625 C 219.714844 91.421875 220.074219 87.46875 222.019531 84.800781 C 216.339844 86.277344 210.246094 89.105469 207.074219 95.164062 C 204.40625 100.261719 205.179688 107.777344 201.78125 112.535156 C 201.78125 112.535156 208.488281 108.648438 211.339844 97.898438 C 211.339844 97.898438 210.1875 107.03125 203.648438 112.6875 " fill-opacity="1" fill-rule="nonzero"/><path fill="#4c764a" d="M 191.496094 72.070312 C 187.769531 77.28125 184.4375 83.859375 185.160156 90.90625 C 185.773438 96.835938 190.417969 102.21875 190.265625 108.402344 C 190.265625 108.402344 193.515625 100.550781 190.019531 90.027344 C 190.019531 90.027344 194.003906 98.0625 191.832031 107.191406 C 193.78125 105.214844 196.234375 100.914062 197.289062 92.363281 C 197.753906 88.621094 196.347656 85.195312 194.742188 81.996094 C 193.210938 78.941406 191.378906 75.5625 191.496094 72.070312 " fill-opacity="1" fill-rule="nonzero"/><path fill="#4c764a" d="M 204.582031 77.1875 C 204.582031 77.1875 209.046875 72.195312 208.925781 62.738281 C 208.925781 62.738281 210.039062 70.417969 206.101562 76.792969 C 208.101562 75.929688 211.074219 73.429688 214.003906 67.121094 C 215.289062 64.359375 215.039062 61.1875 214.578125 58.121094 C 214.140625 55.199219 213.546875 51.914062 214.5 49.226562 C 210.316406 51.988281 206.101562 55.957031 204.925781 61.71875 C 203.9375 66.566406 206.226562 72.410156 204.582031 77.1875 " fill-opacity="1" fill-rule="nonzero"/><path fill="#4c764a" d="M 188.5 47.621094 C 187.980469 44.976562 187.308594 42.011719 188.070312 39.511719 C 184.371094 42.242188 180.695312 46.074219 179.859375 51.386719 C 179.152344 55.855469 181.472656 61.070312 180.167969 65.511719 C 180.167969 65.511719 184.03125 60.734375 183.539062 52.117188 C 183.539062 52.117188 184.863281 59.066406 181.535156 65.074219 C 183.320312 64.1875 185.925781 61.761719 188.335938 55.855469 C 189.394531 53.273438 189.042969 50.394531 188.5 47.621094 " fill-opacity="1" fill-rule="nonzero"/><g clip-path="url(#64a1aa6276)"><path fill="#4c764a" d="M 204.421875 28.84375 C 203.855469 25.941406 203.121094 22.691406 203.953125 19.949219 C 199.898438 22.941406 195.871094 27.144531 194.953125 32.96875 C 194.179688 37.867188 196.71875 43.585938 195.292969 48.453125 C 195.292969 48.453125 199.527344 43.214844 198.988281 33.769531 C 198.988281 33.769531 200.4375 41.386719 196.789062 47.972656 C 198.75 47.003906 201.601562 44.339844 204.246094 37.871094 C 205.40625 35.039062 205.019531 31.882812 204.421875 28.84375 " fill-opacity="1" fill-rule="nonzero"/></g><path fill="#4c764a" d="M 248.792969 86.21875 C 243.929688 85.324219 238.355469 85.320312 234.144531 88.839844 C 230.597656 91.796875 229.050781 97.84375 225.03125 100.285156 C 225.03125 100.285156 231.390625 99.691406 236.695312 92.460938 C 236.695312 92.460938 233.179688 99.058594 226.449219 101.070312 C 228.511719 101.84375 232.265625 102.070312 238.175781 99.390625 C 240.757812 98.214844 242.375 95.644531 243.769531 92.996094 C 245.09375 90.472656 246.507812 87.570312 248.792969 86.21875 " fill-opacity="1" fill-rule="nonzero"/><path fill="#4c764a" d="M 231.453125 60.078125 C 231.453125 60.078125 230.1875 67.667969 224.527344 72.136719 C 226.6875 72.085938 230.261719 70.871094 234.949219 66.082031 C 237 63.984375 237.722656 60.929688 238.210938 57.894531 C 238.679688 54.996094 239.109375 51.707031 240.828125 49.554688 C 236.019531 50.558594 230.820312 52.679688 227.964844 57.621094 C 225.566406 61.773438 225.96875 68.089844 222.96875 71.933594 C 222.96875 71.933594 228.710938 68.953125 231.453125 60.078125 " fill-opacity="1" fill-rule="nonzero"/><path fill="#4c764a" d="M 224.199219 38.140625 C 224.199219 38.140625 223.160156 44.375 218.511719 48.042969 C 220.285156 48.003906 223.21875 47.003906 227.070312 43.070312 C 228.753906 41.351562 229.347656 38.84375 229.75 36.347656 C 230.132812 33.96875 230.488281 31.265625 231.898438 29.5 C 227.949219 30.324219 223.679688 32.066406 221.335938 36.121094 C 219.363281 39.53125 219.695312 44.722656 217.230469 47.878906 C 217.230469 47.878906 221.949219 45.429688 224.199219 38.140625 " fill-opacity="1" fill-rule="nonzero"/><path fill="#4c764a" d="M 247.851562 118.734375 C 243.914062 121.003906 241.507812 126.671875 237.175781 128.351562 C 237.175781 128.351562 243.558594 128.910156 249.859375 122.753906 C 249.859375 122.753906 245.421875 128.609375 238.464844 129.375 C 240.394531 130.511719 244.085938 131.40625 250.324219 129.832031 C 253.050781 129.140625 255.027344 126.90625 256.785156 124.554688 C 258.464844 122.308594 260.285156 119.707031 262.742188 118.789062 C 258.054688 117.035156 252.535156 116.03125 247.851562 118.734375 " fill-opacity="1" fill-rule="nonzero"/><path fill="#4c764a" d="M 257.113281 91.902344 C 253.175781 94.175781 250.769531 99.839844 246.4375 101.519531 C 246.4375 101.519531 252.820312 102.078125 259.121094 95.921875 C 259.121094 95.921875 254.683594 101.777344 247.726562 102.546875 C 249.65625 103.679688 253.347656 104.578125 259.585938 103.003906 C 262.3125 102.3125 264.289062 100.074219 266.046875 97.722656 C 267.726562 95.480469 269.546875 92.875 272.003906 91.957031 C 267.316406 90.203125 261.796875 89.203125 257.113281 91.902344 " fill-opacity="1" fill-rule="nonzero"/><path fill="#4c764a" d="M 250.035156 72.828125 C 250.035156 72.828125 245.597656 78.683594 238.640625 79.453125 C 240.570312 80.585938 244.261719 81.484375 250.5 79.910156 C 253.226562 79.21875 255.203125 76.980469 256.960938 74.628906 C 258.640625 72.386719 260.460938 69.785156 262.917969 68.863281 C 258.230469 67.109375 252.710938 66.109375 248.027344 68.808594 C 244.089844 71.082031 241.683594 76.746094 237.351562 78.425781 C 237.351562 78.425781 243.734375 78.984375 250.035156 72.828125 " fill-opacity="1" fill-rule="nonzero"/><path fill="#4c764a" d="M 156.769531 125.714844 C 151.257812 124.925781 146.949219 118.949219 141.746094 117.359375 C 135.558594 115.464844 129.363281 118.136719 124.34375 121.457031 C 127.460938 121.863281 130.277344 124.417969 132.832031 126.585938 C 135.511719 128.859375 138.410156 130.945312 141.78125 131.007812 C 149.492188 131.160156 153.574219 129.109375 155.53125 127.261719 C 147.191406 128.25 140.457031 122.601562 140.457031 122.601562 C 149.453125 128.097656 156.769531 125.714844 156.769531 125.714844 " fill-opacity="1" fill-rule="nonzero"/><path fill="#4c764a" d="M 160.46875 137.300781 C 155.984375 138.460938 151.222656 135.167969 146.789062 135.601562 C 141.515625 136.117188 137.308594 140.207031 134.171875 144.433594 C 136.699219 143.746094 139.492188 144.835938 141.992188 145.710938 C 144.617188 146.628906 147.367188 147.328125 150.015625 146.289062 C 156.066406 143.917969 158.769531 140.992188 159.863281 138.914062 C 153.589844 142.378906 147.011719 140.125 147.011719 140.125 C 155.316406 141.53125 160.46875 137.300781 160.46875 137.300781 " fill-opacity="1" fill-rule="nonzero"/><path fill="#4c764a" d="M 147.6875 104.714844 C 144.855469 100.898438 145.277344 94.917969 143.023438 90.84375 C 140.339844 85.996094 135.414062 83.695312 130.851562 82.480469 C 132.472656 84.617188 132.859375 87.769531 133.285156 90.546875 C 133.734375 93.457031 134.398438 96.398438 136.335938 98.503906 C 140.761719 103.308594 144.152344 104.65625 146.203125 104.820312 C 140.847656 100.269531 139.695312 92.988281 139.695312 92.988281 C 142.246094 101.566406 147.6875 104.714844 147.6875 104.714844 " fill-opacity="1" fill-rule="nonzero"/><path fill="#4c764a" d="M 162.039062 86.835938 C 159.570312 83.117188 160.238281 77.566406 158.3125 73.636719 C 156.027344 68.96875 151.527344 66.542969 147.320312 65.152344 C 148.734375 67.234375 148.957031 70.195312 149.226562 72.808594 C 149.511719 75.550781 150 78.328125 151.714844 80.398438 C 155.632812 85.128906 158.738281 86.582031 160.644531 86.851562 C 155.851562 82.304688 155.105469 75.449219 155.105469 75.449219 C 157.097656 83.59375 162.039062 86.835938 162.039062 86.835938 " fill-opacity="1" fill-rule="nonzero"/><path fill="#4c764a" d="M 129.132812 51.074219 C 133.3125 54.621094 136.289062 55.363281 138.03125 55.261719 C 133.097656 52.039062 131.433594 46.011719 131.433594 46.011719 C 134.394531 52.976562 139.269531 54.996094 139.269531 54.996094 C 136.527344 52.097656 136.320312 46.992188 134.03125 43.808594 C 131.316406 40.023438 126.953125 38.65625 123 38.167969 C 124.5625 39.785156 125.191406 42.40625 125.808594 44.703125 C 126.460938 47.117188 127.300781 49.527344 129.132812 51.074219 " fill-opacity="1" fill-rule="nonzero"/><path fill="#4c764a" d="M 103.832031 66.777344 C 104.90625 69.003906 106.167969 71.179688 108.234375 72.285156 C 112.953125 74.816406 115.992188 74.867188 117.671875 74.371094 C 112.273438 72.328125 109.550781 66.78125 109.550781 66.78125 C 113.707031 72.953125 118.828125 73.824219 118.828125 73.824219 C 115.628906 71.605469 114.488281 66.625 111.675781 64.019531 C 108.335938 60.917969 103.835938 60.570312 99.894531 60.992188 C 101.714844 62.226562 102.804688 64.660156 103.832031 66.777344 " fill-opacity="1" fill-rule="nonzero"/><path fill="#4c764a" d="M 151.367188 51.078125 C 148.328125 44.941406 149.847656 38.300781 149.847656 38.300781 C 149.082031 46.636719 152.679688 51.625 152.679688 51.625 C 151.5625 47.191406 153.988281 42.328125 153.449219 37.921875 C 152.8125 32.679688 149.363281 28.625 145.859375 25.640625 C 146.515625 28.140625 145.765625 30.960938 145.171875 33.488281 C 144.554688 36.136719 144.113281 38.90625 145.054688 41.511719 C 147.207031 47.464844 149.65625 50.058594 151.367188 51.078125 " fill-opacity="1" fill-rule="nonzero"/><path fill="#4c764a" d="M 172.816406 47.179688 C 172.921875 42.601562 176.546875 38.796875 177.207031 34.441406 C 177.988281 29.261719 175.757812 24.273438 173.183594 20.273438 C 173.148438 22.863281 171.671875 25.289062 170.433594 27.488281 C 169.128906 29.792969 167.972656 32.273438 168.183594 35.054688 C 168.664062 41.417969 170.328125 44.6875 171.695312 46.222656 C 170.414062 39.394531 173.640625 33.605469 173.640625 33.605469 C 170.6875 41.25 172.816406 47.179688 172.816406 47.179688 " fill-opacity="1" fill-rule="nonzero"/><path fill="#4c764a" d="M 172.46875 62.738281 C 170.824219 57.050781 166.292969 53.3125 161.890625 50.777344 C 163.0625 53.40625 162.742188 56.714844 162.542969 59.65625 C 162.332031 62.742188 162.347656 65.917969 163.851562 68.605469 C 167.296875 74.746094 170.464844 77.085938 172.53125 77.835938 C 168.082031 71.6875 168.5625 63.964844 168.5625 63.964844 C 169.214844 73.402344 174.078125 78.152344 174.078125 78.152344 C 172.050781 73.46875 173.855469 67.519531 172.46875 62.738281 " fill-opacity="1" fill-rule="nonzero"/><path fill="#4c764a" d="M 126.195312 99.566406 C 121.371094 96.945312 115.90625 98.042969 111.3125 99.878906 C 113.820312 100.753906 115.777344 103.320312 117.574219 105.535156 C 119.460938 107.855469 121.550781 110.058594 124.316406 110.703125 C 130.636719 112.167969 134.273438 111.207031 136.144531 110.042969 C 129.148438 109.394531 124.402344 103.617188 124.402344 103.617188 C 131.027344 109.664062 137.378906 108.996094 137.378906 108.996094 C 132.957031 107.390625 130.25 101.765625 126.195312 99.566406 " fill-opacity="1" fill-rule="nonzero"/><path fill="#4c764a" d="M 129.492188 73.890625 C 135.03125 77.664062 138.773438 78.152344 140.902344 77.777344 C 134.472656 74.511719 131.738281 67.316406 131.738281 67.316406 C 136.171875 75.480469 142.390625 77.273438 142.390625 77.273438 C 138.691406 74.09375 137.847656 67.820312 134.671875 64.21875 C 130.902344 59.941406 125.390625 58.882812 120.476562 58.84375 C 122.585938 60.617188 123.65625 63.757812 124.683594 66.507812 C 125.761719 69.386719 127.070312 72.238281 129.492188 73.890625 " fill-opacity="1" fill-rule="nonzero"/><path fill="#4c764a" d="M 116.167969 133.609375 C 123.558594 138.40625 129.707031 136.601562 129.707031 136.601562 C 125.125 135.808594 121.652344 130.726562 117.347656 129.273438 C 112.222656 127.546875 107.007812 129.617188 102.757812 132.257812 C 105.347656 132.675781 107.644531 134.871094 109.730469 136.738281 C 111.921875 138.699219 114.296875 140.503906 117.105469 140.644531 C 123.535156 140.960938 126.972656 139.351562 128.644531 137.863281 C 121.671875 138.476562 116.167969 133.609375 116.167969 133.609375 " fill-opacity="1" fill-rule="nonzero"/><path fill="#4c764a" d="M 119.035156 115.839844 C 112.066406 116.457031 106.5625 111.585938 106.5625 111.585938 C 113.953125 116.382812 120.101562 114.582031 120.101562 114.582031 C 115.523438 113.789062 112.046875 108.703125 107.738281 107.25 C 102.617188 105.523438 97.402344 107.59375 93.152344 110.234375 C 95.742188 110.652344 98.039062 112.847656 100.125 114.714844 C 102.3125 116.675781 104.691406 118.480469 107.5 118.621094 C 113.925781 118.9375 117.367188 117.332031 119.035156 115.839844 " fill-opacity="1" fill-rule="nonzero"/><path fill="#4c764a" d="M 109.546875 93.570312 C 115.972656 93.882812 119.414062 92.277344 121.082031 90.785156 C 114.113281 91.402344 108.609375 86.535156 108.609375 86.535156 C 116 91.332031 122.144531 89.527344 122.144531 89.527344 C 117.566406 88.734375 114.09375 83.648438 109.785156 82.199219 C 104.664062 80.472656 99.449219 82.542969 95.199219 85.179688 C 97.789062 85.601562 100.085938 87.792969 102.171875 89.664062 C 104.359375 91.621094 106.734375 93.429688 109.546875 93.570312 " fill-opacity="1" fill-rule="nonzero"/><path fill="#64615f" d="M 187.5 164.074219 C 163.960938 147.066406 121.820312 157.375 121.820312 157.375 C 169.480469 168.453125 187.5 209.933594 187.5 209.933594 C 187.5 209.933594 205.519531 168.453125 253.179688 157.375 C 253.179688 157.375 211.039062 147.066406 187.5 164.074219 " fill-opacity="1" fill-rule="nonzero"/><path fill="#64615f" d="M 170.789062 133.863281 C 170.789062 144.75 178.269531 153.574219 187.5 153.574219 C 196.726562 153.574219 204.210938 144.75 204.210938 133.863281 C 204.210938 122.980469 196.726562 114.15625 187.5 114.15625 C 178.269531 114.15625 170.789062 122.980469 170.789062 133.863281 " fill-opacity="1" fill-rule="nonzero"/><g transform="matrix(1, 0, 0, 1, 6, 251)"><g clip-path="url(#d614e9db79)"><g fill="#4c764a" fill-opacity="1"><g transform="translate(1.665896, 52.027894)"><g><path d="M 31.453125 -0.640625 L 4.484375 -1.171875 C 4.398438 -1.328125 4.332031 -1.664062 4.28125 -2.1875 C 4.226562 -2.71875 4.179688 -3.316406 4.140625 -3.984375 C 4.109375 -4.660156 4.085938 -5.316406 4.078125 -5.953125 C 4.066406 -6.597656 4.054688 -7.128906 4.046875 -7.546875 C 4.046875 -7.972656 4.046875 -8.1875 4.046875 -8.1875 C 4.046875 -8.1875 4.085938 -8.265625 4.171875 -8.421875 C 4.253906 -8.578125 4.347656 -8.734375 4.453125 -8.890625 C 4.554688 -9.046875 4.617188 -9.132812 4.640625 -9.15625 C 4.640625 -9.15625 4.898438 -9.117188 5.421875 -9.046875 C 5.953125 -8.972656 6.632812 -8.875 7.46875 -8.75 C 8.3125 -8.632812 9.210938 -8.515625 10.171875 -8.390625 C 11.128906 -8.273438 12.046875 -8.15625 12.921875 -8.03125 C 13.796875 -7.914062 14.523438 -7.820312 15.109375 -7.75 C 15.703125 -7.675781 16.050781 -7.640625 16.15625 -7.640625 C 16.15625 -7.640625 16.1875 -7.847656 16.25 -8.265625 C 16.320312 -8.679688 16.398438 -9.179688 16.484375 -9.765625 C 16.578125 -10.359375 16.65625 -10.921875 16.71875 -11.453125 C 13.414062 -11.628906 10.753906 -11.84375 8.734375 -12.09375 C 6.710938 -12.34375 5.25 -12.570312 4.34375 -12.78125 C 3.4375 -12.988281 2.984375 -13.09375 2.984375 -13.09375 C 2.941406 -13.09375 2.910156 -13.394531 2.890625 -14 C 2.878906 -14.601562 2.878906 -15.425781 2.890625 -16.46875 C 2.898438 -17.519531 2.914062 -18.695312 2.9375 -20 C 2.96875 -21.300781 3.007812 -22.660156 3.0625 -24.078125 C 3.113281 -25.492188 3.171875 -26.878906 3.234375 -28.234375 C 3.304688 -29.597656 3.394531 -30.847656 3.5 -31.984375 C 3.601562 -33.128906 3.710938 -34.082031 3.828125 -34.84375 C 3.953125 -35.601562 4.09375 -36.085938 4.25 -36.296875 C 4.25 -36.296875 4.304688 -36.375 4.421875 -36.53125 C 4.535156 -36.6875 4.648438 -36.84375 4.765625 -37 C 4.890625 -37.164062 4.960938 -37.25 4.984375 -37.25 C 5.035156 -37.300781 5.382812 -37.359375 6.03125 -37.421875 C 6.675781 -37.492188 7.53125 -37.578125 8.59375 -37.671875 C 9.65625 -37.773438 10.847656 -37.875 12.171875 -37.96875 C 13.492188 -38.0625 14.859375 -38.148438 16.265625 -38.234375 C 17.671875 -38.328125 19.046875 -38.410156 20.390625 -38.484375 C 21.734375 -38.566406 22.960938 -38.628906 24.078125 -38.671875 C 25.191406 -38.722656 26.109375 -38.757812 26.828125 -38.78125 C 27.554688 -38.800781 28.007812 -38.789062 28.1875 -38.75 C 28.25 -38.738281 28.3125 -38.457031 28.375 -37.90625 C 28.4375 -37.351562 28.492188 -36.601562 28.546875 -35.65625 C 28.609375 -34.71875 28.671875 -33.664062 28.734375 -32.5 C 28.796875 -31.332031 28.84375 -30.128906 28.875 -28.890625 C 28.914062 -27.660156 28.945312 -26.460938 28.96875 -25.296875 C 29 -24.128906 29.007812 -23.070312 29 -22.125 C 28.988281 -21.1875 28.960938 -20.4375 28.921875 -19.875 C 28.890625 -19.320312 28.84375 -19.039062 28.78125 -19.03125 C 28.707031 -19.007812 28.394531 -18.992188 27.84375 -18.984375 C 27.289062 -18.984375 26.570312 -18.984375 25.6875 -18.984375 C 24.8125 -18.984375 23.835938 -18.984375 22.765625 -18.984375 C 21.691406 -18.984375 20.585938 -18.984375 19.453125 -18.984375 C 18.328125 -18.984375 17.234375 -18.984375 16.171875 -18.984375 C 15.117188 -18.992188 14.171875 -19.003906 13.328125 -19.015625 C 12.484375 -19.023438 11.8125 -19.03125 11.3125 -19.03125 C 10.820312 -19.03125 10.578125 -19.03125 10.578125 -19.03125 L 10.21875 -15.40625 L 32.140625 -14.234375 L 32.5625 -13.796875 C 32.5625 -13.796875 32.546875 -13.5625 32.515625 -13.09375 C 32.492188 -12.625 32.460938 -12.003906 32.421875 -11.234375 C 32.390625 -10.460938 32.347656 -9.613281 32.296875 -8.6875 C 32.242188 -7.769531 32.179688 -6.84375 32.109375 -5.90625 C 32.046875 -4.976562 31.972656 -4.125 31.890625 -3.34375 C 31.816406 -2.5625 31.742188 -1.925781 31.671875 -1.4375 C 31.609375 -0.945312 31.535156 -0.679688 31.453125 -0.640625 Z M 31.453125 -0.640625 "/></g></g></g><g fill="#4c764a" fill-opacity="1"><g transform="translate(35.895526, 52.027894)"><g><path d="M 3.53125 -11.71875 L 7.421875 -11.6875 C 7.421875 -11.6875 7.414062 -11.925781 7.40625 -12.40625 C 7.394531 -12.882812 7.390625 -13.53125 7.390625 -14.34375 C 7.390625 -15.15625 7.382812 -16.066406 7.375 -17.078125 C 7.363281 -18.085938 7.363281 -19.125 7.375 -20.1875 C 7.382812 -21.257812 7.394531 -22.296875 7.40625 -23.296875 C 7.414062 -24.304688 7.425781 -25.195312 7.4375 -25.96875 L 4 -26.078125 L 3.53125 -26.4375 C 3.457031 -26.507812 3.382812 -26.789062 3.3125 -27.28125 C 3.25 -27.78125 3.191406 -28.414062 3.140625 -29.1875 C 3.085938 -29.96875 3.035156 -30.8125 2.984375 -31.71875 C 2.941406 -32.625 2.910156 -33.523438 2.890625 -34.421875 C 2.867188 -35.328125 2.847656 -36.15625 2.828125 -36.90625 C 2.804688 -37.65625 2.789062 -38.253906 2.78125 -38.703125 C 2.78125 -39.148438 2.78125 -39.375 2.78125 -39.375 C 3 -39.445312 3.453125 -39.519531 4.140625 -39.59375 C 4.835938 -39.675781 5.679688 -39.75 6.671875 -39.8125 C 7.671875 -39.882812 8.726562 -39.941406 9.84375 -39.984375 C 10.96875 -40.023438 12.09375 -40.03125 13.21875 -40 C 14.34375 -39.976562 15.378906 -39.914062 16.328125 -39.8125 C 17.285156 -39.71875 18.066406 -39.566406 18.671875 -39.359375 C 18.671875 -39.359375 18.691406 -39.15625 18.734375 -38.75 C 18.773438 -38.34375 18.828125 -37.796875 18.890625 -37.109375 C 18.953125 -36.429688 19.015625 -35.671875 19.078125 -34.828125 C 19.148438 -33.992188 19.203125 -33.144531 19.234375 -32.28125 C 19.265625 -31.414062 19.269531 -30.597656 19.25 -29.828125 C 19.238281 -29.054688 19.191406 -28.394531 19.109375 -27.84375 C 18.953125 -27.84375 18.648438 -27.832031 18.203125 -27.8125 C 17.765625 -27.800781 17.28125 -27.78125 16.75 -27.75 C 16.226562 -27.726562 15.742188 -27.703125 15.296875 -27.671875 C 14.859375 -27.648438 14.546875 -27.628906 14.359375 -27.609375 C 14.347656 -26.472656 14.320312 -25.164062 14.28125 -23.6875 C 14.25 -22.207031 14.210938 -20.660156 14.171875 -19.046875 C 14.128906 -17.429688 14.082031 -15.828125 14.03125 -14.234375 C 13.988281 -12.640625 13.953125 -11.160156 13.921875 -9.796875 C 14.097656 -9.785156 14.375 -9.765625 14.75 -9.734375 C 15.132812 -9.710938 15.546875 -9.6875 15.984375 -9.65625 C 16.421875 -9.632812 16.832031 -9.613281 17.21875 -9.59375 C 17.613281 -9.570312 17.894531 -9.554688 18.0625 -9.546875 C 18.164062 -8.890625 18.21875 -8.15625 18.21875 -7.34375 C 18.21875 -6.53125 18.1875 -5.710938 18.125 -4.890625 C 18.070312 -4.066406 18.003906 -3.3125 17.921875 -2.625 C 17.847656 -1.945312 17.78125 -1.398438 17.71875 -0.984375 C 17.65625 -0.566406 17.625 -0.359375 17.625 -0.359375 C 17.019531 -0.148438 16.265625 0.00390625 15.359375 0.109375 C 14.453125 0.210938 13.476562 0.273438 12.4375 0.296875 C 11.40625 0.328125 10.367188 0.316406 9.328125 0.265625 C 8.296875 0.222656 7.328125 0.164062 6.421875 0.09375 C 5.515625 0.03125 4.734375 -0.0351562 4.078125 -0.109375 C 3.429688 -0.191406 3 -0.269531 2.78125 -0.34375 C 2.78125 -0.34375 2.757812 -0.554688 2.71875 -0.984375 C 2.6875 -1.421875 2.648438 -1.992188 2.609375 -2.703125 C 2.566406 -3.421875 2.539062 -4.207031 2.53125 -5.0625 C 2.519531 -5.914062 2.539062 -6.769531 2.59375 -7.625 C 2.644531 -8.488281 2.742188 -9.273438 2.890625 -9.984375 C 3.035156 -10.703125 3.25 -11.28125 3.53125 -11.71875 Z M 3.53125 -11.71875 "/></g></g></g><g fill="#4c764a" fill-opacity="1"><g transform="translate(58.516621, 52.027894)"><g><path d="M 20.875 0.671875 L 13.8125 -0.203125 L 2.46875 -32.375 L 2.875 -33.515625 C 2.875 -33.515625 3.0625 -33.648438 3.4375 -33.921875 C 3.820312 -34.191406 4.34375 -34.53125 5 -34.9375 C 5.65625 -35.34375 6.410156 -35.765625 7.265625 -36.203125 C 8.128906 -36.640625 9.035156 -37.046875 9.984375 -37.421875 C 10.929688 -37.804688 11.878906 -38.085938 12.828125 -38.265625 C 12.847656 -38.265625 12.957031 -38 13.15625 -37.46875 C 13.351562 -36.945312 13.597656 -36.25 13.890625 -35.375 C 14.191406 -34.5 14.519531 -33.535156 14.875 -32.484375 C 15.226562 -31.429688 15.582031 -30.378906 15.9375 -29.328125 C 16.289062 -28.285156 16.613281 -27.328125 16.90625 -26.453125 C 17.195312 -25.578125 17.425781 -24.875 17.59375 -24.34375 C 17.769531 -23.8125 17.859375 -23.546875 17.859375 -23.546875 L 23.59375 -37.390625 L 25.09375 -37.75 C 25.09375 -37.75 25.242188 -37.757812 25.546875 -37.78125 C 25.847656 -37.8125 26.300781 -37.785156 26.90625 -37.703125 C 27.507812 -37.628906 28.257812 -37.429688 29.15625 -37.109375 C 30.0625 -36.785156 31.109375 -36.269531 32.296875 -35.5625 C 32.316406 -35.5625 32.234375 -35.269531 32.046875 -34.6875 C 31.867188 -34.113281 31.613281 -33.328125 31.28125 -32.328125 C 30.957031 -31.335938 30.582031 -30.195312 30.15625 -28.90625 C 29.738281 -27.625 29.285156 -26.265625 28.796875 -24.828125 C 28.316406 -23.398438 27.832031 -21.953125 27.34375 -20.484375 C 26.863281 -19.023438 26.398438 -17.625 25.953125 -16.28125 C 25.503906 -14.9375 25.09375 -13.710938 24.71875 -12.609375 C 24.34375 -11.515625 24.039062 -10.609375 23.8125 -9.890625 C 23.582031 -9.171875 23.441406 -8.71875 23.390625 -8.53125 C 23.367188 -8.445312 23.285156 -8.160156 23.140625 -7.671875 C 23.003906 -7.191406 22.84375 -6.601562 22.65625 -5.90625 C 22.46875 -5.21875 22.269531 -4.492188 22.0625 -3.734375 C 21.851562 -2.972656 21.65625 -2.253906 21.46875 -1.578125 C 21.289062 -0.910156 21.144531 -0.367188 21.03125 0.046875 C 20.925781 0.460938 20.875 0.671875 20.875 0.671875 Z M 20.875 0.671875 "/></g></g></g><g fill="#4c764a" fill-opacity="1"><g transform="translate(92.383485, 52.027894)"><g><path d="M 3.53125 -11.71875 L 7.421875 -11.6875 C 7.421875 -11.6875 7.414062 -11.925781 7.40625 -12.40625 C 7.394531 -12.882812 7.390625 -13.53125 7.390625 -14.34375 C 7.390625 -15.15625 7.382812 -16.066406 7.375 -17.078125 C 7.363281 -18.085938 7.363281 -19.125 7.375 -20.1875 C 7.382812 -21.257812 7.394531 -22.296875 7.40625 -23.296875 C 7.414062 -24.304688 7.425781 -25.195312 7.4375 -25.96875 L 4 -26.078125 L 3.53125 -26.4375 C 3.457031 -26.507812 3.382812 -26.789062 3.3125 -27.28125 C 3.25 -27.78125 3.191406 -28.414062 3.140625 -29.1875 C 3.085938 -29.96875 3.035156 -30.8125 2.984375 -31.71875 C 2.941406 -32.625 2.910156 -33.523438 2.890625 -34.421875 C 2.867188 -35.328125 2.847656 -36.15625 2.828125 -36.90625 C 2.804688 -37.65625 2.789062 -38.253906 2.78125 -38.703125 C 2.78125 -39.148438 2.78125 -39.375 2.78125 -39.375 C 3 -39.445312 3.453125 -39.519531 4.140625 -39.59375 C 4.835938 -39.675781 5.679688 -39.75 6.671875 -39.8125 C 7.671875 -39.882812 8.726562 -39.941406 9.84375 -39.984375 C 10.96875 -40.023438 12.09375 -40.03125 13.21875 -40 C 14.34375 -39.976562 15.378906 -39.914062 16.328125 -39.8125 C 17.285156 -39.71875 18.066406 -39.566406 18.671875 -39.359375 C 18.671875 -39.359375 18.691406 -39.15625 18.734375 -38.75 C 18.773438 -38.34375 18.828125 -37.796875 18.890625 -37.109375 C 18.953125 -36.429688 19.015625 -35.671875 19.078125 -34.828125 C 19.148438 -33.992188 19.203125 -33.144531 19.234375 -32.28125 C 19.265625 -31.414062 19.269531 -30.597656 19.25 -29.828125 C 19.238281 -29.054688 19.191406 -28.394531 19.109375 -27.84375 C 18.953125 -27.84375 18.648438 -27.832031 18.203125 -27.8125 C 17.765625 -27.800781 17.28125 -27.78125 16.75 -27.75 C 16.226562 -27.726562 15.742188 -27.703125 15.296875 -27.671875 C 14.859375 -27.648438 14.546875 -27.628906 14.359375 -27.609375 C 14.347656 -26.472656 14.320312 -25.164062 14.28125 -23.6875 C 14.25 -22.207031 14.210938 -20.660156 14.171875 -19.046875 C 14.128906 -17.429688 14.082031 -15.828125 14.03125 -14.234375 C 13.988281 -12.640625 13.953125 -11.160156 13.921875 -9.796875 C 14.097656 -9.785156 14.375 -9.765625 14.75 -9.734375 C 15.132812 -9.710938 15.546875 -9.6875 15.984375 -9.65625 C 16.421875 -9.632812 16.832031 -9.613281 17.21875 -9.59375 C 17.613281 -9.570312 17.894531 -9.554688 18.0625 -9.546875 C 18.164062 -8.890625 18.21875 -8.15625 18.21875 -7.34375 C 18.21875 -6.53125 18.1875 -5.710938 18.125 -4.890625 C 18.070312 -4.066406 18.003906 -3.3125 17.921875 -2.625 C 17.847656 -1.945312 17.78125 -1.398438 17.71875 -0.984375 C 17.65625 -0.566406 17.625 -0.359375 17.625 -0.359375 C 17.019531 -0.148438 16.265625 0.00390625 15.359375 0.109375 C 14.453125 0.210938 13.476562 0.273438 12.4375 0.296875 C 11.40625 0.328125 10.367188 0.316406 9.328125 0.265625 C 8.296875 0.222656 7.328125 0.164062 6.421875 0.09375 C 5.515625 0.03125 4.734375 -0.0351562 4.078125 -0.109375 C 3.429688 -0.191406 3 -0.269531 2.78125 -0.34375 C 2.78125 -0.34375 2.757812 -0.554688 2.71875 -0.984375 C 2.6875 -1.421875 2.648438 -1.992188 2.609375 -2.703125 C 2.566406 -3.421875 2.539062 -4.207031 2.53125 -5.0625 C 2.519531 -5.914062 2.539062 -6.769531 2.59375 -7.625 C 2.644531 -8.488281 2.742188 -9.273438 2.890625 -9.984375 C 3.035156 -10.703125 3.25 -11.28125 3.53125 -11.71875 Z M 3.53125 -11.71875 "/></g></g></g><g fill="#4c764a" fill-opacity="1"><g transform="translate(115.004581, 52.027894)"><g/></g></g><g fill="#4c764a" fill-opacity="1"><g transform="translate(130.966316, 52.027894)"><g><path d="M 4.375 -38.3125 C 5.675781 -38.625 7.09375 -38.835938 8.625 -38.953125 C 10.164062 -39.066406 11.722656 -39.109375 13.296875 -39.078125 C 14.867188 -39.054688 16.363281 -38.992188 17.78125 -38.890625 C 19.195312 -38.796875 20.441406 -38.695312 21.515625 -38.59375 C 22.585938 -38.5 23.375 -38.425781 23.875 -38.375 C 24.375 -34.050781 24.898438 -29.828125 25.453125 -25.703125 C 26.003906 -21.578125 26.546875 -17.453125 27.078125 -13.328125 C 27.609375 -9.210938 28.078125 -4.984375 28.484375 -0.640625 C 27.867188 -0.640625 27.117188 -0.628906 26.234375 -0.609375 C 25.347656 -0.597656 24.445312 -0.585938 23.53125 -0.578125 C 22.625 -0.578125 21.804688 -0.582031 21.078125 -0.59375 C 20.992188 -0.925781 20.925781 -1.179688 20.875 -1.359375 C 20.820312 -1.546875 20.769531 -1.738281 20.71875 -1.9375 C 20.675781 -2.144531 20.625 -2.453125 20.5625 -2.859375 C 20.507812 -3.265625 20.421875 -3.863281 20.296875 -4.65625 C 20.179688 -5.457031 20.023438 -6.539062 19.828125 -7.90625 L 15.140625 -8.21875 L 14.75 -0.234375 L 2.28125 -0.859375 L 1.40625 -1.84375 C 1.5625 -5.15625 1.742188 -8.347656 1.953125 -11.421875 C 2.171875 -14.503906 2.410156 -17.519531 2.671875 -20.46875 C 2.929688 -23.425781 3.203125 -26.375 3.484375 -29.3125 C 3.773438 -32.257812 4.070312 -35.257812 4.375 -38.3125 Z M 13.65625 -14.859375 L 20.0625 -14.484375 L 19.546875 -22.8125 C 17.992188 -22.914062 16.800781 -22.957031 15.96875 -22.9375 C 15.132812 -22.925781 14.550781 -22.878906 14.21875 -22.796875 C 13.882812 -22.722656 13.6875 -22.644531 13.625 -22.5625 C 13.5625 -22.488281 13.53125 -22.453125 13.53125 -22.453125 Z M 13.65625 -14.859375 "/></g></g></g><g fill="#4c764a" fill-opacity="1"><g transform="translate(160.946394, 52.027894)"><g><path d="M 3.296875 -39.125 C 3.929688 -39.207031 4.804688 -39.253906 5.921875 -39.265625 C 7.035156 -39.273438 8.300781 -39.253906 9.71875 -39.203125 C 11.132812 -39.148438 12.628906 -39.082031 14.203125 -39 C 15.773438 -38.925781 17.34375 -38.832031 18.90625 -38.71875 C 20.476562 -38.601562 21.972656 -38.488281 23.390625 -38.375 C 24.804688 -38.269531 26.070312 -38.164062 27.1875 -38.0625 C 28.300781 -37.957031 29.175781 -37.867188 29.8125 -37.796875 C 29.84375 -37.398438 29.867188 -36.796875 29.890625 -35.984375 C 29.921875 -35.171875 29.945312 -34.238281 29.96875 -33.1875 C 30 -32.132812 30.023438 -31.046875 30.046875 -29.921875 C 30.066406 -28.796875 30.082031 -27.707031 30.09375 -26.65625 C 30.113281 -25.613281 30.128906 -24.691406 30.140625 -23.890625 C 30.148438 -23.097656 30.15625 -22.503906 30.15625 -22.109375 C 30.15625 -22.109375 30.128906 -21.941406 30.078125 -21.609375 C 30.023438 -21.273438 29.957031 -20.867188 29.875 -20.390625 C 29.800781 -19.910156 29.726562 -19.445312 29.65625 -19 C 29.582031 -18.550781 29.535156 -18.195312 29.515625 -17.9375 C 29.503906 -17.675781 29.523438 -17.609375 29.578125 -17.734375 C 29.367188 -17.679688 28.894531 -17.644531 28.15625 -17.625 C 27.414062 -17.613281 26.5 -17.601562 25.40625 -17.59375 C 24.3125 -17.582031 23.144531 -17.566406 21.90625 -17.546875 C 20.664062 -17.535156 19.425781 -17.507812 18.1875 -17.46875 C 16.945312 -17.4375 15.804688 -17.382812 14.765625 -17.3125 C 13.722656 -17.25 12.859375 -17.160156 12.171875 -17.046875 C 11.484375 -16.929688 11.082031 -16.78125 10.96875 -16.59375 C 10.632812 -16.125 10.414062 -15.648438 10.3125 -15.171875 C 10.207031 -14.703125 10.160156 -14.3125 10.171875 -14 C 10.179688 -13.6875 10.1875 -13.53125 10.1875 -13.53125 C 10.1875 -13.53125 10.226562 -13.363281 10.3125 -13.03125 C 10.40625 -12.707031 10.507812 -12.316406 10.625 -11.859375 C 10.75 -11.398438 10.863281 -10.972656 10.96875 -10.578125 C 11.082031 -10.191406 11.164062 -9.945312 11.21875 -9.84375 C 11.289062 -9.726562 11.519531 -9.625 11.90625 -9.53125 C 12.300781 -9.445312 12.757812 -9.378906 13.28125 -9.328125 C 13.8125 -9.273438 14.34375 -9.234375 14.875 -9.203125 C 15.414062 -9.171875 15.878906 -9.148438 16.265625 -9.140625 C 16.648438 -9.128906 16.894531 -9.125 17 -9.125 C 17.9375 -9.125 18.738281 -9.128906 19.40625 -9.140625 C 20.070312 -9.160156 20.675781 -9.1875 21.21875 -9.21875 C 21.757812 -9.257812 22.316406 -9.289062 22.890625 -9.3125 C 23.460938 -9.34375 24.097656 -9.363281 24.796875 -9.375 C 25.492188 -9.394531 26.34375 -9.40625 27.34375 -9.40625 L 27.484375 0.265625 C 26.566406 0.367188 25.503906 0.484375 24.296875 0.609375 C 23.085938 0.734375 21.8125 0.859375 20.46875 0.984375 C 19.125 1.117188 17.78125 1.25 16.4375 1.375 C 15.09375 1.5 13.8125 1.609375 12.59375 1.703125 C 11.375 1.804688 10.285156 1.898438 9.328125 1.984375 C 8.378906 2.078125 7.632812 2.144531 7.09375 2.1875 C 6.550781 2.226562 6.28125 2.25 6.28125 2.25 C 5.476562 0.226562 4.820312 -1.898438 4.3125 -4.140625 C 3.800781 -6.390625 3.398438 -8.664062 3.109375 -10.96875 C 2.816406 -13.300781 2.613281 -15.613281 2.5 -17.90625 C 2.382812 -20.195312 2.335938 -22.390625 2.359375 -24.484375 C 2.378906 -26.585938 2.4375 -28.523438 2.53125 -30.296875 C 2.625 -32.066406 2.726562 -33.613281 2.84375 -34.9375 C 2.96875 -36.257812 3.070312 -37.285156 3.15625 -38.015625 C 3.25 -38.753906 3.296875 -39.125 3.296875 -39.125 Z M 3.296875 -39.125 "/></g></g></g><g fill="#4c764a" fill-opacity="1"><g transform="translate(193.647221, 52.027894)"><g><path d="M 4.375 -38.3125 C 5.675781 -38.625 7.09375 -38.835938 8.625 -38.953125 C 10.164062 -39.066406 11.722656 -39.109375 13.296875 -39.078125 C 14.867188 -39.054688 16.363281 -38.992188 17.78125 -38.890625 C 19.195312 -38.796875 20.441406 -38.695312 21.515625 -38.59375 C 22.585938 -38.5 23.375 -38.425781 23.875 -38.375 C 24.375 -34.050781 24.898438 -29.828125 25.453125 -25.703125 C 26.003906 -21.578125 26.546875 -17.453125 27.078125 -13.328125 C 27.609375 -9.210938 28.078125 -4.984375 28.484375 -0.640625 C 27.867188 -0.640625 27.117188 -0.628906 26.234375 -0.609375 C 25.347656 -0.597656 24.445312 -0.585938 23.53125 -0.578125 C 22.625 -0.578125 21.804688 -0.582031 21.078125 -0.59375 C 20.992188 -0.925781 20.925781 -1.179688 20.875 -1.359375 C 20.820312 -1.546875 20.769531 -1.738281 20.71875 -1.9375 C 20.675781 -2.144531 20.625 -2.453125 20.5625 -2.859375 C 20.507812 -3.265625 20.421875 -3.863281 20.296875 -4.65625 C 20.179688 -5.457031 20.023438 -6.539062 19.828125 -7.90625 L 15.140625 -8.21875 L 14.75 -0.234375 L 2.28125 -0.859375 L 1.40625 -1.84375 C 1.5625 -5.15625 1.742188 -8.347656 1.953125 -11.421875 C 2.171875 -14.503906 2.410156 -17.519531 2.671875 -20.46875 C 2.929688 -23.425781 3.203125 -26.375 3.484375 -29.3125 C 3.773438 -32.257812 4.070312 -35.257812 4.375 -38.3125 Z M 13.65625 -14.859375 L 20.0625 -14.484375 L 19.546875 -22.8125 C 17.992188 -22.914062 16.800781 -22.957031 15.96875 -22.9375 C 15.132812 -22.925781 14.550781 -22.878906 14.21875 -22.796875 C 13.882812 -22.722656 13.6875 -22.644531 13.625 -22.5625 C 13.5625 -22.488281 13.53125 -22.453125 13.53125 -22.453125 Z M 13.65625 -14.859375 "/></g></g></g><g fill="#4c764a" fill-opacity="1"><g transform="translate(223.627299, 52.027894)"><g><path d="M 5 -0.3125 C 5 -0.3125 4.992188 -0.644531 4.984375 -1.3125 C 4.984375 -1.988281 4.976562 -2.921875 4.96875 -4.109375 C 4.957031 -5.296875 4.945312 -6.664062 4.9375 -8.21875 C 4.925781 -9.769531 4.910156 -11.441406 4.890625 -13.234375 C 4.878906 -15.035156 4.867188 -16.878906 4.859375 -18.765625 C 4.847656 -20.648438 4.84375 -22.507812 4.84375 -24.34375 C 4.84375 -26.175781 4.84375 -27.914062 4.84375 -29.5625 C 4.84375 -31.21875 4.84375 -32.695312 4.84375 -34 C 4.84375 -35.300781 4.851562 -36.375 4.875 -37.21875 C 4.894531 -38.070312 4.921875 -38.601562 4.953125 -38.8125 C 5.554688 -38.863281 6.429688 -38.890625 7.578125 -38.890625 C 8.734375 -38.898438 10.054688 -38.867188 11.546875 -38.796875 C 13.046875 -38.734375 14.617188 -38.597656 16.265625 -38.390625 C 17.921875 -38.179688 19.570312 -37.894531 21.21875 -37.53125 C 22.863281 -37.175781 24.410156 -36.707031 25.859375 -36.125 C 27.316406 -35.539062 28.582031 -34.835938 29.65625 -34.015625 C 30.039062 -33.335938 30.390625 -32.472656 30.703125 -31.421875 C 31.023438 -30.378906 31.3125 -29.222656 31.5625 -27.953125 C 31.8125 -26.679688 32.03125 -25.363281 32.21875 -24 C 32.414062 -22.632812 32.570312 -21.285156 32.6875 -19.953125 C 32.8125 -18.628906 32.890625 -17.378906 32.921875 -16.203125 C 32.953125 -14.753906 32.929688 -13.445312 32.859375 -12.28125 C 32.785156 -11.125 32.59375 -10.046875 32.28125 -9.046875 C 31.976562 -8.046875 31.53125 -7.050781 30.9375 -6.0625 C 30.34375 -5.082031 29.550781 -4.03125 28.5625 -2.90625 C 28.320312 -2.613281 27.800781 -2.351562 27 -2.125 C 26.195312 -1.894531 25.210938 -1.691406 24.046875 -1.515625 C 22.878906 -1.347656 21.609375 -1.195312 20.234375 -1.0625 C 18.859375 -0.9375 17.457031 -0.828125 16.03125 -0.734375 C 14.601562 -0.640625 13.234375 -0.566406 11.921875 -0.515625 C 10.609375 -0.460938 9.425781 -0.421875 8.375 -0.390625 C 7.332031 -0.359375 6.507812 -0.335938 5.90625 -0.328125 C 5.300781 -0.316406 5 -0.3125 5 -0.3125 Z M 12.625 -9.40625 L 18.765625 -9.046875 C 19.003906 -9.441406 19.210938 -10.050781 19.390625 -10.875 C 19.566406 -11.707031 19.707031 -12.648438 19.8125 -13.703125 C 19.914062 -14.765625 19.972656 -15.859375 19.984375 -16.984375 C 20.003906 -18.117188 19.972656 -19.203125 19.890625 -20.234375 C 19.816406 -21.273438 19.6875 -22.1875 19.5 -22.96875 C 19.320312 -23.75 19.078125 -24.300781 18.765625 -24.625 C 18.597656 -24.625 18.273438 -24.609375 17.796875 -24.578125 C 17.316406 -24.554688 16.78125 -24.53125 16.1875 -24.5 C 15.59375 -24.46875 15.015625 -24.429688 14.453125 -24.390625 C 13.890625 -24.359375 13.421875 -24.328125 13.046875 -24.296875 C 12.679688 -24.273438 12.5 -24.265625 12.5 -24.265625 C 12.5 -24.265625 12.488281 -24.03125 12.46875 -23.5625 C 12.445312 -23.09375 12.425781 -22.460938 12.40625 -21.671875 C 12.394531 -20.890625 12.378906 -20.015625 12.359375 -19.046875 C 12.347656 -18.085938 12.34375 -17.101562 12.34375 -16.09375 C 12.34375 -15.09375 12.347656 -14.140625 12.359375 -13.234375 C 12.378906 -12.328125 12.410156 -11.535156 12.453125 -10.859375 C 12.492188 -10.179688 12.550781 -9.695312 12.625 -9.40625 Z M 12.625 -9.40625 "/></g></g></g><g fill="#4c764a" fill-opacity="1"><g transform="translate(258.997053, 52.027894)"><g><path d="M 29.765625 -28.875 C 29.765625 -28.875 29.613281 -28.859375 29.3125 -28.828125 C 29.007812 -28.804688 28.4375 -28.757812 27.59375 -28.6875 C 26.757812 -28.625 25.535156 -28.546875 23.921875 -28.453125 C 22.316406 -28.367188 20.203125 -28.257812 17.578125 -28.125 C 17.578125 -28.125 17.566406 -27.90625 17.546875 -27.46875 C 17.535156 -27.039062 17.539062 -26.46875 17.5625 -25.75 C 17.59375 -25.039062 17.671875 -24.269531 17.796875 -23.4375 C 17.921875 -22.601562 18.125 -21.78125 18.40625 -20.96875 L 25.125 -21 C 25.125 -21 25.28125 -21.003906 25.59375 -21.015625 C 25.914062 -21.023438 26.285156 -21.03125 26.703125 -21.03125 C 27.128906 -21.039062 27.503906 -21.050781 27.828125 -21.0625 C 28.148438 -21.070312 28.300781 -21.085938 28.28125 -21.109375 C 28.269531 -21.117188 28.285156 -20.992188 28.328125 -20.734375 C 28.367188 -20.472656 28.414062 -20.171875 28.46875 -19.828125 C 28.519531 -19.484375 28.566406 -19.179688 28.609375 -18.921875 C 28.648438 -18.660156 28.671875 -18.53125 28.671875 -18.53125 L 28.671875 -15.328125 C 28.671875 -15.328125 27.597656 -15.269531 25.453125 -15.15625 C 23.316406 -15.039062 20.128906 -14.96875 15.890625 -14.9375 L 15.703125 -8.375 L 16.359375 -7.671875 L 29.015625 -7.5625 C 29.015625 -7.5625 28.898438 -7.570312 28.671875 -7.59375 C 28.441406 -7.625 28.3125 -7.648438 28.28125 -7.671875 C 28.269531 -7.691406 28.363281 -7.632812 28.5625 -7.5 C 28.757812 -7.375 28.957031 -7.242188 29.15625 -7.109375 C 29.351562 -6.984375 29.453125 -6.921875 29.453125 -6.921875 L 29.703125 0.4375 C 29.703125 0.4375 29.738281 0.425781 29.8125 0.40625 C 29.882812 0.394531 29.882812 0.378906 29.8125 0.359375 C 29.738281 0.347656 29.5 0.335938 29.09375 0.328125 C 28.6875 0.316406 28.015625 0.304688 27.078125 0.296875 C 26.140625 0.285156 24.820312 0.289062 23.125 0.3125 C 21.019531 0.332031 19.050781 0.316406 17.21875 0.265625 C 15.382812 0.222656 13.765625 0.164062 12.359375 0.09375 C 10.960938 0.03125 9.835938 -0.03125 8.984375 -0.09375 C 8.140625 -0.164062 7.648438 -0.222656 7.515625 -0.265625 C 7.328125 -0.316406 7.140625 -0.5 6.953125 -0.8125 C 6.773438 -1.132812 6.59375 -1.535156 6.40625 -2.015625 C 6.226562 -2.503906 6.046875 -3 5.859375 -3.5 C 5.722656 -3.894531 5.597656 -4.609375 5.484375 -5.640625 C 5.367188 -6.679688 5.273438 -7.941406 5.203125 -9.421875 C 5.140625 -10.898438 5.082031 -12.507812 5.03125 -14.25 C 4.976562 -16 4.941406 -17.78125 4.921875 -19.59375 C 4.910156 -21.414062 4.898438 -23.171875 4.890625 -24.859375 C 4.878906 -26.554688 4.878906 -28.101562 4.890625 -29.5 C 4.898438 -30.90625 4.90625 -32.054688 4.90625 -32.953125 C 4.914062 -33.847656 4.929688 -34.398438 4.953125 -34.609375 C 4.984375 -35.160156 5.082031 -35.722656 5.25 -36.296875 C 5.425781 -36.878906 5.597656 -37.363281 5.765625 -37.75 C 5.929688 -38.144531 6.015625 -38.34375 6.015625 -38.34375 L 28.265625 -38.90625 L 29.890625 -38.8125 C 29.890625 -38.8125 29.921875 -38.597656 29.984375 -38.171875 C 30.054688 -37.742188 30.128906 -37.179688 30.203125 -36.484375 C 30.285156 -35.785156 30.335938 -35 30.359375 -34.125 C 30.390625 -33.257812 30.363281 -32.367188 30.28125 -31.453125 C 30.195312 -30.546875 30.023438 -29.6875 29.765625 -28.875 Z M 29.765625 -28.875 "/></g></g></g><g fill="#4c764a" fill-opacity="1"><g transform="translate(293.537626, 52.027894)"><g><path d="M 21.078125 -30.515625 L 25.140625 -37.078125 L 26.4375 -37.46875 C 26.4375 -37.46875 26.78125 -37.46875 27.46875 -37.46875 C 28.164062 -37.476562 29.085938 -37.441406 30.234375 -37.359375 C 31.390625 -37.273438 32.660156 -37.066406 34.046875 -36.734375 C 34.078125 -36.734375 34.09375 -36.382812 34.09375 -35.6875 C 34.101562 -35 34.101562 -34.054688 34.09375 -32.859375 C 34.09375 -31.660156 34.070312 -30.273438 34.03125 -28.703125 C 34 -27.140625 33.96875 -25.460938 33.9375 -23.671875 C 33.90625 -21.890625 33.863281 -20.066406 33.8125 -18.203125 C 33.769531 -16.335938 33.726562 -14.507812 33.6875 -12.71875 C 33.644531 -10.925781 33.601562 -9.25 33.5625 -7.6875 C 33.519531 -6.125 33.476562 -4.742188 33.4375 -3.546875 C 33.40625 -2.359375 33.378906 -1.421875 33.359375 -0.734375 C 33.347656 -0.0546875 33.34375 0.28125 33.34375 0.28125 L 26.203125 0.78125 L 26 -12.625 L 20.265625 -8.34375 L 15.03125 -15.578125 C 15.03125 -15.578125 15.039062 -15.347656 15.0625 -14.890625 C 15.082031 -14.429688 15.097656 -13.835938 15.109375 -13.109375 C 15.128906 -12.390625 15.148438 -11.613281 15.171875 -10.78125 C 15.203125 -9.957031 15.222656 -9.164062 15.234375 -8.40625 C 15.253906 -7.644531 15.273438 -7.003906 15.296875 -6.484375 C 15.316406 -5.960938 15.328125 -5.648438 15.328125 -5.546875 C 15.328125 -5.441406 15.320312 -5.164062 15.3125 -4.71875 C 15.300781 -4.28125 15.289062 -3.765625 15.28125 -3.171875 C 15.269531 -2.578125 15.253906 -2 15.234375 -1.4375 C 15.222656 -0.875 15.210938 -0.398438 15.203125 -0.015625 C 15.191406 0.359375 15.1875 0.546875 15.1875 0.546875 L 14.359375 0.796875 L 5.984375 0.265625 L 5.109375 -0.9375 C 5.003906 -2.332031 4.921875 -3.9375 4.859375 -5.75 C 4.796875 -7.570312 4.75 -9.507812 4.71875 -11.5625 C 4.6875 -13.613281 4.671875 -15.703125 4.671875 -17.828125 C 4.671875 -19.960938 4.675781 -22.046875 4.6875 -24.078125 C 4.707031 -26.117188 4.726562 -28.035156 4.75 -29.828125 C 4.78125 -31.617188 4.804688 -33.191406 4.828125 -34.546875 C 4.859375 -35.898438 4.878906 -36.960938 4.890625 -37.734375 C 4.910156 -38.503906 4.921875 -38.890625 4.921875 -38.890625 L 6.21875 -39.28125 C 6.21875 -39.28125 6.429688 -39.300781 6.859375 -39.34375 C 7.285156 -39.382812 7.835938 -39.410156 8.515625 -39.421875 C 9.203125 -39.441406 9.953125 -39.429688 10.765625 -39.390625 C 11.578125 -39.347656 12.378906 -39.25 13.171875 -39.09375 C 13.960938 -38.9375 14.671875 -38.6875 15.296875 -38.34375 Z M 21.078125 -30.515625 "/></g></g></g><g fill="#4c764a" fill-opacity="1"><g transform="translate(330.980334, 52.027894)"><g><path d="M 20.125 -0.5 L 13.5 -1.296875 L 12.625 -2.484375 C 12.46875 -4.398438 12.367188 -6.257812 12.328125 -8.0625 C 12.285156 -9.863281 12.269531 -11.53125 12.28125 -13.0625 C 12.300781 -14.601562 12.332031 -15.9375 12.375 -17.0625 C 12.414062 -18.195312 12.460938 -19.066406 12.515625 -19.671875 L 12.46875 -19.8125 C 11.4375 -21.207031 10.410156 -22.570312 9.390625 -23.90625 C 8.378906 -25.25 7.425781 -26.503906 6.53125 -27.671875 C 5.644531 -28.835938 4.859375 -29.867188 4.171875 -30.765625 C 3.484375 -31.671875 2.941406 -32.375 2.546875 -32.875 C 2.160156 -33.375 1.96875 -33.625 1.96875 -33.625 L 2.78125 -34.71875 C 2.78125 -34.71875 3 -34.890625 3.4375 -35.234375 C 3.875 -35.578125 4.53125 -36.015625 5.40625 -36.546875 C 6.289062 -37.085938 7.382812 -37.644531 8.6875 -38.21875 C 8.71875 -38.226562 8.925781 -37.976562 9.3125 -37.46875 C 9.707031 -36.957031 10.238281 -36.25 10.90625 -35.34375 C 11.570312 -34.4375 12.335938 -33.378906 13.203125 -32.171875 C 14.078125 -30.960938 15.015625 -29.660156 16.015625 -28.265625 C 17.421875 -30.546875 18.660156 -32.515625 19.734375 -34.171875 C 20.804688 -35.828125 21.644531 -37.101562 22.25 -38 C 22.863281 -38.90625 23.171875 -39.359375 23.171875 -39.359375 L 24.5 -39.015625 C 24.5 -39.015625 24.757812 -38.867188 25.28125 -38.578125 C 25.8125 -38.296875 26.492188 -37.910156 27.328125 -37.421875 C 28.171875 -36.941406 29.078125 -36.398438 30.046875 -35.796875 C 31.015625 -35.191406 31.941406 -34.566406 32.828125 -33.921875 C 33.722656 -33.285156 34.484375 -32.675781 35.109375 -32.09375 C 35.117188 -32.070312 34.929688 -31.847656 34.546875 -31.421875 C 34.171875 -31.003906 33.65625 -30.4375 33 -29.71875 C 32.34375 -29 31.585938 -28.1875 30.734375 -27.28125 C 29.878906 -26.375 28.976562 -25.421875 28.03125 -24.421875 C 27.09375 -23.421875 26.144531 -22.425781 25.1875 -21.4375 C 24.238281 -20.457031 23.34375 -19.53125 22.5 -18.65625 C 21.65625 -17.78125 20.90625 -17.023438 20.25 -16.390625 C 20.21875 -15.734375 20.191406 -14.890625 20.171875 -13.859375 C 20.148438 -12.828125 20.132812 -11.710938 20.125 -10.515625 C 20.125 -9.328125 20.117188 -8.140625 20.109375 -6.953125 C 20.097656 -5.773438 20.097656 -4.695312 20.109375 -3.71875 C 20.117188 -2.738281 20.125 -1.957031 20.125 -1.375 C 20.125 -0.789062 20.125 -0.5 20.125 -0.5 Z M 20.125 -0.5 "/></g></g></g></g></g></svg>