<svg xmlns="http://www.w3.org/2000/svg" xmlns:xlink="http://www.w3.org/1999/xlink" width="200" zoomAndPan="magnify" viewBox="0 0 150 149.999998" height="200" preserveAspectRatio="xMidYMid meet" version="1.0"><defs><clipPath id="24d860f8a2"><path d="M 1.742188 101.0625 L 149.957031 101.0625 L 149.957031 140.15625 L 1.742188 140.15625 Z M 1.742188 101.0625 " clip-rule="nonzero"/></clipPath><clipPath id="2417de5828"><path d="M 80 9.65625 L 86 9.65625 L 86 27 L 80 27 Z M 80 9.65625 " clip-rule="nonzero"/></clipPath><clipPath id="96f907674b"><path d="M 64 9.65625 L 70 9.65625 L 70 26 L 64 26 Z M 64 9.65625 " clip-rule="nonzero"/></clipPath></defs><g clip-path="url(#24d860f8a2)"><path fill="#f08d1e" d="M 82.65625 132.175781 L 81.601562 133.726562 C 80.296875 135.640625 78.148438 136.785156 75.847656 136.785156 C 73.550781 136.785156 71.398438 135.640625 70.09375 133.726562 L 69.039062 132.175781 L 8.734375 132.175781 L 12.109375 127.566406 L 16.035156 127.644531 C 16.523438 127.65625 17 127.660156 17.472656 127.660156 C 27.550781 127.660156 34.445312 125.585938 41.113281 123.585938 C 45.234375 122.34375 49.128906 121.175781 53.636719 120.558594 C 54.691406 120.414062 55.753906 120.34375 56.800781 120.34375 C 66.753906 120.34375 73.210938 126.980469 73.273438 127.046875 L 75.847656 129.746094 L 78.425781 127.046875 C 78.488281 126.980469 84.945312 120.34375 94.898438 120.34375 C 95.941406 120.34375 97.007812 120.414062 98.0625 120.558594 C 102.570312 121.175781 106.460938 122.34375 110.585938 123.585938 C 117.253906 125.585938 124.148438 127.660156 134.222656 127.660156 C 134.695312 127.660156 135.175781 127.65625 135.664062 127.644531 L 139.585938 127.566406 L 142.964844 132.175781 Z M 141.210938 123.78125 L 118.769531 101.089844 L 116.035156 101.089844 L 135.59375 124.097656 C 118.914062 124.425781 111.046875 118.757812 98.542969 117.046875 C 84.714844 115.15625 75.847656 124.609375 75.847656 124.609375 C 75.847656 124.609375 66.984375 115.15625 53.15625 117.046875 C 40.652344 118.757812 32.785156 124.425781 16.105469 124.097656 L 35.664062 101.089844 L 32.929688 101.089844 L 10.488281 123.78125 L 1.742188 135.722656 L 67.164062 135.722656 C 69.054688 138.5 72.234375 140.332031 75.847656 140.332031 C 79.464844 140.332031 82.640625 138.5 84.535156 135.722656 L 149.957031 135.722656 L 141.210938 123.78125 " fill-opacity="1" fill-rule="nonzero"/></g><path fill="#f08d1e" d="M 14.726562 130.375 C 14.335938 130.375 14.019531 130.054688 14.019531 129.664062 C 14.019531 129.273438 14.335938 128.953125 14.726562 128.953125 C 28.222656 128.953125 38.152344 126.472656 44.449219 124.601562 L 44.660156 124.542969 C 49.554688 123.089844 54.175781 121.71875 59.378906 122.808594 C 66.253906 124.242188 71.351562 128.496094 71.5625 128.679688 C 71.863281 128.929688 71.898438 129.378906 71.648438 129.675781 C 71.394531 129.976562 70.949219 130.015625 70.648438 129.761719 C 70.597656 129.71875 65.601562 125.554688 59.089844 124.195312 C 54.234375 123.179688 49.78125 124.503906 45.0625 125.902344 L 44.851562 125.960938 C 38.472656 127.855469 28.40625 130.375 14.726562 130.375 " fill-opacity="1" fill-rule="nonzero"/><path fill="#f08d1e" d="M 34.496094 131.082031 C 34.101562 131.082031 33.785156 130.765625 33.785156 130.375 C 33.785156 129.980469 34.101562 129.664062 34.496094 129.664062 C 34.519531 129.664062 37.328125 129.605469 45.972656 126.960938 C 49.835938 125.777344 53.972656 124.703125 58.324219 125.609375 C 62.976562 126.582031 66.484375 128.980469 66.632812 129.078125 C 66.957031 129.300781 67.035156 129.742188 66.8125 130.066406 C 66.589844 130.386719 66.148438 130.46875 65.828125 130.246094 C 65.792969 130.226562 62.398438 127.910156 58.035156 127 C 54.007812 126.15625 50.226562 127.140625 46.386719 128.316406 C 37.453125 131.050781 34.613281 131.082031 34.496094 131.082031 " fill-opacity="1" fill-rule="nonzero"/><path fill="#f08d1e" d="M 49.917969 130.375 C 49.617188 130.375 49.335938 130.179688 49.242188 129.875 C 49.125 129.5 49.335938 129.105469 49.707031 128.988281 C 55.660156 127.125 59.789062 128.9375 59.960938 129.015625 C 60.320312 129.179688 60.476562 129.597656 60.316406 129.957031 C 60.15625 130.3125 59.738281 130.46875 59.378906 130.308594 C 59.34375 130.292969 55.539062 128.648438 50.132812 130.339844 C 50.0625 130.363281 49.988281 130.375 49.917969 130.375 " fill-opacity="1" fill-rule="nonzero"/><path fill="#f08d1e" d="M 136.96875 130.375 C 123.289062 130.375 113.222656 127.855469 106.84375 125.960938 L 106.632812 125.902344 C 101.917969 124.503906 97.460938 123.179688 92.605469 124.195312 C 86.082031 125.558594 81.097656 129.71875 81.050781 129.761719 C 80.75 130.015625 80.300781 129.976562 80.050781 129.679688 C 79.796875 129.378906 79.835938 128.929688 80.132812 128.679688 C 80.347656 128.496094 85.445312 124.242188 92.316406 122.808594 C 97.519531 121.71875 102.144531 123.089844 107.039062 124.542969 L 107.246094 124.601562 C 113.542969 126.472656 123.472656 128.953125 136.96875 128.953125 C 137.363281 128.953125 137.679688 129.273438 137.679688 129.664062 C 137.679688 130.054688 137.363281 130.375 136.96875 130.375 " fill-opacity="1" fill-rule="nonzero"/><path fill="#f08d1e" d="M 117.203125 131.082031 C 117.085938 131.082031 114.246094 131.050781 105.3125 128.316406 C 101.46875 127.144531 97.6875 126.15625 93.664062 127 C 89.300781 127.910156 85.902344 130.226562 85.871094 130.246094 C 85.546875 130.46875 85.105469 130.386719 84.882812 130.066406 C 84.660156 129.742188 84.742188 129.300781 85.066406 129.078125 C 85.210938 128.980469 88.71875 126.582031 93.375 125.609375 C 97.722656 124.703125 101.863281 125.78125 105.726562 126.960938 C 114.371094 129.605469 117.179688 129.664062 117.207031 129.664062 C 117.597656 129.667969 117.910156 129.984375 117.910156 130.375 C 117.90625 130.765625 117.59375 131.082031 117.203125 131.082031 " fill-opacity="1" fill-rule="nonzero"/><path fill="#f08d1e" d="M 101.777344 130.375 C 101.707031 130.375 101.636719 130.363281 101.566406 130.339844 C 96.125 128.636719 92.355469 130.292969 92.320312 130.308594 C 91.960938 130.472656 91.542969 130.3125 91.382812 129.957031 C 91.21875 129.597656 91.378906 129.179688 91.734375 129.015625 C 91.90625 128.9375 96.039062 127.125 101.988281 128.988281 C 102.363281 129.105469 102.570312 129.5 102.453125 129.875 C 102.359375 130.179688 102.078125 130.375 101.777344 130.375 " fill-opacity="1" fill-rule="nonzero"/><path fill="#4c764a" d="M 65.351562 48.339844 C 64.796875 50.6875 64.578125 53.453125 65.835938 55.800781 C 66.890625 57.777344 69.277344 58.988281 70.105469 61.164062 C 70.105469 61.164062 70.117188 57.964844 67.398438 54.800781 C 67.398438 54.800781 69.933594 57.03125 70.480469 60.519531 C 70.875 59.554688 71.113281 57.707031 70.265625 54.578125 C 69.890625 53.210938 68.914062 52.21875 67.898438 51.332031 C 66.929688 50.488281 65.808594 49.574219 65.351562 48.339844 " fill-opacity="1" fill-rule="nonzero"/><path fill="#4c764a" d="M 54.726562 55.246094 C 54.734375 58.191406 55.257812 61.539062 57.421875 63.972656 C 59.238281 66.019531 62.417969 66.78125 64.023438 69.128906 C 64.023438 69.128906 63.125 65.328125 58.996094 62.339844 C 58.996094 62.339844 62.640625 64.269531 64.28125 68.257812 C 64.476562 66.996094 64.238281 64.734375 62.335938 61.257812 C 61.503906 59.738281 60.0625 58.839844 58.601562 58.074219 C 57.210938 57.347656 55.621094 56.578125 54.726562 55.246094 " fill-opacity="1" fill-rule="nonzero"/><path fill="#4c764a" d="M 99.027344 69.59375 C 100.933594 69.175781 102.339844 67.660156 103.601562 66.066406 C 104.804688 64.546875 106.109375 62.777344 107.832031 62.191406 C 104.605469 60.878906 100.789062 60.070312 97.496094 61.847656 C 94.722656 63.34375 92.960938 67.222656 89.921875 68.296875 C 89.921875 68.296875 94.34375 68.816406 98.820312 64.675781 C 98.820312 64.675781 95.644531 68.644531 90.804688 69.035156 C 92.125 69.859375 94.671875 70.558594 99.027344 69.59375 " fill-opacity="1" fill-rule="nonzero"/><path fill="#4c764a" d="M 99.417969 75.21875 C 96.316406 75.046875 93.089844 77.480469 89.929688 76.796875 C 89.929688 76.796875 93.644531 79.601562 99.394531 78.382812 C 99.394531 78.382812 94.871094 80.144531 90.398438 77.90625 C 91.222656 79.324219 93.1875 81.289062 97.476562 82.765625 C 99.351562 83.414062 101.25 82.847656 103.054688 82.132812 C 104.773438 81.449219 106.6875 80.609375 108.472656 81.015625 C 106.160156 78.160156 103.109375 75.429688 99.417969 75.21875 " fill-opacity="1" fill-rule="nonzero"/><path fill="#4c764a" d="M 85.191406 63.3125 C 86.679688 63.203125 89.109375 62.246094 92.210938 58.785156 C 93.570312 57.269531 93.984375 55.136719 94.242188 53.023438 C 94.488281 51.007812 94.695312 48.71875 95.820312 47.175781 C 92.535156 48.03125 89.011719 49.667969 87.171875 53.171875 C 85.628906 56.121094 86.078125 60.46875 84.109375 63.222656 C 84.109375 63.222656 87.992188 60.972656 89.640625 54.753906 C 89.640625 54.753906 88.976562 60.039062 85.191406 63.3125 " fill-opacity="1" fill-rule="nonzero"/><path fill="#4c764a" d="M 78.160156 39.8125 C 76.003906 42.828125 74.078125 46.632812 74.496094 50.710938 C 74.847656 54.140625 77.539062 57.253906 77.449219 60.832031 C 77.449219 60.832031 79.328125 56.289062 77.308594 50.199219 C 77.308594 50.199219 79.609375 54.847656 78.355469 60.128906 C 79.480469 58.988281 80.902344 56.5 81.515625 51.550781 C 81.78125 49.386719 80.96875 47.40625 80.039062 45.554688 C 79.152344 43.789062 78.09375 41.832031 78.160156 39.8125 " fill-opacity="1" fill-rule="nonzero"/><path fill="#4c764a" d="M 85.730469 42.773438 C 85.730469 42.773438 88.316406 39.882812 88.246094 34.414062 C 88.246094 34.414062 88.890625 38.855469 86.613281 42.542969 C 87.769531 42.042969 89.488281 40.597656 91.183594 36.949219 C 91.925781 35.351562 91.78125 33.515625 91.515625 31.742188 C 91.261719 30.050781 90.917969 28.148438 91.472656 26.59375 C 89.046875 28.191406 86.609375 30.488281 85.929688 33.824219 C 85.359375 36.625 86.683594 40.007812 85.730469 42.773438 " fill-opacity="1" fill-rule="nonzero"/><path fill="#4c764a" d="M 76.425781 25.667969 C 76.128906 24.136719 75.738281 22.421875 76.179688 20.972656 C 74.039062 22.554688 71.914062 24.769531 71.429688 27.847656 C 71.019531 30.429688 72.359375 33.449219 71.605469 36.015625 C 71.605469 36.015625 73.84375 33.253906 73.558594 28.265625 C 73.558594 28.265625 74.324219 32.289062 72.398438 35.761719 C 73.433594 35.25 74.9375 33.847656 76.332031 30.429688 C 76.945312 28.9375 76.742188 27.269531 76.425781 25.667969 " fill-opacity="1" fill-rule="nonzero"/><g clip-path="url(#2417de5828)"><path fill="#4c764a" d="M 85.640625 14.800781 C 85.3125 13.121094 84.886719 11.242188 85.367188 9.65625 C 83.023438 11.386719 80.691406 13.820312 80.160156 17.191406 C 79.714844 20.023438 81.183594 23.332031 80.359375 26.148438 C 80.359375 26.148438 82.808594 23.117188 82.496094 17.652344 C 82.496094 17.652344 83.332031 22.058594 81.222656 25.871094 C 82.355469 25.308594 84.007812 23.769531 85.539062 20.023438 C 86.207031 18.386719 85.984375 16.5625 85.640625 14.800781 " fill-opacity="1" fill-rule="nonzero"/></g><path fill="#4c764a" d="M 111.3125 47.996094 C 108.496094 47.480469 105.273438 47.476562 102.835938 49.511719 C 100.785156 51.226562 99.886719 54.722656 97.5625 56.136719 C 97.5625 56.136719 101.242188 55.792969 104.3125 51.609375 C 104.3125 51.609375 102.277344 55.425781 98.382812 56.589844 C 99.574219 57.039062 101.75 57.167969 105.167969 55.617188 C 106.660156 54.9375 107.597656 53.449219 108.402344 51.917969 C 109.171875 50.457031 109.988281 48.777344 111.3125 47.996094 " fill-opacity="1" fill-rule="nonzero"/><path fill="#4c764a" d="M 101.277344 32.871094 C 101.277344 32.871094 100.546875 37.265625 97.273438 39.851562 C 98.519531 39.820312 100.589844 39.117188 103.300781 36.347656 C 104.488281 35.132812 104.90625 33.367188 105.1875 31.609375 C 105.457031 29.933594 105.707031 28.03125 106.703125 26.785156 C 103.917969 27.367188 100.914062 28.59375 99.261719 31.449219 C 97.871094 33.855469 98.105469 37.507812 96.367188 39.734375 C 96.367188 39.734375 99.691406 38.007812 101.277344 32.871094 " fill-opacity="1" fill-rule="nonzero"/><path fill="#4c764a" d="M 97.082031 20.183594 C 97.082031 20.183594 96.480469 23.789062 93.792969 25.910156 C 94.816406 25.886719 96.515625 25.308594 98.742188 23.035156 C 99.714844 22.039062 100.058594 20.585938 100.292969 19.144531 C 100.515625 17.769531 100.71875 16.203125 101.535156 15.183594 C 99.25 15.660156 96.78125 16.667969 95.425781 19.015625 C 94.285156 20.988281 94.476562 23.988281 93.050781 25.816406 C 93.050781 25.816406 95.78125 24.398438 97.082031 20.183594 " fill-opacity="1" fill-rule="nonzero"/><path fill="#4c764a" d="M 110.765625 66.808594 C 108.488281 68.121094 107.097656 71.402344 104.589844 72.371094 C 104.589844 72.371094 108.28125 72.695312 111.925781 69.132812 C 111.925781 69.132812 109.359375 72.519531 105.335938 72.964844 C 106.453125 73.621094 108.585938 74.140625 112.195312 73.230469 C 113.773438 72.832031 114.917969 71.535156 115.933594 70.175781 C 116.90625 68.875 117.957031 67.371094 119.382812 66.839844 C 116.667969 65.824219 113.472656 65.246094 110.765625 66.808594 " fill-opacity="1" fill-rule="nonzero"/><path fill="#4c764a" d="M 116.125 51.285156 C 113.847656 52.601562 112.453125 55.878906 109.949219 56.851562 C 109.949219 56.851562 113.640625 57.171875 117.285156 53.609375 C 117.285156 53.609375 114.71875 57 110.695312 57.441406 C 111.8125 58.097656 113.945312 58.617188 117.554688 57.707031 C 119.132812 57.308594 120.273438 56.011719 121.292969 54.652344 C 122.265625 53.355469 123.316406 51.847656 124.738281 51.316406 C 122.027344 50.304688 118.832031 49.722656 116.125 51.285156 " fill-opacity="1" fill-rule="nonzero"/><path fill="#4c764a" d="M 112.027344 40.25 C 112.027344 40.25 109.460938 43.636719 105.4375 44.082031 C 106.554688 44.738281 108.6875 45.257812 112.296875 44.347656 C 113.875 43.945312 115.019531 42.652344 116.035156 41.292969 C 117.007812 39.992188 118.058594 38.488281 119.480469 37.957031 C 116.769531 36.941406 113.578125 36.363281 110.867188 37.925781 C 108.589844 39.238281 107.199219 42.515625 104.691406 43.488281 C 104.691406 43.488281 108.382812 43.8125 112.027344 40.25 " fill-opacity="1" fill-rule="nonzero"/><path fill="#4c764a" d="M 58.070312 70.847656 C 54.878906 70.390625 52.390625 66.933594 49.378906 66.011719 C 45.796875 64.917969 42.214844 66.464844 39.3125 68.382812 C 41.113281 68.621094 42.742188 70.097656 44.21875 71.351562 C 45.769531 72.664062 47.449219 73.875 49.398438 73.910156 C 53.859375 74 56.21875 72.8125 57.351562 71.742188 C 52.527344 72.316406 48.632812 69.046875 48.632812 69.046875 C 53.835938 72.226562 58.070312 70.847656 58.070312 70.847656 " fill-opacity="1" fill-rule="nonzero"/><path fill="#4c764a" d="M 60.210938 77.550781 C 57.613281 78.222656 54.859375 76.316406 52.296875 76.566406 C 49.246094 76.867188 46.8125 79.234375 44.996094 81.675781 C 46.457031 81.277344 48.074219 81.910156 49.523438 82.417969 C 51.039062 82.949219 52.628906 83.351562 54.164062 82.75 C 57.664062 81.378906 59.226562 79.6875 59.859375 78.484375 C 56.230469 80.488281 52.425781 79.183594 52.425781 79.183594 C 57.230469 79.996094 60.210938 77.550781 60.210938 77.550781 " fill-opacity="1" fill-rule="nonzero"/><path fill="#4c764a" d="M 52.816406 58.695312 C 51.175781 56.492188 51.421875 53.03125 50.117188 50.671875 C 48.5625 47.867188 45.714844 46.539062 43.074219 45.835938 C 44.011719 47.070312 44.238281 48.894531 44.484375 50.5 C 44.742188 52.1875 45.128906 53.886719 46.25 55.105469 C 48.808594 57.882812 50.769531 58.664062 51.957031 58.761719 C 48.859375 56.125 48.191406 51.914062 48.191406 51.914062 C 49.667969 56.878906 52.816406 58.695312 52.816406 58.695312 " fill-opacity="1" fill-rule="nonzero"/><path fill="#4c764a" d="M 61.117188 48.355469 C 59.691406 46.203125 60.074219 42.992188 58.960938 40.71875 C 57.640625 38.015625 55.035156 36.613281 52.601562 35.808594 C 53.421875 37.015625 53.550781 38.726562 53.707031 40.238281 C 53.871094 41.824219 54.15625 43.433594 55.144531 44.628906 C 57.414062 47.367188 59.210938 48.207031 60.3125 48.363281 C 57.539062 45.730469 57.105469 41.765625 57.105469 41.765625 C 58.261719 46.480469 61.117188 48.355469 61.117188 48.355469 " fill-opacity="1" fill-rule="nonzero"/><path fill="#4c764a" d="M 42.078125 27.664062 C 44.496094 29.714844 46.222656 30.144531 47.226562 30.085938 C 44.375 28.222656 43.414062 24.734375 43.414062 24.734375 C 45.125 28.761719 47.945312 29.933594 47.945312 29.933594 C 46.359375 28.257812 46.238281 25.300781 44.914062 23.460938 C 43.34375 21.269531 40.820312 20.480469 38.53125 20.199219 C 39.4375 21.132812 39.800781 22.648438 40.160156 23.976562 C 40.535156 25.375 41.023438 26.769531 42.078125 27.664062 " fill-opacity="1" fill-rule="nonzero"/><path fill="#4c764a" d="M 27.441406 36.75 C 28.066406 38.035156 28.792969 39.296875 29.988281 39.9375 C 32.722656 41.402344 34.480469 41.429688 35.449219 41.140625 C 32.328125 39.960938 30.75 36.753906 30.75 36.753906 C 33.15625 40.320312 36.121094 40.828125 36.121094 40.828125 C 34.265625 39.542969 33.605469 36.660156 31.980469 35.152344 C 30.046875 33.359375 27.445312 33.160156 25.164062 33.402344 C 26.21875 34.117188 26.847656 35.523438 27.441406 36.75 " fill-opacity="1" fill-rule="nonzero"/><path fill="#4c764a" d="M 54.945312 27.667969 C 53.1875 24.113281 54.066406 20.273438 54.066406 20.273438 C 53.621094 25.09375 55.703125 27.984375 55.703125 27.984375 C 55.054688 25.417969 56.460938 22.605469 56.148438 20.054688 C 55.78125 17.023438 53.785156 14.675781 51.757812 12.949219 C 52.136719 14.394531 51.703125 16.027344 51.359375 17.492188 C 51.003906 19.023438 50.75 20.625 51.292969 22.132812 C 52.539062 25.574219 53.957031 27.078125 54.945312 27.667969 " fill-opacity="1" fill-rule="nonzero"/><g clip-path="url(#96f907674b)"><path fill="#4c764a" d="M 67.351562 25.410156 C 67.414062 22.761719 69.511719 20.5625 69.894531 18.042969 C 70.347656 15.042969 69.054688 12.15625 67.566406 9.84375 C 67.546875 11.34375 66.691406 12.746094 65.976562 14.019531 C 65.222656 15.351562 64.550781 16.785156 64.671875 18.394531 C 64.949219 22.078125 65.914062 23.96875 66.707031 24.859375 C 65.964844 20.90625 67.832031 17.558594 67.832031 17.558594 C 66.121094 21.980469 67.351562 25.410156 67.351562 25.410156 " fill-opacity="1" fill-rule="nonzero"/></g><path fill="#4c764a" d="M 67.152344 34.410156 C 66.199219 31.121094 63.582031 28.957031 61.03125 27.492188 C 61.710938 29.011719 61.523438 30.929688 61.410156 32.628906 C 61.289062 34.414062 61.296875 36.25 62.167969 37.808594 C 64.160156 41.359375 65.992188 42.710938 67.191406 43.148438 C 64.613281 39.589844 64.894531 35.121094 64.894531 35.121094 C 65.269531 40.582031 68.085938 43.328125 68.085938 43.328125 C 66.910156 40.621094 67.953125 37.179688 67.152344 34.410156 " fill-opacity="1" fill-rule="nonzero"/><path fill="#4c764a" d="M 40.378906 55.71875 C 37.589844 54.203125 34.429688 54.835938 31.769531 55.898438 C 33.21875 56.40625 34.351562 57.890625 35.394531 59.171875 C 36.484375 60.515625 37.695312 61.789062 39.292969 62.160156 C 42.949219 63.011719 45.054688 62.453125 46.136719 61.78125 C 42.089844 61.40625 39.34375 58.0625 39.34375 58.0625 C 43.179688 61.5625 46.851562 61.175781 46.851562 61.175781 C 44.292969 60.246094 42.726562 56.992188 40.378906 55.71875 " fill-opacity="1" fill-rule="nonzero"/><path fill="#4c764a" d="M 42.289062 40.863281 C 45.492188 43.046875 47.660156 43.332031 48.890625 43.113281 C 45.167969 41.222656 43.589844 37.0625 43.589844 37.0625 C 46.152344 41.785156 49.75 42.820312 49.75 42.820312 C 47.613281 40.980469 47.121094 37.351562 45.285156 35.269531 C 43.105469 32.792969 39.914062 32.183594 37.074219 32.160156 C 38.292969 33.183594 38.910156 35.003906 39.507812 36.59375 C 40.128906 38.257812 40.886719 39.910156 42.289062 40.863281 " fill-opacity="1" fill-rule="nonzero"/><path fill="#4c764a" d="M 34.582031 75.414062 C 38.855469 78.191406 42.414062 77.148438 42.414062 77.148438 C 39.761719 76.6875 37.753906 73.746094 35.261719 72.90625 C 32.296875 71.90625 29.28125 73.105469 26.820312 74.632812 C 28.320312 74.875 29.648438 76.144531 30.855469 77.226562 C 32.121094 78.359375 33.496094 79.402344 35.121094 79.484375 C 38.839844 79.667969 40.832031 78.738281 41.796875 77.875 C 37.761719 78.230469 34.582031 75.414062 34.582031 75.414062 " fill-opacity="1" fill-rule="nonzero"/><path fill="#4c764a" d="M 36.238281 65.132812 C 32.207031 65.492188 29.023438 62.671875 29.023438 62.671875 C 33.296875 65.449219 36.855469 64.40625 36.855469 64.40625 C 34.207031 63.945312 32.195312 61.007812 29.703125 60.164062 C 26.742188 59.164062 23.722656 60.363281 21.261719 61.890625 C 22.761719 62.132812 24.089844 63.402344 25.300781 64.484375 C 26.566406 65.617188 27.9375 66.664062 29.566406 66.742188 C 33.285156 66.925781 35.273438 65.996094 36.238281 65.132812 " fill-opacity="1" fill-rule="nonzero"/><path fill="#4c764a" d="M 30.75 52.25 C 34.46875 52.429688 36.457031 51.5 37.421875 50.640625 C 33.390625 50.996094 30.207031 48.179688 30.207031 48.179688 C 34.480469 50.953125 38.039062 49.910156 38.039062 49.910156 C 35.390625 49.453125 33.378906 46.511719 30.886719 45.671875 C 27.925781 44.671875 24.90625 45.871094 22.449219 47.398438 C 23.945312 47.640625 25.273438 48.90625 26.480469 49.988281 C 27.75 51.121094 29.125 52.167969 30.75 52.25 " fill-opacity="1" fill-rule="nonzero"/><path fill="#64615f" d="M 75.847656 93.039062 C 62.230469 83.199219 37.847656 89.164062 37.847656 89.164062 C 65.425781 95.574219 75.847656 119.574219 75.847656 119.574219 C 75.847656 119.574219 86.273438 95.574219 113.847656 89.164062 C 113.847656 89.164062 89.46875 83.199219 75.847656 93.039062 " fill-opacity="1" fill-rule="nonzero"/><path fill="#64615f" d="M 66.179688 75.5625 C 66.179688 81.859375 70.511719 86.964844 75.847656 86.964844 C 81.1875 86.964844 85.515625 81.859375 85.515625 75.5625 C 85.515625 69.265625 81.1875 64.160156 75.847656 64.160156 C 70.511719 64.160156 66.179688 69.265625 66.179688 75.5625 " fill-opacity="1" fill-rule="nonzero"/></svg>