<svg xmlns="http://www.w3.org/2000/svg" xmlns:xlink="http://www.w3.org/1999/xlink" width="400" zoomAndPan="magnify" viewBox="0 0 300 74.999997" height="100" preserveAspectRatio="xMidYMid meet" version="1.0"><defs><g/><clipPath id="b4c904afe4"><rect x="0" width="284" y="0" height="51"/></clipPath></defs><rect x="-30" width="360" fill="#ffffff" y="-7.5" height="89.999996" fill-opacity="1"/><rect x="-30" width="360" fill="#fdfcfb" y="-7.5" height="89.999996" fill-opacity="1"/><g transform="matrix(1, 0, 0, 1, 8, 12)"><g clip-path="url(#b4c904afe4)"><g fill="#4c764a" fill-opacity="1"><g transform="translate(1.425248, 39.447033)"><g><path d="M 24.140625 -0.5 L 3.4375 -0.890625 C 3.375 -1.015625 3.320312 -1.273438 3.28125 -1.671875 C 3.238281 -2.078125 3.203125 -2.539062 3.171875 -3.0625 C 3.148438 -3.582031 3.132812 -4.085938 3.125 -4.578125 C 3.125 -5.066406 3.117188 -5.472656 3.109375 -5.796875 C 3.109375 -6.117188 3.109375 -6.28125 3.109375 -6.28125 C 3.109375 -6.28125 3.140625 -6.335938 3.203125 -6.453125 C 3.265625 -6.578125 3.335938 -6.695312 3.421875 -6.8125 C 3.503906 -6.9375 3.550781 -7.007812 3.5625 -7.03125 C 3.5625 -7.03125 3.765625 -7 4.171875 -6.9375 C 4.578125 -6.882812 5.097656 -6.8125 5.734375 -6.71875 C 6.378906 -6.632812 7.070312 -6.546875 7.8125 -6.453125 C 8.550781 -6.359375 9.253906 -6.265625 9.921875 -6.171875 C 10.585938 -6.078125 11.144531 -6.003906 11.59375 -5.953125 C 12.050781 -5.898438 12.316406 -5.875 12.390625 -5.875 C 12.390625 -5.875 12.414062 -6.03125 12.46875 -6.34375 C 12.53125 -6.664062 12.59375 -7.050781 12.65625 -7.5 C 12.71875 -7.945312 12.773438 -8.378906 12.828125 -8.796875 C 10.296875 -8.929688 8.253906 -9.09375 6.703125 -9.28125 C 5.148438 -9.476562 4.023438 -9.65625 3.328125 -9.8125 C 2.628906 -9.96875 2.28125 -10.046875 2.28125 -10.046875 C 2.257812 -10.046875 2.238281 -10.273438 2.21875 -10.734375 C 2.207031 -11.203125 2.207031 -11.835938 2.21875 -12.640625 C 2.226562 -13.441406 2.238281 -14.34375 2.25 -15.34375 C 2.269531 -16.351562 2.300781 -17.398438 2.34375 -18.484375 C 2.382812 -19.566406 2.429688 -20.628906 2.484375 -21.671875 C 2.535156 -22.710938 2.601562 -23.671875 2.6875 -24.546875 C 2.769531 -25.421875 2.851562 -26.148438 2.9375 -26.734375 C 3.03125 -27.328125 3.140625 -27.703125 3.265625 -27.859375 C 3.265625 -27.859375 3.304688 -27.914062 3.390625 -28.03125 C 3.472656 -28.15625 3.5625 -28.28125 3.65625 -28.40625 C 3.75 -28.53125 3.804688 -28.59375 3.828125 -28.59375 C 3.859375 -28.632812 4.125 -28.679688 4.625 -28.734375 C 5.125 -28.785156 5.78125 -28.847656 6.59375 -28.921875 C 7.40625 -28.992188 8.316406 -29.066406 9.328125 -29.140625 C 10.347656 -29.210938 11.398438 -29.28125 12.484375 -29.34375 C 13.566406 -29.414062 14.617188 -29.476562 15.640625 -29.53125 C 16.671875 -29.59375 17.613281 -29.644531 18.46875 -29.6875 C 19.332031 -29.726562 20.039062 -29.753906 20.59375 -29.765625 C 21.144531 -29.773438 21.488281 -29.769531 21.625 -29.75 C 21.675781 -29.738281 21.722656 -29.519531 21.765625 -29.09375 C 21.816406 -28.664062 21.863281 -28.085938 21.90625 -27.359375 C 21.957031 -26.640625 22.003906 -25.832031 22.046875 -24.9375 C 22.097656 -24.039062 22.132812 -23.117188 22.15625 -22.171875 C 22.1875 -21.222656 22.210938 -20.300781 22.234375 -19.40625 C 22.253906 -18.507812 22.257812 -17.695312 22.25 -16.96875 C 22.25 -16.25 22.234375 -15.675781 22.203125 -15.25 C 22.179688 -14.832031 22.144531 -14.617188 22.09375 -14.609375 C 22.03125 -14.585938 21.785156 -14.570312 21.359375 -14.5625 C 20.941406 -14.5625 20.394531 -14.5625 19.71875 -14.5625 C 19.039062 -14.5625 18.289062 -14.5625 17.46875 -14.5625 C 16.644531 -14.5625 15.796875 -14.5625 14.921875 -14.5625 C 14.054688 -14.5625 13.21875 -14.5625 12.40625 -14.5625 C 11.601562 -14.570312 10.875 -14.582031 10.21875 -14.59375 C 9.570312 -14.601562 9.0625 -14.609375 8.6875 -14.609375 C 8.3125 -14.609375 8.125 -14.609375 8.125 -14.609375 L 7.84375 -11.8125 L 24.671875 -10.921875 L 24.984375 -10.578125 C 24.984375 -10.578125 24.972656 -10.398438 24.953125 -10.046875 C 24.941406 -9.691406 24.921875 -9.21875 24.890625 -8.625 C 24.867188 -8.03125 24.835938 -7.378906 24.796875 -6.671875 C 24.753906 -5.960938 24.707031 -5.25 24.65625 -4.53125 C 24.601562 -3.820312 24.546875 -3.164062 24.484375 -2.5625 C 24.421875 -1.96875 24.363281 -1.476562 24.3125 -1.09375 C 24.257812 -0.71875 24.203125 -0.519531 24.140625 -0.5 Z M 24.140625 -0.5 "/></g></g></g><g fill="#4c764a" fill-opacity="1"><g transform="translate(27.697981, 39.447033)"><g><path d="M 2.703125 -9 L 5.6875 -8.96875 C 5.6875 -8.96875 5.679688 -9.148438 5.671875 -9.515625 C 5.671875 -9.878906 5.671875 -10.375 5.671875 -11 C 5.671875 -11.625 5.664062 -12.320312 5.65625 -13.09375 C 5.65625 -13.875 5.65625 -14.675781 5.65625 -15.5 C 5.664062 -16.320312 5.671875 -17.117188 5.671875 -17.890625 C 5.679688 -18.660156 5.691406 -19.34375 5.703125 -19.9375 L 3.0625 -20.015625 L 2.703125 -20.296875 C 2.648438 -20.347656 2.597656 -20.5625 2.546875 -20.9375 C 2.492188 -21.320312 2.445312 -21.8125 2.40625 -22.40625 C 2.363281 -23 2.328125 -23.644531 2.296875 -24.34375 C 2.265625 -25.039062 2.238281 -25.734375 2.21875 -26.421875 C 2.195312 -27.109375 2.179688 -27.738281 2.171875 -28.3125 C 2.160156 -28.894531 2.148438 -29.359375 2.140625 -29.703125 C 2.128906 -30.046875 2.125 -30.21875 2.125 -30.21875 C 2.300781 -30.269531 2.65625 -30.328125 3.1875 -30.390625 C 3.71875 -30.453125 4.363281 -30.507812 5.125 -30.5625 C 5.882812 -30.613281 6.695312 -30.65625 7.5625 -30.6875 C 8.425781 -30.71875 9.285156 -30.722656 10.140625 -30.703125 C 11.003906 -30.691406 11.800781 -30.644531 12.53125 -30.5625 C 13.257812 -30.476562 13.859375 -30.359375 14.328125 -30.203125 C 14.328125 -30.203125 14.34375 -30.046875 14.375 -29.734375 C 14.40625 -29.421875 14.441406 -29.003906 14.484375 -28.484375 C 14.535156 -27.960938 14.585938 -27.378906 14.640625 -26.734375 C 14.691406 -26.085938 14.726562 -25.429688 14.75 -24.765625 C 14.78125 -24.109375 14.789062 -23.484375 14.78125 -22.890625 C 14.769531 -22.296875 14.734375 -21.789062 14.671875 -21.375 C 14.546875 -21.375 14.3125 -21.363281 13.96875 -21.34375 C 13.632812 -21.332031 13.265625 -21.316406 12.859375 -21.296875 C 12.453125 -21.273438 12.078125 -21.253906 11.734375 -21.234375 C 11.398438 -21.210938 11.160156 -21.195312 11.015625 -21.1875 C 11.003906 -20.3125 10.984375 -19.304688 10.953125 -18.171875 C 10.929688 -17.035156 10.90625 -15.847656 10.875 -14.609375 C 10.84375 -13.367188 10.804688 -12.140625 10.765625 -10.921875 C 10.734375 -9.703125 10.707031 -8.566406 10.6875 -7.515625 C 10.820312 -7.503906 11.035156 -7.488281 11.328125 -7.46875 C 11.617188 -7.445312 11.929688 -7.425781 12.265625 -7.40625 C 12.609375 -7.382812 12.925781 -7.367188 13.21875 -7.359375 C 13.519531 -7.347656 13.738281 -7.335938 13.875 -7.328125 C 13.945312 -6.816406 13.984375 -6.25 13.984375 -5.625 C 13.984375 -5.007812 13.957031 -4.382812 13.90625 -3.75 C 13.863281 -3.125 13.8125 -2.546875 13.75 -2.015625 C 13.695312 -1.492188 13.644531 -1.070312 13.59375 -0.75 C 13.550781 -0.4375 13.53125 -0.28125 13.53125 -0.28125 C 13.0625 -0.125 12.476562 -0.00390625 11.78125 0.078125 C 11.09375 0.160156 10.347656 0.210938 9.546875 0.234375 C 8.753906 0.253906 7.957031 0.242188 7.15625 0.203125 C 6.363281 0.171875 5.617188 0.128906 4.921875 0.078125 C 4.222656 0.0234375 3.625 -0.0234375 3.125 -0.078125 C 2.632812 -0.140625 2.300781 -0.203125 2.125 -0.265625 C 2.125 -0.265625 2.109375 -0.425781 2.078125 -0.75 C 2.054688 -1.082031 2.03125 -1.523438 2 -2.078125 C 1.96875 -2.628906 1.945312 -3.234375 1.9375 -3.890625 C 1.9375 -4.546875 1.953125 -5.203125 1.984375 -5.859375 C 2.023438 -6.515625 2.101562 -7.117188 2.21875 -7.671875 C 2.332031 -8.222656 2.492188 -8.664062 2.703125 -9 Z M 2.703125 -9 "/></g></g></g><g fill="#4c764a" fill-opacity="1"><g transform="translate(45.060659, 39.447033)"><g><path d="M 16.015625 0.515625 L 10.609375 -0.15625 L 1.890625 -24.859375 L 2.203125 -25.734375 C 2.203125 -25.734375 2.347656 -25.832031 2.640625 -26.03125 C 2.929688 -26.238281 3.328125 -26.5 3.828125 -26.8125 C 4.335938 -27.125 4.921875 -27.445312 5.578125 -27.78125 C 6.234375 -28.125 6.925781 -28.441406 7.65625 -28.734375 C 8.382812 -29.023438 9.113281 -29.238281 9.84375 -29.375 C 9.863281 -29.375 9.945312 -29.171875 10.09375 -28.765625 C 10.25 -28.359375 10.4375 -27.816406 10.65625 -27.140625 C 10.882812 -26.472656 11.132812 -25.734375 11.40625 -24.921875 C 11.675781 -24.117188 11.945312 -23.316406 12.21875 -22.515625 C 12.5 -21.710938 12.75 -20.972656 12.96875 -20.296875 C 13.195312 -19.628906 13.375 -19.085938 13.5 -18.671875 C 13.632812 -18.265625 13.703125 -18.0625 13.703125 -18.0625 L 18.109375 -28.6875 L 19.265625 -28.96875 C 19.265625 -28.96875 19.378906 -28.976562 19.609375 -29 C 19.835938 -29.019531 20.179688 -29 20.640625 -28.9375 C 21.109375 -28.875 21.6875 -28.71875 22.375 -28.46875 C 23.070312 -28.226562 23.878906 -27.835938 24.796875 -27.296875 C 24.804688 -27.296875 24.738281 -27.070312 24.59375 -26.625 C 24.457031 -26.1875 24.265625 -25.582031 24.015625 -24.8125 C 23.765625 -24.050781 23.472656 -23.175781 23.140625 -22.1875 C 22.816406 -21.207031 22.46875 -20.164062 22.09375 -19.0625 C 21.726562 -17.957031 21.359375 -16.84375 20.984375 -15.71875 C 20.617188 -14.601562 20.265625 -13.523438 19.921875 -12.484375 C 19.578125 -11.453125 19.257812 -10.515625 18.96875 -9.671875 C 18.6875 -8.835938 18.453125 -8.144531 18.265625 -7.59375 C 18.085938 -7.039062 17.984375 -6.691406 17.953125 -6.546875 C 17.929688 -6.484375 17.867188 -6.265625 17.765625 -5.890625 C 17.660156 -5.515625 17.535156 -5.0625 17.390625 -4.53125 C 17.242188 -4 17.085938 -3.441406 16.921875 -2.859375 C 16.765625 -2.273438 16.617188 -1.722656 16.484375 -1.203125 C 16.347656 -0.691406 16.234375 -0.28125 16.140625 0.03125 C 16.054688 0.351562 16.015625 0.515625 16.015625 0.515625 Z M 16.015625 0.515625 "/></g></g></g><g fill="#4c764a" fill-opacity="1"><g transform="translate(71.054954, 39.447033)"><g><path d="M 2.703125 -9 L 5.6875 -8.96875 C 5.6875 -8.96875 5.679688 -9.148438 5.671875 -9.515625 C 5.671875 -9.878906 5.671875 -10.375 5.671875 -11 C 5.671875 -11.625 5.664062 -12.320312 5.65625 -13.09375 C 5.65625 -13.875 5.65625 -14.675781 5.65625 -15.5 C 5.664062 -16.320312 5.671875 -17.117188 5.671875 -17.890625 C 5.679688 -18.660156 5.691406 -19.34375 5.703125 -19.9375 L 3.0625 -20.015625 L 2.703125 -20.296875 C 2.648438 -20.347656 2.597656 -20.5625 2.546875 -20.9375 C 2.492188 -21.320312 2.445312 -21.8125 2.40625 -22.40625 C 2.363281 -23 2.328125 -23.644531 2.296875 -24.34375 C 2.265625 -25.039062 2.238281 -25.734375 2.21875 -26.421875 C 2.195312 -27.109375 2.179688 -27.738281 2.171875 -28.3125 C 2.160156 -28.894531 2.148438 -29.359375 2.140625 -29.703125 C 2.128906 -30.046875 2.125 -30.21875 2.125 -30.21875 C 2.300781 -30.269531 2.65625 -30.328125 3.1875 -30.390625 C 3.71875 -30.453125 4.363281 -30.507812 5.125 -30.5625 C 5.882812 -30.613281 6.695312 -30.65625 7.5625 -30.6875 C 8.425781 -30.71875 9.285156 -30.722656 10.140625 -30.703125 C 11.003906 -30.691406 11.800781 -30.644531 12.53125 -30.5625 C 13.257812 -30.476562 13.859375 -30.359375 14.328125 -30.203125 C 14.328125 -30.203125 14.34375 -30.046875 14.375 -29.734375 C 14.40625 -29.421875 14.441406 -29.003906 14.484375 -28.484375 C 14.535156 -27.960938 14.585938 -27.378906 14.640625 -26.734375 C 14.691406 -26.085938 14.726562 -25.429688 14.75 -24.765625 C 14.78125 -24.109375 14.789062 -23.484375 14.78125 -22.890625 C 14.769531 -22.296875 14.734375 -21.789062 14.671875 -21.375 C 14.546875 -21.375 14.3125 -21.363281 13.96875 -21.34375 C 13.632812 -21.332031 13.265625 -21.316406 12.859375 -21.296875 C 12.453125 -21.273438 12.078125 -21.253906 11.734375 -21.234375 C 11.398438 -21.210938 11.160156 -21.195312 11.015625 -21.1875 C 11.003906 -20.3125 10.984375 -19.304688 10.953125 -18.171875 C 10.929688 -17.035156 10.90625 -15.847656 10.875 -14.609375 C 10.84375 -13.367188 10.804688 -12.140625 10.765625 -10.921875 C 10.734375 -9.703125 10.707031 -8.566406 10.6875 -7.515625 C 10.820312 -7.503906 11.035156 -7.488281 11.328125 -7.46875 C 11.617188 -7.445312 11.929688 -7.425781 12.265625 -7.40625 C 12.609375 -7.382812 12.925781 -7.367188 13.21875 -7.359375 C 13.519531 -7.347656 13.738281 -7.335938 13.875 -7.328125 C 13.945312 -6.816406 13.984375 -6.25 13.984375 -5.625 C 13.984375 -5.007812 13.957031 -4.382812 13.90625 -3.75 C 13.863281 -3.125 13.8125 -2.546875 13.75 -2.015625 C 13.695312 -1.492188 13.644531 -1.070312 13.59375 -0.75 C 13.550781 -0.4375 13.53125 -0.28125 13.53125 -0.28125 C 13.0625 -0.125 12.476562 -0.00390625 11.78125 0.078125 C 11.09375 0.160156 10.347656 0.210938 9.546875 0.234375 C 8.753906 0.253906 7.957031 0.242188 7.15625 0.203125 C 6.363281 0.171875 5.617188 0.128906 4.921875 0.078125 C 4.222656 0.0234375 3.625 -0.0234375 3.125 -0.078125 C 2.632812 -0.140625 2.300781 -0.203125 2.125 -0.265625 C 2.125 -0.265625 2.109375 -0.425781 2.078125 -0.75 C 2.054688 -1.082031 2.03125 -1.523438 2 -2.078125 C 1.96875 -2.628906 1.945312 -3.234375 1.9375 -3.890625 C 1.9375 -4.546875 1.953125 -5.203125 1.984375 -5.859375 C 2.023438 -6.515625 2.101562 -7.117188 2.21875 -7.671875 C 2.332031 -8.222656 2.492188 -8.664062 2.703125 -9 Z M 2.703125 -9 "/></g></g></g><g fill="#4c764a" fill-opacity="1"><g transform="translate(88.417631, 39.447033)"><g/></g></g><g fill="#4c764a" fill-opacity="1"><g transform="translate(100.668959, 39.447033)"><g><path d="M 3.359375 -29.40625 C 4.359375 -29.644531 5.445312 -29.804688 6.625 -29.890625 C 7.800781 -29.984375 8.992188 -30.019531 10.203125 -30 C 11.410156 -29.976562 12.554688 -29.929688 13.640625 -29.859375 C 14.734375 -29.785156 15.691406 -29.707031 16.515625 -29.625 C 17.335938 -29.550781 17.941406 -29.492188 18.328125 -29.453125 C 18.710938 -26.128906 19.113281 -22.882812 19.53125 -19.71875 C 19.957031 -16.5625 20.375 -13.398438 20.78125 -10.234375 C 21.1875 -7.066406 21.550781 -3.820312 21.875 -0.5 C 21.394531 -0.5 20.816406 -0.488281 20.140625 -0.46875 C 19.460938 -0.457031 18.769531 -0.445312 18.0625 -0.4375 C 17.363281 -0.4375 16.734375 -0.441406 16.171875 -0.453125 C 16.109375 -0.703125 16.054688 -0.894531 16.015625 -1.03125 C 15.972656 -1.175781 15.9375 -1.328125 15.90625 -1.484375 C 15.875 -1.648438 15.832031 -1.890625 15.78125 -2.203125 C 15.738281 -2.515625 15.671875 -2.972656 15.578125 -3.578125 C 15.484375 -4.191406 15.363281 -5.019531 15.21875 -6.0625 L 11.625 -6.3125 L 11.328125 -0.171875 L 1.75 -0.65625 L 1.078125 -1.40625 C 1.191406 -3.957031 1.332031 -6.410156 1.5 -8.765625 C 1.664062 -11.128906 1.847656 -13.445312 2.046875 -15.71875 C 2.242188 -17.988281 2.453125 -20.25 2.671875 -22.5 C 2.890625 -24.757812 3.117188 -27.0625 3.359375 -29.40625 Z M 10.484375 -11.40625 L 15.40625 -11.125 L 15 -17.515625 C 13.8125 -17.585938 12.894531 -17.617188 12.25 -17.609375 C 11.613281 -17.597656 11.164062 -17.5625 10.90625 -17.5 C 10.65625 -17.4375 10.503906 -17.375 10.453125 -17.3125 C 10.410156 -17.257812 10.390625 -17.234375 10.390625 -17.234375 Z M 10.484375 -11.40625 "/></g></g></g><g fill="#4c764a" fill-opacity="1"><g transform="translate(123.679976, 39.447033)"><g><path d="M 2.53125 -30.03125 C 3.019531 -30.09375 3.691406 -30.125 4.546875 -30.125 C 5.398438 -30.132812 6.367188 -30.117188 7.453125 -30.078125 C 8.546875 -30.046875 9.695312 -30 10.90625 -29.9375 C 12.113281 -29.875 13.316406 -29.800781 14.515625 -29.71875 C 15.710938 -29.632812 16.851562 -29.546875 17.9375 -29.453125 C 19.03125 -29.367188 20.003906 -29.285156 20.859375 -29.203125 C 21.710938 -29.128906 22.382812 -29.066406 22.875 -29.015625 C 22.90625 -28.703125 22.929688 -28.234375 22.953125 -27.609375 C 22.972656 -26.992188 22.992188 -26.28125 23.015625 -25.46875 C 23.035156 -24.65625 23.050781 -23.816406 23.0625 -22.953125 C 23.070312 -22.097656 23.082031 -21.269531 23.09375 -20.46875 C 23.113281 -19.664062 23.125 -18.957031 23.125 -18.34375 C 23.132812 -17.738281 23.140625 -17.28125 23.140625 -16.96875 C 23.140625 -16.96875 23.117188 -16.835938 23.078125 -16.578125 C 23.035156 -16.328125 22.984375 -16.019531 22.921875 -15.65625 C 22.867188 -15.289062 22.816406 -14.929688 22.765625 -14.578125 C 22.710938 -14.234375 22.675781 -13.960938 22.65625 -13.765625 C 22.644531 -13.566406 22.660156 -13.515625 22.703125 -13.609375 C 22.546875 -13.566406 22.179688 -13.539062 21.609375 -13.53125 C 21.035156 -13.519531 20.332031 -13.507812 19.5 -13.5 C 18.664062 -13.488281 17.769531 -13.476562 16.8125 -13.46875 C 15.851562 -13.457031 14.898438 -13.4375 13.953125 -13.40625 C 13.003906 -13.382812 12.128906 -13.347656 11.328125 -13.296875 C 10.523438 -13.242188 9.863281 -13.171875 9.34375 -13.078125 C 8.820312 -12.992188 8.515625 -12.878906 8.421875 -12.734375 C 8.160156 -12.378906 7.988281 -12.019531 7.90625 -11.65625 C 7.832031 -11.289062 7.796875 -10.988281 7.796875 -10.75 C 7.804688 -10.507812 7.8125 -10.390625 7.8125 -10.390625 C 7.8125 -10.390625 7.84375 -10.257812 7.90625 -10 C 7.976562 -9.75 8.0625 -9.445312 8.15625 -9.09375 C 8.25 -8.75 8.335938 -8.425781 8.421875 -8.125 C 8.515625 -7.832031 8.578125 -7.644531 8.609375 -7.5625 C 8.660156 -7.46875 8.835938 -7.382812 9.140625 -7.3125 C 9.441406 -7.25 9.789062 -7.195312 10.1875 -7.15625 C 10.59375 -7.125 11 -7.09375 11.40625 -7.0625 C 11.820312 -7.039062 12.179688 -7.023438 12.484375 -7.015625 C 12.785156 -7.003906 12.972656 -7 13.046875 -7 C 13.765625 -7 14.378906 -7.003906 14.890625 -7.015625 C 15.398438 -7.035156 15.863281 -7.054688 16.28125 -7.078125 C 16.695312 -7.109375 17.125 -7.132812 17.5625 -7.15625 C 18 -7.175781 18.488281 -7.191406 19.03125 -7.203125 C 19.570312 -7.210938 20.222656 -7.21875 20.984375 -7.21875 L 21.09375 0.203125 C 20.382812 0.273438 19.566406 0.359375 18.640625 0.453125 C 17.710938 0.554688 16.734375 0.660156 15.703125 0.765625 C 14.679688 0.867188 13.648438 0.960938 12.609375 1.046875 C 11.578125 1.140625 10.59375 1.226562 9.65625 1.3125 C 8.71875 1.394531 7.882812 1.46875 7.15625 1.53125 C 6.425781 1.59375 5.851562 1.640625 5.4375 1.671875 C 5.019531 1.710938 4.8125 1.734375 4.8125 1.734375 C 4.207031 0.179688 3.707031 -1.453125 3.3125 -3.171875 C 2.914062 -4.898438 2.609375 -6.648438 2.390625 -8.421875 C 2.160156 -10.210938 2.003906 -11.984375 1.921875 -13.734375 C 1.835938 -15.492188 1.800781 -17.175781 1.8125 -18.78125 C 1.820312 -20.394531 1.863281 -21.882812 1.9375 -23.25 C 2.007812 -24.613281 2.09375 -25.800781 2.1875 -26.8125 C 2.28125 -27.820312 2.359375 -28.609375 2.421875 -29.171875 C 2.492188 -29.742188 2.53125 -30.03125 2.53125 -30.03125 Z M 2.53125 -30.03125 "/></g></g></g><g fill="#4c764a" fill-opacity="1"><g transform="translate(148.779287, 39.447033)"><g><path d="M 3.359375 -29.40625 C 4.359375 -29.644531 5.445312 -29.804688 6.625 -29.890625 C 7.800781 -29.984375 8.992188 -30.019531 10.203125 -30 C 11.410156 -29.976562 12.554688 -29.929688 13.640625 -29.859375 C 14.734375 -29.785156 15.691406 -29.707031 16.515625 -29.625 C 17.335938 -29.550781 17.941406 -29.492188 18.328125 -29.453125 C 18.710938 -26.128906 19.113281 -22.882812 19.53125 -19.71875 C 19.957031 -16.5625 20.375 -13.398438 20.78125 -10.234375 C 21.1875 -7.066406 21.550781 -3.820312 21.875 -0.5 C 21.394531 -0.5 20.816406 -0.488281 20.140625 -0.46875 C 19.460938 -0.457031 18.769531 -0.445312 18.0625 -0.4375 C 17.363281 -0.4375 16.734375 -0.441406 16.171875 -0.453125 C 16.109375 -0.703125 16.054688 -0.894531 16.015625 -1.03125 C 15.972656 -1.175781 15.9375 -1.328125 15.90625 -1.484375 C 15.875 -1.648438 15.832031 -1.890625 15.78125 -2.203125 C 15.738281 -2.515625 15.671875 -2.972656 15.578125 -3.578125 C 15.484375 -4.191406 15.363281 -5.019531 15.21875 -6.0625 L 11.625 -6.3125 L 11.328125 -0.171875 L 1.75 -0.65625 L 1.078125 -1.40625 C 1.191406 -3.957031 1.332031 -6.410156 1.5 -8.765625 C 1.664062 -11.128906 1.847656 -13.445312 2.046875 -15.71875 C 2.242188 -17.988281 2.453125 -20.25 2.671875 -22.5 C 2.890625 -24.757812 3.117188 -27.0625 3.359375 -29.40625 Z M 10.484375 -11.40625 L 15.40625 -11.125 L 15 -17.515625 C 13.8125 -17.585938 12.894531 -17.617188 12.25 -17.609375 C 11.613281 -17.597656 11.164062 -17.5625 10.90625 -17.5 C 10.65625 -17.4375 10.503906 -17.375 10.453125 -17.3125 C 10.410156 -17.257812 10.390625 -17.234375 10.390625 -17.234375 Z M 10.484375 -11.40625 "/></g></g></g><g fill="#4c764a" fill-opacity="1"><g transform="translate(171.790305, 39.447033)"><g><path d="M 3.84375 -0.234375 C 3.84375 -0.234375 3.835938 -0.492188 3.828125 -1.015625 C 3.828125 -1.535156 3.820312 -2.25 3.8125 -3.15625 C 3.800781 -4.0625 3.789062 -5.109375 3.78125 -6.296875 C 3.78125 -7.492188 3.769531 -8.78125 3.75 -10.15625 C 3.738281 -11.539062 3.726562 -12.957031 3.71875 -14.40625 C 3.71875 -15.851562 3.71875 -17.28125 3.71875 -18.6875 C 3.71875 -20.09375 3.71875 -21.425781 3.71875 -22.6875 C 3.71875 -23.957031 3.71875 -25.09375 3.71875 -26.09375 C 3.71875 -27.09375 3.722656 -27.914062 3.734375 -28.5625 C 3.753906 -29.21875 3.773438 -29.625 3.796875 -29.78125 C 4.265625 -29.820312 4.9375 -29.84375 5.8125 -29.84375 C 6.695312 -29.851562 7.710938 -29.832031 8.859375 -29.78125 C 10.003906 -29.726562 11.210938 -29.625 12.484375 -29.46875 C 13.753906 -29.3125 15.019531 -29.09375 16.28125 -28.8125 C 17.550781 -28.53125 18.742188 -28.164062 19.859375 -27.71875 C 20.972656 -27.28125 21.941406 -26.742188 22.765625 -26.109375 C 23.054688 -25.585938 23.320312 -24.925781 23.5625 -24.125 C 23.8125 -23.320312 24.03125 -22.429688 24.21875 -21.453125 C 24.414062 -20.484375 24.585938 -19.472656 24.734375 -18.421875 C 24.878906 -17.378906 25 -16.34375 25.09375 -15.3125 C 25.1875 -14.289062 25.242188 -13.332031 25.265625 -12.4375 C 25.296875 -11.320312 25.28125 -10.316406 25.21875 -9.421875 C 25.15625 -8.535156 25.007812 -7.707031 24.78125 -6.9375 C 24.550781 -6.175781 24.207031 -5.414062 23.75 -4.65625 C 23.289062 -3.894531 22.679688 -3.085938 21.921875 -2.234375 C 21.742188 -2.003906 21.34375 -1.800781 20.71875 -1.625 C 20.101562 -1.457031 19.347656 -1.304688 18.453125 -1.171875 C 17.554688 -1.035156 16.582031 -0.914062 15.53125 -0.8125 C 14.476562 -0.71875 13.40625 -0.632812 12.3125 -0.5625 C 11.21875 -0.488281 10.164062 -0.429688 9.15625 -0.390625 C 8.144531 -0.359375 7.238281 -0.328125 6.4375 -0.296875 C 5.632812 -0.273438 5 -0.257812 4.53125 -0.25 C 4.070312 -0.238281 3.84375 -0.234375 3.84375 -0.234375 Z M 9.6875 -7.21875 L 14.40625 -6.9375 C 14.59375 -7.25 14.75 -7.722656 14.875 -8.359375 C 15.007812 -8.992188 15.117188 -9.710938 15.203125 -10.515625 C 15.285156 -11.328125 15.332031 -12.164062 15.34375 -13.03125 C 15.351562 -13.90625 15.328125 -14.738281 15.265625 -15.53125 C 15.210938 -16.332031 15.113281 -17.03125 14.96875 -17.625 C 14.832031 -18.226562 14.644531 -18.65625 14.40625 -18.90625 C 14.269531 -18.90625 14.019531 -18.894531 13.65625 -18.875 C 13.289062 -18.851562 12.878906 -18.828125 12.421875 -18.796875 C 11.960938 -18.773438 11.519531 -18.75 11.09375 -18.71875 C 10.664062 -18.695312 10.304688 -18.675781 10.015625 -18.65625 C 9.734375 -18.632812 9.59375 -18.625 9.59375 -18.625 C 9.59375 -18.625 9.582031 -18.441406 9.5625 -18.078125 C 9.550781 -17.722656 9.539062 -17.242188 9.53125 -16.640625 C 9.519531 -16.035156 9.503906 -15.363281 9.484375 -14.625 C 9.472656 -13.882812 9.46875 -13.128906 9.46875 -12.359375 C 9.46875 -11.585938 9.472656 -10.851562 9.484375 -10.15625 C 9.503906 -9.457031 9.53125 -8.847656 9.5625 -8.328125 C 9.59375 -7.816406 9.632812 -7.445312 9.6875 -7.21875 Z M 9.6875 -7.21875 "/></g></g></g><g fill="#4c764a" fill-opacity="1"><g transform="translate(198.938134, 39.447033)"><g><path d="M 22.84375 -22.171875 C 22.84375 -22.171875 22.722656 -22.160156 22.484375 -22.140625 C 22.253906 -22.117188 21.816406 -22.082031 21.171875 -22.03125 C 20.535156 -21.976562 19.597656 -21.914062 18.359375 -21.84375 C 17.128906 -21.78125 15.503906 -21.695312 13.484375 -21.59375 C 13.484375 -21.59375 13.476562 -21.425781 13.46875 -21.09375 C 13.457031 -20.757812 13.460938 -20.316406 13.484375 -19.765625 C 13.503906 -19.210938 13.5625 -18.617188 13.65625 -17.984375 C 13.757812 -17.347656 13.914062 -16.71875 14.125 -16.09375 L 19.28125 -16.109375 C 19.28125 -16.109375 19.398438 -16.113281 19.640625 -16.125 C 19.890625 -16.132812 20.175781 -16.140625 20.5 -16.140625 C 20.820312 -16.148438 21.109375 -16.15625 21.359375 -16.15625 C 21.609375 -16.164062 21.722656 -16.179688 21.703125 -16.203125 C 21.691406 -16.210938 21.703125 -16.117188 21.734375 -15.921875 C 21.765625 -15.722656 21.800781 -15.488281 21.84375 -15.21875 C 21.882812 -14.957031 21.921875 -14.726562 21.953125 -14.53125 C 21.984375 -14.332031 22 -14.234375 22 -14.234375 L 22 -11.765625 C 22 -11.765625 21.175781 -11.71875 19.53125 -11.625 C 17.894531 -11.539062 15.453125 -11.488281 12.203125 -11.46875 L 12.0625 -6.421875 L 12.5625 -5.890625 L 22.265625 -5.8125 C 22.265625 -5.8125 22.175781 -5.820312 22 -5.84375 C 21.832031 -5.863281 21.734375 -5.878906 21.703125 -5.890625 C 21.691406 -5.898438 21.757812 -5.851562 21.90625 -5.75 C 22.0625 -5.65625 22.21875 -5.554688 22.375 -5.453125 C 22.53125 -5.359375 22.609375 -5.3125 22.609375 -5.3125 L 22.796875 0.34375 C 22.796875 0.34375 22.820312 0.332031 22.875 0.3125 C 22.9375 0.300781 22.9375 0.289062 22.875 0.28125 C 22.820312 0.269531 22.640625 0.257812 22.328125 0.25 C 22.023438 0.238281 21.507812 0.226562 20.78125 0.21875 C 20.0625 0.21875 19.050781 0.222656 17.75 0.234375 C 16.132812 0.253906 14.625 0.242188 13.21875 0.203125 C 11.8125 0.171875 10.566406 0.128906 9.484375 0.078125 C 8.410156 0.0234375 7.546875 -0.0234375 6.890625 -0.078125 C 6.242188 -0.128906 5.867188 -0.171875 5.765625 -0.203125 C 5.617188 -0.242188 5.476562 -0.382812 5.34375 -0.625 C 5.207031 -0.875 5.066406 -1.179688 4.921875 -1.546875 C 4.785156 -1.921875 4.644531 -2.300781 4.5 -2.6875 C 4.394531 -2.988281 4.296875 -3.535156 4.203125 -4.328125 C 4.117188 -5.128906 4.050781 -6.097656 4 -7.234375 C 3.945312 -8.367188 3.898438 -9.601562 3.859375 -10.9375 C 3.816406 -12.28125 3.789062 -13.644531 3.78125 -15.03125 C 3.769531 -16.425781 3.757812 -17.773438 3.75 -19.078125 C 3.738281 -20.378906 3.738281 -21.566406 3.75 -22.640625 C 3.757812 -23.710938 3.765625 -24.59375 3.765625 -25.28125 C 3.773438 -25.976562 3.785156 -26.40625 3.796875 -26.5625 C 3.828125 -26.988281 3.90625 -27.421875 4.03125 -27.859375 C 4.164062 -28.304688 4.296875 -28.675781 4.421875 -28.96875 C 4.546875 -29.269531 4.609375 -29.421875 4.609375 -29.421875 L 21.6875 -29.859375 L 22.9375 -29.78125 C 22.9375 -29.78125 22.960938 -29.617188 23.015625 -29.296875 C 23.066406 -28.972656 23.125 -28.539062 23.1875 -28 C 23.25 -27.46875 23.289062 -26.863281 23.3125 -26.1875 C 23.332031 -25.519531 23.304688 -24.835938 23.234375 -24.140625 C 23.171875 -23.441406 23.039062 -22.785156 22.84375 -22.171875 Z M 22.84375 -22.171875 "/></g></g></g><g fill="#4c764a" fill-opacity="1"><g transform="translate(225.44953, 39.447033)"><g><path d="M 16.171875 -23.421875 L 19.296875 -28.453125 L 20.296875 -28.75 C 20.296875 -28.75 20.5625 -28.75 21.09375 -28.75 C 21.625 -28.757812 22.328125 -28.734375 23.203125 -28.671875 C 24.085938 -28.609375 25.0625 -28.445312 26.125 -28.1875 C 26.15625 -28.1875 26.171875 -27.921875 26.171875 -27.390625 C 26.179688 -26.867188 26.179688 -26.144531 26.171875 -25.21875 C 26.171875 -24.300781 26.15625 -23.238281 26.125 -22.03125 C 26.09375 -20.832031 26.0625 -19.546875 26.03125 -18.171875 C 26.007812 -16.796875 25.984375 -15.390625 25.953125 -13.953125 C 25.921875 -12.523438 25.890625 -11.125 25.859375 -9.75 C 25.828125 -8.382812 25.789062 -7.097656 25.75 -5.890625 C 25.71875 -4.691406 25.6875 -3.632812 25.65625 -2.71875 C 25.632812 -1.8125 25.617188 -1.09375 25.609375 -0.5625 C 25.597656 -0.0390625 25.59375 0.21875 25.59375 0.21875 L 20.109375 0.59375 L 19.953125 -9.6875 L 15.5625 -6.40625 L 11.546875 -11.953125 C 11.546875 -11.953125 11.550781 -11.773438 11.5625 -11.421875 C 11.570312 -11.078125 11.582031 -10.625 11.59375 -10.0625 C 11.613281 -9.507812 11.632812 -8.914062 11.65625 -8.28125 C 11.675781 -7.644531 11.691406 -7.035156 11.703125 -6.453125 C 11.710938 -5.867188 11.722656 -5.375 11.734375 -4.96875 C 11.753906 -4.570312 11.765625 -4.335938 11.765625 -4.265625 C 11.765625 -4.179688 11.757812 -3.96875 11.75 -3.625 C 11.738281 -3.289062 11.726562 -2.894531 11.71875 -2.4375 C 11.71875 -1.976562 11.710938 -1.53125 11.703125 -1.09375 C 11.691406 -0.664062 11.679688 -0.304688 11.671875 -0.015625 C 11.660156 0.273438 11.65625 0.421875 11.65625 0.421875 L 11.015625 0.609375 L 4.59375 0.203125 L 3.921875 -0.71875 C 3.835938 -1.789062 3.769531 -3.019531 3.71875 -4.40625 C 3.675781 -5.800781 3.640625 -7.285156 3.609375 -8.859375 C 3.585938 -10.441406 3.578125 -12.050781 3.578125 -13.6875 C 3.578125 -15.320312 3.582031 -16.921875 3.59375 -18.484375 C 3.613281 -20.046875 3.632812 -21.515625 3.65625 -22.890625 C 3.675781 -24.265625 3.691406 -25.472656 3.703125 -26.515625 C 3.722656 -27.554688 3.738281 -28.367188 3.75 -28.953125 C 3.769531 -29.546875 3.78125 -29.84375 3.78125 -29.84375 L 4.78125 -30.140625 C 4.78125 -30.140625 4.941406 -30.15625 5.265625 -30.1875 C 5.585938 -30.226562 6.007812 -30.253906 6.53125 -30.265625 C 7.0625 -30.273438 7.632812 -30.265625 8.25 -30.234375 C 8.875 -30.203125 9.488281 -30.125 10.09375 -30 C 10.707031 -29.882812 11.253906 -29.691406 11.734375 -29.421875 Z M 16.171875 -23.421875 "/></g></g></g><g fill="#4c764a" fill-opacity="1"><g transform="translate(254.188441, 39.447033)"><g><path d="M 15.4375 -0.375 L 10.359375 -1 L 9.6875 -1.90625 C 9.570312 -3.382812 9.492188 -4.8125 9.453125 -6.1875 C 9.421875 -7.5625 9.410156 -8.835938 9.421875 -10.015625 C 9.441406 -11.203125 9.46875 -12.226562 9.5 -13.09375 C 9.53125 -13.96875 9.566406 -14.640625 9.609375 -15.109375 L 9.578125 -15.203125 C 8.773438 -16.273438 7.984375 -17.320312 7.203125 -18.34375 C 6.429688 -19.375 5.703125 -20.335938 5.015625 -21.234375 C 4.335938 -22.128906 3.734375 -22.921875 3.203125 -23.609375 C 2.671875 -24.304688 2.253906 -24.847656 1.953125 -25.234375 C 1.660156 -25.617188 1.515625 -25.8125 1.515625 -25.8125 L 2.125 -26.640625 C 2.125 -26.640625 2.289062 -26.769531 2.625 -27.03125 C 2.96875 -27.300781 3.476562 -27.640625 4.15625 -28.046875 C 4.832031 -28.460938 5.671875 -28.890625 6.671875 -29.328125 C 6.691406 -29.335938 6.847656 -29.144531 7.140625 -28.75 C 7.441406 -28.363281 7.847656 -27.820312 8.359375 -27.125 C 8.878906 -26.425781 9.472656 -25.613281 10.140625 -24.6875 C 10.804688 -23.757812 11.523438 -22.757812 12.296875 -21.6875 C 13.367188 -23.4375 14.316406 -24.945312 15.140625 -26.21875 C 15.960938 -27.5 16.609375 -28.484375 17.078125 -29.171875 C 17.546875 -29.859375 17.78125 -30.203125 17.78125 -30.203125 L 18.796875 -29.953125 C 18.796875 -29.953125 19 -29.84375 19.40625 -29.625 C 19.8125 -29.40625 20.335938 -29.109375 20.984375 -28.734375 C 21.628906 -28.359375 22.320312 -27.9375 23.0625 -27.46875 C 23.800781 -27.007812 24.507812 -26.535156 25.1875 -26.046875 C 25.875 -25.554688 26.457031 -25.085938 26.9375 -24.640625 C 26.957031 -24.617188 26.816406 -24.445312 26.515625 -24.125 C 26.222656 -23.800781 25.828125 -23.363281 25.328125 -22.8125 C 24.828125 -22.257812 24.25 -21.632812 23.59375 -20.9375 C 22.9375 -20.238281 22.242188 -19.503906 21.515625 -18.734375 C 20.796875 -17.972656 20.070312 -17.210938 19.34375 -16.453125 C 18.613281 -15.703125 17.921875 -14.988281 17.265625 -14.3125 C 16.617188 -13.644531 16.046875 -13.066406 15.546875 -12.578125 C 15.515625 -12.066406 15.488281 -11.414062 15.46875 -10.625 C 15.457031 -9.84375 15.445312 -8.992188 15.4375 -8.078125 C 15.4375 -7.160156 15.429688 -6.25 15.421875 -5.34375 C 15.421875 -4.4375 15.421875 -3.609375 15.421875 -2.859375 C 15.429688 -2.109375 15.4375 -1.503906 15.4375 -1.046875 C 15.4375 -0.597656 15.4375 -0.375 15.4375 -0.375 Z M 15.4375 -0.375 "/></g></g></g></g></g></svg>